SplineFontDB: 3.0
FontName: FiraMath-Heavy
FullName: Fira Math Heavy
FamilyName: Fira Math
Weight: Heavy
Copyright: 
Version: 
ItalicAngle: 0
UnderlinePosition: -100
UnderlineWidth: 50
Ascent: 800
Descent: 200
InvalidEm: 0
LayerCount: 2
Layer: 0 0 "Back" 1
Layer: 1 0 "Fore" 0
XUID: [1021 563 -381912583 7786]
OS2Version: 0
OS2_WeightWidthSlopeOnly: 0
OS2_UseTypoMetrics: 1
CreationTime: 1541744597
OS2TypoAscent: 0
OS2TypoAOffset: 1
OS2TypoDescent: 0
OS2TypoDOffset: 1
OS2TypoLinegap: 0
OS2WinAscent: 0
OS2WinAOffset: 1
OS2WinDescent: 0
OS2WinDOffset: 1
HheadAscent: 0
HheadAOffset: 1
HheadDescent: 0
HheadDOffset: 1
OS2Vendor: 'PfEd'
DEI: 91125
Encoding: UnicodeFull
UnicodeInterp: none
NameList: AGL For New Fonts
AntiAlias: 1
BeginChars: 1114112 699

StartChar: uni0021
Encoding: 33 33 1
Width: 240
Flags: W
LayerCount: 2
Fore
SplineSet
224 696 m 1
 198 270 l 1
 42 270 l 1
 16 696 l 1
 224 696 l 1
120 186 m 0
 177 186 223 139 223 83 c 0
 223 27 177 -20 120 -20 c 0
 63 -20 17 27 17 83 c 0
 17 139 63 186 120 186 c 0
EndSplineSet
EndChar

StartChar: uni0022
Encoding: 34 34 2
Width: 464
Flags: W
LayerCount: 2
Fore
SplineSet
62 406 m 1
 40 696 l 1
 210 696 l 1
 188 406 l 1
 62 406 l 1
276 406 m 1
 254 696 l 1
 424 696 l 1
 402 406 l 1
 276 406 l 1
EndSplineSet
EndChar

StartChar: uni0023
Encoding: 35 35 3
Width: 580
Flags: W
LayerCount: 2
Fore
SplineSet
565 436 m 1
 500 436 l 1
 476 257 l 1
 528 257 l 1
 528 131 l 1
 459 131 l 1
 442 0 l 1
 279 0 l 1
 296 131 l 1
 228 131 l 1
 211 0 l 1
 48 0 l 1
 65 131 l 1
 15 131 l 1
 15 257 l 1
 82 257 l 1
 106 436 l 1
 52 436 l 1
 52 562 l 1
 122 562 l 1
 138 680 l 1
 301 680 l 1
 285 562 l 1
 353 562 l 1
 369 680 l 1
 532 680 l 1
 516 562 l 1
 565 562 l 1
 565 436 l 1
313 257 m 1
 337 436 l 1
 269 436 l 1
 245 257 l 1
 313 257 l 1
EndSplineSet
EndChar

StartChar: uni0024
Encoding: 36 36 4
Width: 560
Flags: W
LayerCount: 2
Fore
SplineSet
545 208 m 0
 545 104 476 26 358 0 c 1
 358 -165 l 1
 223 -165 l 1
 223 -7 l 1
 120 2 48 44 0 91 c 1
 96 196 l 1
 144 155 197 132 259 132 c 0
 316 132 341 157 341 191 c 0
 341 230 320 247 234 274 c 0
 74 324 28 392 28 488 c 0
 28 595 108 667 223 685 c 1
 223 834 l 1
 358 834 l 1
 358 684 l 1
 428 673 484 644 528 600 c 1
 442 498 l 1
 398 533 353 551 300 551 c 0
 253 551 229 533 229 504 c 0
 229 470 254 459 348 429 c 0
 484 385 545 326 545 208 c 0
EndSplineSet
EndChar

StartChar: uni0025
Encoding: 37 37 5
Width: 879
Flags: W
LayerCount: 2
Fore
SplineSet
614 725 m 1
 732 652 l 1
 268 -45 l 1
 151 28 l 1
 614 725 l 1
207 696 m 0
 311 696 394 624 394 510 c 0
 394 396 311 324 207 324 c 0
 104 324 20 396 20 510 c 0
 20 624 104 696 207 696 c 0
207 582 m 0
 163 582 152 546 152 510 c 0
 152 474 163 438 207 438 c 0
 251 438 261 474 261 510 c 0
 261 546 251 582 207 582 c 0
672 352 m 0
 776 352 859 280 859 166 c 0
 859 52 776 -20 672 -20 c 0
 569 -20 484 52 484 166 c 0
 484 280 569 352 672 352 c 0
672 238 m 0
 628 238 617 202 617 166 c 0
 617 130 628 94 672 94 c 0
 716 94 726 130 726 166 c 0
 726 202 716 238 672 238 c 0
EndSplineSet
EndChar

StartChar: uni0026
Encoding: 38 38 6
Width: 779
Flags: W
LayerCount: 2
Fore
SplineSet
319 716 m 0
 470 716 553 644 553 551 c 0
 553 468 504 413 425 358 c 1
 536 255 l 1
 552 290 565 333 576 383 c 1
 736 336 l 1
 710 264 679 205 643 157 c 1
 769 49 l 1
 593 -20 l 1
 526 44 l 1
 459 -2 386 -20 309 -20 c 0
 151 -20 47 59 47 179 c 0
 47 259 87 311 180 372 c 1
 105 446 85 483 85 542 c 0
 85 628 157 716 319 716 c 0
322 593 m 0
 293 593 274 574 274 542 c 0
 274 517 279 501 318 461 c 1
 353 487 365 512 365 547 c 0
 365 574 350 593 322 593 c 0
292 266 m 1
 266 244 256 220 256 191 c 0
 256 147 289 116 346 116 c 0
 378 116 406 122 431 134 c 1
 292 266 l 1
EndSplineSet
EndChar

StartChar: uni0027
Encoding: 39 39 7
Width: 250
Flags: W
LayerCount: 2
Fore
SplineSet
62 406 m 1
 40 696 l 1
 210 696 l 1
 188 406 l 1
 62 406 l 1
EndSplineSet
EndChar

StartChar: uni0028
Encoding: 40 40 8
Width: 325
Flags: W
LayerCount: 2
Fore
SplineSet
203 867 m 1
 330 782 l 1
 236 650 203 517 203 350 c 0
 203 183 236 50 330 -82 c 1
 203 -167 l 1
 101 -29 5 110 5 350 c 0
 5 590 101 729 203 867 c 1
EndSplineSet
EndChar

StartChar: uni0029
Encoding: 41 41 9
Width: 325
Flags: W
LayerCount: 2
Fore
SplineSet
122 867 m 1
 224 729 320 590 320 350 c 0
 320 110 224 -29 122 -167 c 1
 -5 -82 l 1
 89 50 122 183 122 350 c 0
 122 517 89 650 -5 782 c 1
 122 867 l 1
EndSplineSet
EndChar

StartChar: uni002A
Encoding: 42 42 10
Width: 455
Flags: W
LayerCount: 2
Fore
SplineSet
455 520 m 1
 321 502 l 1
 420 409 l 1
 287 312 l 1
 228 435 l 1
 170 311 l 1
 37 408 l 1
 135 502 l 1
 0 519 l 1
 51 672 l 1
 170 608 l 1
 146 744 l 1
 310 744 l 1
 286 608 l 1
 404 673 l 1
 455 520 l 1
EndSplineSet
EndChar

StartChar: uni002B
Encoding: 43 43 11
Width: 550
Flags: W
LayerCount: 2
Fore
SplineSet
355 567 m 1
 355 407 l 1
 510 407 l 1
 510 257 l 1
 355 257 l 1
 355 97 l 1
 195 97 l 1
 195 257 l 1
 40 257 l 1
 40 407 l 1
 195 407 l 1
 195 567 l 1
 355 567 l 1
EndSplineSet
EndChar

StartChar: uni002C
Encoding: 44 44 12
Width: 240
Flags: W
LayerCount: 2
Fore
SplineSet
120 186 m 0
 179 186 223 142 223 83 c 0
 223 48 210 17 183 -44 c 2
 121 -184 l 1
 19 -184 l 1
 63 -1 l 1
 33 18 17 48 17 84 c 0
 17 142 61 186 120 186 c 0
EndSplineSet
EndChar

StartChar: uni002D
Encoding: 45 45 13
Width: 410
Flags: W
LayerCount: 2
Fore
SplineSet
35 238 m 1
 35 388 l 1
 375 388 l 1
 375 238 l 1
 35 238 l 1
EndSplineSet
EndChar

StartChar: uni002E
Encoding: 46 46 14
Width: 240
Flags: W
LayerCount: 2
Fore
SplineSet
120 186 m 0
 177 186 223 139 223 83 c 0
 223 27 177 -20 120 -20 c 0
 63 -20 17 27 17 83 c 0
 17 139 63 186 120 186 c 0
EndSplineSet
EndChar

StartChar: uni002F
Encoding: 47 47 15
Width: 520
Flags: W
LayerCount: 2
Fore
SplineSet
292 822 m 1
 466 782 l 1
 229 -117 l 1
 54 -77 l 1
 292 822 l 1
EndSplineSet
EndChar

StartChar: uni0030
Encoding: 48 48 16
Width: 602
Flags: W
LayerCount: 2
Fore
SplineSet
301 696 m 0
 477 696 575 569 575 339 c 0
 575 110 477 -20 301 -20 c 0
 125 -20 27 110 27 339 c 0
 27 569 125 696 301 696 c 0
301 553 m 0
 246 553 229 507 229 339 c 0
 229 170 246 124 301 124 c 0
 356 124 373 164 373 339 c 0
 373 515 356 553 301 553 c 0
EndSplineSet
EndChar

StartChar: uni0031
Encoding: 49 49 17
Width: 482
Flags: W
LayerCount: 2
Fore
SplineSet
417 680 m 1
 417 0 l 1
 225 0 l 1
 225 492 l 1
 86 407 l 1
 0 536 l 1
 241 680 l 1
 417 680 l 1
EndSplineSet
EndChar

StartChar: uni0032
Encoding: 50 50 18
Width: 530
Flags: W
LayerCount: 2
Fore
SplineSet
244 696 m 0
 412 696 496 603 496 497 c 0
 496 404 462 332 247 148 c 1
 510 148 l 1
 490 0 l 1
 23 0 l 1
 23 136 l 1
 244 346 294 406 294 475 c 0
 294 520 267 548 222 548 c 0
 177 548 144 526 108 480 c 1
 -5 570 l 1
 49 644 133 696 244 696 c 0
EndSplineSet
EndChar

StartChar: uni0033
Encoding: 51 51 19
Width: 532
Flags: W
LayerCount: 2
Fore
SplineSet
247 696 m 0
 405 696 489 622 489 524 c 0
 489 443 443 386 355 359 c 1
 439 349 512 301 512 189 c 0
 512 79 420 -20 236 -20 c 0
 120 -20 39 24 -15 90 c 1
 88 191 l 1
 134 147 171 128 222 128 c 0
 271 128 310 154 310 206 c 0
 310 263 279 289 213 289 c 2
 153 289 l 1
 175 421 l 1
 216 421 l 2
 272 421 299 448 299 490 c 0
 299 531 269 553 222 553 c 0
 174 553 131 532 94 496 c 1
 -3 598 l 1
 63 662 147 696 247 696 c 0
EndSplineSet
EndChar

StartChar: uni0034
Encoding: 52 52 20
Width: 585
Flags: W
LayerCount: 2
Fore
SplineSet
570 280 m 1
 570 134 l 1
 500 134 l 1
 500 0 l 1
 306 0 l 1
 305 134 l 1
 20 134 l 1
 20 263 l 1
 207 701 l 1
 376 641 l 1
 223 280 l 1
 307 280 l 1
 330 428 l 1
 500 428 l 1
 500 280 l 1
 570 280 l 1
EndSplineSet
EndChar

StartChar: uni0035
Encoding: 53 53 21
Width: 557
Flags: W
LayerCount: 2
Fore
SplineSet
496 680 m 1
 475 542 l 1
 240 542 l 1
 240 433 l 1
 273 448 306 454 335 454 c 0
 445 454 532 373 532 229 c 0
 532 80 421 -20 246 -20 c 0
 133 -20 56 29 5 93 c 1
 114 192 l 1
 144 152 185 126 237 126 c 0
 296 126 330 160 330 226 c 0
 330 298 299 323 251 323 c 0
 229 323 208 317 179 299 c 1
 50 299 l 1
 50 680 l 1
 496 680 l 1
EndSplineSet
EndChar

StartChar: uni0036
Encoding: 54 54 22
Width: 582
Flags: W
LayerCount: 2
Fore
SplineSet
368 464 m 0
 486 464 567 377 567 233 c 0
 567 101 474 -20 303 -20 c 0
 113 -20 27 110 27 306 c 0
 27 541 149 696 347 696 c 0
 416 696 472 676 510 650 c 1
 439 535 l 1
 413 550 388 560 353 560 c 0
 291 560 247 515 235 416 c 1
 276 449 323 464 368 464 c 0
305 118 m 0
 350 118 369 163 369 232 c 0
 369 308 351 333 306 333 c 0
 285 333 260 324 235 303 c 1
 235 165 251 118 305 118 c 0
EndSplineSet
EndChar

StartChar: uni0037
Encoding: 55 55 23
Width: 482
Flags: W
LayerCount: 2
Fore
SplineSet
472 680 m 1
 472 550 l 1
 225 -20 l 1
 46 40 l 1
 264 534 l 1
 5 534 l 1
 5 680 l 1
 472 680 l 1
EndSplineSet
EndChar

StartChar: uni0038
Encoding: 56 56 24
Width: 599
Flags: W
LayerCount: 2
Fore
SplineSet
448 365 m 1
 541 317 579 258 579 185 c 0
 579 78 482 -20 295 -20 c 0
 117 -20 20 75 20 182 c 0
 20 258 66 313 141 346 c 1
 71 392 46 451 46 509 c 0
 46 615 144 696 300 696 c 0
 455 696 553 628 553 519 c 0
 553 467 522 407 448 365 c 1
301 567 m 0
 263 567 237 548 237 506 c 0
 237 473 252 447 293 426 c 2
 317 416 l 1
 356 446 362 477 362 508 c 0
 362 542 342 567 301 567 c 0
302 118 m 0
 359 118 383 151 383 188 c 0
 383 233 360 254 304 277 c 2
 266 291 l 1
 232 268 216 233 216 194 c 0
 216 149 250 118 302 118 c 0
EndSplineSet
EndChar

StartChar: uni0039
Encoding: 57 57 25
Width: 582
Flags: W
LayerCount: 2
Fore
SplineSet
288 696 m 0
 469 696 562 585 562 433 c 0
 562 158 417 20 102 -32 c 1
 63 104 l 1
 233 140 307 182 346 283 c 1
 310 247 273 229 213 229 c 0
 107 229 15 314 15 456 c 0
 15 598 132 696 288 696 c 0
279 363 m 0
 306 363 336 376 359 408 c 1
 360 521 345 560 286 560 c 0
 244 560 213 530 213 466 c 0
 213 382 245 363 279 363 c 0
EndSplineSet
EndChar

StartChar: uni003A
Encoding: 58 58 26
Width: 240
Flags: W
LayerCount: 2
Fore
SplineSet
120 518 m 0
 177 518 223 471 223 415 c 0
 223 359 177 312 120 312 c 0
 63 312 17 359 17 415 c 0
 17 471 63 518 120 518 c 0
120 186 m 0
 177 186 223 139 223 83 c 0
 223 27 177 -20 120 -20 c 0
 63 -20 17 27 17 83 c 0
 17 139 63 186 120 186 c 0
EndSplineSet
EndChar

StartChar: uni003B
Encoding: 59 59 27
Width: 240
Flags: W
LayerCount: 2
Fore
SplineSet
120 518 m 0
 177 518 223 471 223 415 c 0
 223 359 177 312 120 312 c 0
 63 312 17 359 17 415 c 0
 17 471 63 518 120 518 c 0
120 186 m 0
 179 186 223 142 223 83 c 0
 223 48 210 17 183 -44 c 2
 121 -184 l 1
 19 -184 l 1
 63 -1 l 1
 33 18 17 48 17 84 c 0
 17 142 61 186 120 186 c 0
EndSplineSet
EndChar

StartChar: uni003C
Encoding: 60 60 28
Width: 530
Flags: W
LayerCount: 2
Fore
SplineSet
445 591 m 1
 505 459 l 1
 196 333 l 1
 505 215 l 1
 445 75 l 1
 25 249 l 1
 25 416 l 1
 445 591 l 1
EndSplineSet
EndChar

StartChar: uni003D
Encoding: 61 61 29
Width: 530
Flags: W
LayerCount: 2
Fore
SplineSet
40 367 m 1
 40 517 l 1
 490 517 l 1
 490 367 l 1
 40 367 l 1
40 147 m 1
 40 297 l 1
 490 297 l 1
 490 147 l 1
 40 147 l 1
EndSplineSet
EndChar

StartChar: uni003E
Encoding: 62 62 30
Width: 530
Flags: W
LayerCount: 2
Fore
SplineSet
85 591 m 1
 505 416 l 1
 505 249 l 1
 85 75 l 1
 25 215 l 1
 334 333 l 1
 25 459 l 1
 85 591 l 1
EndSplineSet
EndChar

StartChar: uni003F
Encoding: 63 63 31
Width: 495
Flags: W
LayerCount: 2
Fore
SplineSet
254 716 m 0
 412 716 490 636 490 542 c 0
 490 378 311 384 311 283 c 2
 311 270 l 1
 135 270 l 1
 135 289 l 2
 135 465 283 457 283 523 c 0
 283 548 265 562 232 562 c 0
 197 562 161 543 128 508 c 1
 5 604 l 1
 61 670 139 716 254 716 c 0
224 186 m 0
 281 186 327 139 327 83 c 0
 327 27 281 -20 224 -20 c 0
 167 -20 121 27 121 83 c 0
 121 139 167 186 224 186 c 0
EndSplineSet
EndChar

StartChar: uni0040
Encoding: 64 64 32
Width: 1020
Flags: W
LayerCount: 2
Fore
SplineSet
528 509 m 0
 584 509 657 491 711 461 c 1
 711 222 l 2
 711 140 716 116 745 116 c 0
 781 116 814 154 814 319 c 0
 814 482 729 577 526 577 c 0
 317 577 208 444 208 244 c 0
 208 35 316 -86 528 -86 c 0
 593 -86 677 -70 727 -51 c 1
 772 -183 l 1
 711 -208 607 -227 527 -227 c 0
 224 -227 35 -44 35 243 c 0
 35 522 245 716 527 716 c 0
 815 716 985 524 985 321 c 0
 985 129 885 1 754 1 c 0
 676 1 628 52 618 102 c 1
 592 42 543 6 475 6 c 0
 335 6 286 107 286 234 c 0
 286 393 366 509 528 509 c 0
501 125 m 0
 520 125 536 135 546 153 c 1
 546 383 l 1
 534 388 527 389 517 389 c 0
 487 389 460 361 460 233 c 0
 460 146 471 125 501 125 c 0
EndSplineSet
EndChar

StartChar: uni0041
Encoding: 65 65 33
Width: 601
Flags: W
LayerCount: 2
Fore
SplineSet
408 0 m 1
 381 135 l 1
 216 135 l 1
 190 0 l 1
 -25 0 l 1
 178 696 l 1
 424 696 l 1
 626 0 l 1
 408 0 l 1
245 279 m 1
 352 279 l 1
 298 552 l 1
 245 279 l 1
EndSplineSet
EndChar

StartChar: uni0042
Encoding: 66 66 34
Width: 622
Flags: W
LayerCount: 2
Fore
SplineSet
452 369 m 1
 528 353 607 315 607 206 c 0
 607 41 470 0 287 0 c 2
 43 0 l 1
 43 696 l 1
 260 696 l 2
 455 696 578 652 578 516 c 0
 578 426 514 385 452 369 c 1
279 555 m 2
 249 555 l 1
 249 427 l 1
 284 427 l 2
 347 427 369 446 369 495 c 0
 369 536 345 555 279 555 c 2
289 145 m 2
 352 145 395 158 395 220 c 0
 395 274 361 297 297 297 c 2
 249 297 l 1
 249 145 l 1
 289 145 l 2
EndSplineSet
EndChar

StartChar: uni0043
Encoding: 67 67 35
Width: 584
Flags: W
LayerCount: 2
Fore
SplineSet
352 716 m 0
 444 716 516 686 576 634 c 1
 481 522 l 1
 445 549 408 568 362 568 c 0
 282 568 234 497 234 350 c 0
 234 203 282 135 365 135 c 0
 414 135 452 158 494 191 c 1
 584 77 l 1
 533 26 452 -20 355 -20 c 0
 151 -20 20 109 20 350 c 0
 20 582 157 716 352 716 c 0
EndSplineSet
EndChar

StartChar: uni0044
Encoding: 68 68 36
Width: 656
Flags: W
LayerCount: 2
Fore
SplineSet
266 696 m 2
 457 696 636 637 636 351 c 0
 636 73 472 0 278 0 c 2
 43 0 l 1
 43 696 l 1
 266 696 l 2
291 551 m 2
 249 551 l 1
 249 145 l 1
 290 145 l 2
 383 145 424 193 424 351 c 0
 424 509 379 551 291 551 c 2
EndSplineSet
EndChar

StartChar: uni0045
Encoding: 69 69 37
Width: 520
Flags: W
LayerCount: 2
Fore
SplineSet
500 696 m 1
 479 553 l 1
 249 553 l 1
 249 423 l 1
 451 423 l 1
 451 284 l 1
 249 284 l 1
 249 144 l 1
 495 144 l 1
 495 0 l 1
 43 0 l 1
 43 696 l 1
 500 696 l 1
EndSplineSet
EndChar

StartChar: uni0046
Encoding: 70 70 38
Width: 485
Flags: W
LayerCount: 2
Fore
SplineSet
43 0 m 1
 43 696 l 1
 485 696 l 1
 464 553 l 1
 249 553 l 1
 249 401 l 1
 438 401 l 1
 438 258 l 1
 249 258 l 1
 249 0 l 1
 43 0 l 1
EndSplineSet
EndChar

StartChar: uni0047
Encoding: 71 71 39
Width: 653
Flags: W
LayerCount: 2
Fore
SplineSet
371 716 m 0
 478 716 561 675 618 625 c 1
 518 521 l 1
 472 554 436 572 383 572 c 0
 287 572 232 501 232 348 c 0
 232 176 268 126 349 126 c 0
 376 126 398 132 420 143 c 1
 420 270 l 1
 350 270 l 1
 331 409 l 1
 618 409 l 1
 618 60 l 1
 543 9 442 -20 355 -20 c 0
 122 -20 20 112 20 349 c 0
 20 585 170 716 371 716 c 0
EndSplineSet
EndChar

StartChar: uni0048
Encoding: 72 72 40
Width: 657
Flags: W
LayerCount: 2
Fore
SplineSet
408 0 m 1
 408 281 l 1
 249 281 l 1
 249 0 l 1
 43 0 l 1
 43 696 l 1
 249 696 l 1
 249 439 l 1
 408 439 l 1
 408 696 l 1
 614 696 l 1
 614 0 l 1
 408 0 l 1
EndSplineSet
EndChar

StartChar: uni0049
Encoding: 73 73 41
Width: 292
Flags: W
LayerCount: 2
Fore
SplineSet
249 696 m 1
 249 0 l 1
 43 0 l 1
 43 696 l 1
 249 696 l 1
EndSplineSet
EndChar

StartChar: uni004A
Encoding: 74 74 42
Width: 325
Flags: W
LayerCount: 2
Fore
SplineSet
284 696 m 1
 284 111 l 2
 284 -83 156 -149 35 -189 c 1
 -20 -44 l 1
 69 -10 78 41 78 118 c 2
 78 696 l 1
 284 696 l 1
EndSplineSet
EndChar

StartChar: uni004B
Encoding: 75 75 43
Width: 659
Flags: W
LayerCount: 2
Fore
SplineSet
249 696 m 1
 249 0 l 1
 43 0 l 1
 43 696 l 1
 249 696 l 1
661 696 m 1
 464 387 l 1
 679 0 l 1
 445 0 l 1
 255 371 l 1
 449 696 l 1
 661 696 l 1
EndSplineSet
EndChar

StartChar: uni004C
Encoding: 76 76 44
Width: 522
Flags: W
LayerCount: 2
Fore
SplineSet
249 696 m 1
 249 158 l 1
 512 158 l 1
 491 0 l 1
 43 0 l 1
 43 696 l 1
 249 696 l 1
EndSplineSet
EndChar

StartChar: uni004D
Encoding: 77 77 45
Width: 791
Flags: W
LayerCount: 2
Fore
SplineSet
726 696 m 1
 776 0 l 1
 573 0 l 1
 568 247 l 2
 566 337 566 427 575 531 c 1
 493 70 l 1
 298 70 l 1
 210 531 l 1
 221 416 225 342 223 248 c 2
 218 0 l 1
 15 0 l 1
 65 696 l 1
 319 696 l 1
 399 245 l 1
 471 696 l 1
 726 696 l 1
EndSplineSet
EndChar

StartChar: uni004E
Encoding: 78 78 46
Width: 651
Flags: W
LayerCount: 2
Fore
SplineSet
608 696 m 1
 608 0 l 1
 350 0 l 1
 198 508 l 1
 208 441 225 345 225 216 c 2
 225 0 l 1
 43 0 l 1
 43 696 l 1
 296 696 l 1
 454 186 l 1
 441 267 426 347 426 473 c 2
 426 696 l 1
 608 696 l 1
EndSplineSet
EndChar

StartChar: uni004F
Encoding: 79 79 47
Width: 690
Flags: W
LayerCount: 2
Fore
SplineSet
345 716 m 0
 554 716 670 580 670 349 c 0
 670 123 554 -20 345 -20 c 0
 136 -20 20 118 20 349 c 0
 20 575 136 716 345 716 c 0
345 570 m 0
 267 570 234 510 234 349 c 0
 234 188 267 126 345 126 c 0
 425 126 456 188 456 349 c 0
 456 510 423 570 345 570 c 0
EndSplineSet
EndChar

StartChar: uni0050
Encoding: 80 80 48
Width: 611
Flags: W
LayerCount: 2
Fore
SplineSet
294 696 m 2
 481 696 596 618 596 462 c 0
 596 299 482 217 317 217 c 2
 249 217 l 1
 249 0 l 1
 43 0 l 1
 43 696 l 1
 294 696 l 2
297 362 m 2
 355 362 386 394 386 462 c 0
 386 519 359 553 291 553 c 2
 249 553 l 1
 249 362 l 1
 297 362 l 2
EndSplineSet
EndChar

StartChar: uni0051
Encoding: 81 81 49
Width: 690
Flags: W
LayerCount: 2
Fore
SplineSet
504 48 m 1
 601 48 661 29 720 -15 c 1
 599 -173 l 1
 543 -100 462 -16 330 -16 c 0
 136 -16 20 118 20 349 c 0
 20 575 136 716 345 716 c 0
 554 716 670 580 670 349 c 0
 670 182 582 94 504 48 c 1
234 349 m 0
 234 188 267 126 345 126 c 0
 425 126 456 188 456 349 c 0
 456 510 423 570 345 570 c 0
 267 570 234 510 234 349 c 0
EndSplineSet
EndChar

StartChar: uni0052
Encoding: 82 82 50
Width: 624
Flags: W
LayerCount: 2
Fore
SplineSet
416 0 m 1
 287 248 l 1
 249 248 l 1
 249 0 l 1
 43 0 l 1
 43 696 l 1
 298 696 l 2
 497 696 597 628 597 475 c 0
 597 387 559 335 474 286 c 1
 644 0 l 1
 416 0 l 1
249 555 m 1
 249 386 l 1
 303 386 l 2
 359 386 387 414 387 475 c 0
 387 530 354 555 293 555 c 2
 249 555 l 1
EndSplineSet
EndChar

StartChar: uni0053
Encoding: 83 83 51
Width: 588
Flags: W
LayerCount: 2
Fore
SplineSet
299 716 m 0
 411 716 493 682 556 621 c 1
 465 514 l 1
 419 551 371 570 316 570 c 0
 266 570 241 551 241 520 c 0
 241 484 267 473 366 441 c 0
 509 395 573 333 573 208 c 0
 573 74 463 -20 280 -20 c 0
 147 -20 57 30 0 85 c 1
 101 196 l 1
 151 153 207 128 272 128 c 0
 332 128 359 155 359 191 c 0
 359 232 337 250 246 278 c 0
 78 331 29 402 29 503 c 0
 29 635 145 716 299 716 c 0
EndSplineSet
EndChar

StartChar: uni0054
Encoding: 84 84 52
Width: 554
Flags: W
LayerCount: 2
Fore
SplineSet
559 696 m 1
 538 542 l 1
 380 542 l 1
 380 0 l 1
 174 0 l 1
 174 542 l 1
 5 542 l 1
 5 696 l 1
 559 696 l 1
EndSplineSet
EndChar

StartChar: uni0055
Encoding: 85 85 53
Width: 644
Flags: W
LayerCount: 2
Fore
SplineSet
611 696 m 1
 611 236 l 2
 611 94 518 -20 322 -20 c 0
 126 -20 33 84 33 236 c 2
 33 696 l 1
 239 696 l 1
 239 242 l 2
 239 165 262 128 322 128 c 0
 382 128 405 165 405 242 c 2
 405 696 l 1
 611 696 l 1
EndSplineSet
EndChar

StartChar: uni0056
Encoding: 86 86 54
Width: 579
Flags: W
LayerCount: 2
Fore
SplineSet
604 696 m 1
 428 0 l 1
 162 0 l 1
 -25 696 l 1
 192 696 l 1
 298 143 l 1
 393 696 l 1
 604 696 l 1
EndSplineSet
EndChar

StartChar: uni0057
Encoding: 87 87 55
Width: 859
Flags: W
LayerCount: 2
Fore
SplineSet
859 696 m 1
 758 0 l 1
 490 0 l 1
 428 500 l 1
 359 0 l 1
 97 0 l 1
 0 696 l 1
 206 696 l 1
 250 149 l 1
 324 696 l 1
 539 696 l 1
 601 149 l 1
 661 696 l 1
 859 696 l 1
EndSplineSet
EndChar

StartChar: uni0058
Encoding: 88 88 56
Width: 606
Flags: W
LayerCount: 2
Fore
SplineSet
422 375 m 1
 616 0 l 1
 394 0 l 1
 298 239 l 1
 208 0 l 1
 -10 0 l 1
 176 369 l 1
 3 696 l 1
 224 696 l 1
 300 496 l 1
 385 696 l 1
 602 696 l 1
 422 375 l 1
EndSplineSet
EndChar

StartChar: uni0059
Encoding: 89 89 57
Width: 620
Flags: W
LayerCount: 2
Fore
SplineSet
635 696 m 1
 413 257 l 1
 413 0 l 1
 207 0 l 1
 207 256 l 1
 -15 696 l 1
 210 696 l 1
 313 412 l 1
 417 696 l 1
 635 696 l 1
EndSplineSet
EndChar

StartChar: uni005A
Encoding: 90 90 58
Width: 557
Flags: W
LayerCount: 2
Fore
SplineSet
533 696 m 1
 533 543 l 1
 256 161 l 1
 542 161 l 1
 522 0 l 1
 10 0 l 1
 10 151 l 1
 296 540 l 1
 38 540 l 1
 38 696 l 1
 533 696 l 1
EndSplineSet
EndChar

StartChar: uni005B
Encoding: 91 91 59
Width: 325
Flags: W
LayerCount: 2
Fore
SplineSet
315 827 m 1
 315 684 l 1
 203 684 l 1
 203 15 l 1
 315 15 l 1
 315 -127 l 1
 15 -127 l 1
 15 827 l 1
 315 827 l 1
EndSplineSet
EndChar

StartChar: uni005C
Encoding: 92 92 60
Width: 520
Flags: W
LayerCount: 2
Fore
SplineSet
228 822 m 1
 466 -77 l 1
 291 -117 l 1
 54 782 l 1
 228 822 l 1
EndSplineSet
EndChar

StartChar: uni005D
Encoding: 93 93 61
Width: 325
Flags: W
LayerCount: 2
Fore
SplineSet
310 827 m 1
 310 -127 l 1
 10 -127 l 1
 10 16 l 1
 122 16 l 1
 122 685 l 1
 10 685 l 1
 10 827 l 1
 310 827 l 1
EndSplineSet
EndChar

StartChar: uni005E
Encoding: 94 94 62
Width: 570
Flags: W
LayerCount: 2
Fore
SplineSet
376 847 m 1
 565 527 l 1
 376 527 l 1
 284 705 l 1
 198 527 l 1
 5 527 l 1
 194 847 l 1
 376 847 l 1
EndSplineSet
EndChar

StartChar: uni005F
Encoding: 95 95 63
Width: 520
Flags: W
LayerCount: 2
Fore
SplineSet
5 -188 m 1
 5 -38 l 1
 515 -38 l 1
 515 -188 l 1
 5 -188 l 1
EndSplineSet
EndChar

StartChar: uni0060
Encoding: 96 96 64
Width: 364
Flags: W
LayerCount: 2
Fore
SplineSet
104 856 m 1
 334 712 l 1
 281 613 l 1
 30 712 l 1
 104 856 l 1
EndSplineSet
EndChar

StartChar: uni0061
Encoding: 97 97 65
Width: 551
Flags: W
LayerCount: 2
Fore
SplineSet
504 173 m 2
 504 135 512 120 536 111 c 1
 496 -16 l 1
 427 -11 382 7 352 58 c 1
 313 -1 252 -20 191 -20 c 0
 84 -20 15 51 15 150 c 0
 15 268 105 333 273 333 c 2
 311 333 l 1
 311 346 l 2
 311 400 293 414 234 414 c 0
 203 414 149 404 96 386 c 1
 53 512 l 1
 120 539 203 554 264 554 c 0
 434 554 504 489 504 357 c 2
 504 173 l 2
252 119 m 0
 277 119 298 133 311 151 c 1
 311 230 l 1
 290 230 l 2
 234 230 208 211 208 169 c 0
 208 139 225 119 252 119 c 0
EndSplineSet
EndChar

StartChar: uni0062
Encoding: 98 98 66
Width: 594
Flags: W
LayerCount: 2
Fore
SplineSet
380 554 m 0
 511 554 577 445 577 266 c 0
 577 103 498 -20 363 -20 c 0
 304 -20 256 5 225 46 c 1
 218 0 l 1
 42 0 l 1
 42 744 l 1
 240 764 l 1
 240 487 l 1
 269 527 324 554 380 554 c 0
303 121 m 0
 345 121 374 154 374 266 c 0
 374 391 346 412 310 412 c 0
 286 412 261 398 240 362 c 1
 240 160 l 1
 256 133 277 121 303 121 c 0
EndSplineSet
EndChar

StartChar: uni0063
Encoding: 99 99 67
Width: 479
Flags: W
LayerCount: 2
Fore
SplineSet
295 554 m 0
 377 554 438 528 489 483 c 1
 407 368 l 1
 375 394 345 405 313 405 c 0
 255 405 223 371 223 263 c 0
 223 156 260 133 311 133 c 0
 344 133 367 144 404 167 c 1
 489 46 l 1
 440 6 380 -20 300 -20 c 0
 124 -20 17 96 17 263 c 0
 17 432 126 554 295 554 c 0
EndSplineSet
EndChar

StartChar: uni0064
Encoding: 100 100 68
Width: 596
Flags: W
LayerCount: 2
Fore
SplineSet
356 764 m 1
 554 744 l 1
 554 0 l 1
 378 0 l 1
 371 55 l 1
 343 18 297 -20 220 -20 c 0
 81 -20 17 94 17 270 c 0
 17 436 107 554 240 554 c 0
 286 554 326 539 356 512 c 1
 356 764 l 1
287 122 m 0
 313 122 337 136 356 169 c 1
 356 383 l 1
 338 402 321 413 297 413 c 0
 254 413 220 376 220 268 c 0
 220 140 251 122 287 122 c 0
EndSplineSet
EndChar

StartChar: uni0065
Encoding: 101 101 69
Width: 560
Flags: W
LayerCount: 2
Fore
SplineSet
545 274 m 0
 545 257 543 230 541 211 c 1
 217 211 l 1
 228 134 266 120 324 120 c 0
 362 120 399 135 445 167 c 1
 525 59 l 1
 472 16 398 -20 305 -20 c 0
 109 -20 17 101 17 266 c 0
 17 422 106 554 283 554 c 0
 441 554 545 453 545 274 c 0
350 323 m 1
 350 330 l 2
 349 384 338 429 287 429 c 0
 245 429 223 405 216 323 c 1
 350 323 l 1
EndSplineSet
EndChar

StartChar: uni0066
Encoding: 102 102 70
Width: 369
Flags: W
LayerCount: 2
Fore
SplineSet
323 622 m 0
 285 622 268 605 268 555 c 2
 268 534 l 1
 392 534 l 1
 370 400 l 1
 268 400 l 1
 268 0 l 1
 70 0 l 1
 70 400 l 1
 -2 400 l 1
 -2 534 l 1
 70 534 l 1
 70 565 l 2
 70 675 143 764 296 764 c 0
 354 764 416 747 453 727 c 1
 401 602 l 1
 373 617 345 622 323 622 c 0
EndSplineSet
EndChar

StartChar: uni0067
Encoding: 103 103 71
Width: 570
Flags: W
LayerCount: 2
Fore
SplineSet
527 636 m 1
 570 498 l 1
 537 483 488 474 418 474 c 1
 488 445 522 408 522 334 c 0
 522 233 431 158 285 158 c 0
 264 158 246 158 228 161 c 1
 220 157 216 150 216 142 c 0
 216 132 219 117 268 117 c 2
 345 117 l 2
 479 117 562 51 562 -42 c 0
 562 -155 459 -227 266 -227 c 0
 47 -227 -5 -153 -5 -49 c 1
 172 -49 l 1
 172 -88 188 -102 272 -102 c 0
 352 -102 363 -78 363 -56 c 0
 363 -37 350 -17 306 -17 c 2
 232 -17 l 2
 102 -17 52 31 52 90 c 0
 52 132 81 174 120 197 c 1
 47 236 20 284 20 353 c 0
 20 481 119 554 271 554 c 1
 382 550 461 591 527 636 c 1
277 426 m 0
 242 426 216 403 216 357 c 0
 216 306 243 284 277 284 c 0
 317 284 338 308 338 360 c 0
 338 407 318 426 277 426 c 0
EndSplineSet
EndChar

StartChar: uni0068
Encoding: 104 104 72
Width: 570
Flags: W
LayerCount: 2
Fore
SplineSet
391 554 m 0
 480 554 535 496 535 394 c 2
 535 0 l 1
 337 0 l 1
 337 358 l 2
 337 400 325 410 307 410 c 0
 286 410 263 393 240 357 c 1
 240 0 l 1
 42 0 l 1
 42 744 l 1
 240 764 l 1
 240 486 l 1
 286 534 331 554 391 554 c 0
EndSplineSet
EndChar

StartChar: uni0069
Encoding: 105 105 73
Width: 282
Flags: W
LayerCount: 2
Fore
SplineSet
141 829 m 0
 206 829 252 783 252 723 c 0
 252 663 206 617 141 617 c 0
 76 617 30 663 30 723 c 0
 30 783 76 829 141 829 c 0
240 534 m 1
 240 0 l 1
 42 0 l 1
 42 534 l 1
 240 534 l 1
EndSplineSet
EndChar

StartChar: uni006A
Encoding: 106 106 74
Width: 282
Flags: W
LayerCount: 2
Fore
SplineSet
141 829 m 0
 206 829 252 783 252 723 c 0
 252 663 206 617 141 617 c 0
 76 617 30 663 30 723 c 0
 30 783 76 829 141 829 c 0
240 534 m 1
 240 77 l 2
 240 -111 130 -184 -2 -227 c 1
 -70 -83 l 1
 -3 -52 42 -22 42 65 c 2
 42 534 l 1
 240 534 l 1
EndSplineSet
EndChar

StartChar: uni006B
Encoding: 107 107 75
Width: 576
Flags: W
LayerCount: 2
Fore
SplineSet
240 764 m 1
 240 0 l 1
 42 0 l 1
 42 744 l 1
 240 764 l 1
583 534 m 1
 442 300 l 1
 591 0 l 1
 372 0 l 1
 244 292 l 1
 387 534 l 1
 583 534 l 1
EndSplineSet
EndChar

StartChar: uni006C
Encoding: 108 108 76
Width: 303
Flags: W
LayerCount: 2
Fore
SplineSet
203 -20 m 0
 95 -20 35 43 35 154 c 2
 35 744 l 1
 233 764 l 1
 233 162 l 2
 233 144 241 135 257 135 c 0
 266 135 273 137 278 139 c 1
 313 -2 l 1
 287 -12 248 -20 203 -20 c 0
EndSplineSet
EndChar

StartChar: uni006D
Encoding: 109 109 77
Width: 835
Flags: W
LayerCount: 2
Fore
SplineSet
664 554 m 0
 744 554 800 496 800 394 c 2
 800 0 l 1
 602 0 l 1
 602 358 l 2
 602 400 590 410 575 410 c 0
 556 410 536 393 520 357 c 1
 520 0 l 1
 322 0 l 1
 322 358 l 2
 322 400 310 410 295 410 c 0
 276 410 256 393 240 357 c 1
 240 0 l 1
 42 0 l 1
 42 534 l 1
 215 534 l 1
 229 480 l 1
 272 532 320 554 384 554 c 0
 439 554 483 527 504 477 c 1
 549 531 598 554 664 554 c 0
EndSplineSet
EndChar

StartChar: uni006E
Encoding: 110 110 78
Width: 570
Flags: W
LayerCount: 2
Fore
SplineSet
391 554 m 0
 480 554 535 496 535 394 c 2
 535 0 l 1
 337 0 l 1
 337 358 l 2
 337 400 325 410 307 410 c 0
 286 410 263 393 240 357 c 1
 240 0 l 1
 42 0 l 1
 42 534 l 1
 215 534 l 1
 229 479 l 1
 278 531 327 554 391 554 c 0
EndSplineSet
EndChar

StartChar: uni006F
Encoding: 111 111 79
Width: 584
Flags: W
LayerCount: 2
Fore
SplineSet
292 554 m 0
 460 554 567 452 567 266 c 0
 567 92 462 -20 292 -20 c 0
 124 -20 17 82 17 268 c 0
 17 442 122 554 292 554 c 0
292 412 m 0
 242 412 220 369 220 268 c 0
 220 162 242 122 292 122 c 0
 342 122 364 165 364 266 c 0
 364 372 342 412 292 412 c 0
EndSplineSet
EndChar

StartChar: uni0070
Encoding: 112 112 80
Width: 594
Flags: W
LayerCount: 2
Fore
SplineSet
377 554 m 0
 512 554 577 445 577 269 c 0
 577 103 492 -20 364 -20 c 0
 314 -20 272 -2 240 33 c 1
 240 -207 l 1
 42 -227 l 1
 42 534 l 1
 218 534 l 1
 226 482 l 1
 272 537 329 554 377 554 c 0
299 121 m 0
 343 121 374 158 374 266 c 0
 374 395 346 412 310 412 c 0
 285 412 260 398 240 362 c 1
 240 158 l 1
 258 131 275 121 299 121 c 0
EndSplineSet
EndChar

StartChar: uni0071
Encoding: 113 113 81
Width: 596
Flags: W
LayerCount: 2
Fore
SplineSet
381 534 m 1
 554 534 l 1
 554 -227 l 1
 356 -207 l 1
 356 41 l 1
 327 7 285 -20 220 -20 c 0
 82 -20 17 94 17 270 c 0
 17 436 106 554 241 554 c 0
 289 554 333 538 372 497 c 1
 381 534 l 1
287 122 m 0
 313 122 337 136 356 169 c 1
 356 383 l 1
 338 402 322 413 298 413 c 0
 254 413 220 376 220 268 c 0
 220 140 251 122 287 122 c 0
EndSplineSet
EndChar

StartChar: uni0072
Encoding: 114 114 82
Width: 410
Flags: W
LayerCount: 2
Fore
SplineSet
366 551 m 0
 387 551 401 548 420 542 c 1
 389 351 l 1
 372 356 357 359 340 359 c 0
 276 359 255 311 240 243 c 1
 240 0 l 1
 42 0 l 1
 42 534 l 1
 215 534 l 1
 231 434 l 1
 253 504 307 551 366 551 c 0
EndSplineSet
EndChar

StartChar: uni0073
Encoding: 115 115 83
Width: 488
Flags: W
LayerCount: 2
Fore
SplineSet
256 554 m 0
 335 554 412 527 461 485 c 1
 391 378 l 1
 353 402 307 417 264 417 c 0
 231 417 219 407 219 393 c 0
 219 375 225 367 326 336 c 0
 427 305 483 261 483 164 c 0
 483 54 378 -20 230 -20 c 0
 136 -20 50 13 -5 65 c 1
 89 169 l 1
 127 139 176 116 225 116 c 0
 260 116 281 127 281 149 c 0
 281 175 270 180 178 208 c 0
 78 238 23 295 23 381 c 0
 23 477 106 554 256 554 c 0
EndSplineSet
EndChar

StartChar: uni0074
Encoding: 116 116 84
Width: 401
Flags: W
LayerCount: 2
Fore
SplineSet
352 149 m 1
 416 26 l 1
 372 -5 306 -20 256 -20 c 0
 122 -19 62 56 62 197 c 2
 62 400 l 1
 -2 400 l 1
 -2 534 l 1
 62 534 l 1
 62 646 l 1
 260 669 l 1
 260 534 l 1
 380 534 l 1
 360 400 l 1
 260 400 l 1
 260 199 l 2
 260 149 277 135 302 135 c 0
 317 135 334 139 352 149 c 1
EndSplineSet
EndChar

StartChar: uni0075
Encoding: 117 117 85
Width: 564
Flags: W
LayerCount: 2
Fore
SplineSet
522 534 m 1
 522 0 l 1
 349 0 l 1
 342 58 l 1
 305 6 251 -20 184 -20 c 0
 80 -20 35 48 35 150 c 2
 35 534 l 1
 233 534 l 1
 233 176 l 2
 233 134 247 124 266 124 c 0
 284 124 306 137 324 168 c 1
 324 534 l 1
 522 534 l 1
EndSplineSet
EndChar

StartChar: uni0076
Encoding: 118 118 86
Width: 526
Flags: W
LayerCount: 2
Fore
SplineSet
541 534 m 1
 382 0 l 1
 148 0 l 1
 -15 534 l 1
 200 534 l 1
 267 143 l 1
 341 534 l 1
 541 534 l 1
EndSplineSet
EndChar

StartChar: uni0077
Encoding: 119 119 87
Width: 768
Flags: W
LayerCount: 2
Fore
SplineSet
773 534 m 1
 668 0 l 1
 441 0 l 1
 383 358 l 1
 328 0 l 1
 102 0 l 1
 -5 534 l 1
 195 534 l 1
 227 151 l 1
 297 534 l 1
 482 534 l 1
 538 151 l 1
 583 534 l 1
 773 534 l 1
EndSplineSet
EndChar

StartChar: uni0078
Encoding: 120 120 88
Width: 528
Flags: W
LayerCount: 2
Fore
SplineSet
383 286 m 1
 548 0 l 1
 327 0 l 1
 257 184 l 1
 193 0 l 1
 -20 0 l 1
 143 280 l 1
 -6 534 l 1
 213 534 l 1
 265 377 l 1
 312 534 l 1
 519 534 l 1
 383 286 l 1
EndSplineSet
EndChar

StartChar: uni0079
Encoding: 121 121 89
Width: 534
Flags: W
LayerCount: 2
Fore
SplineSet
549 534 m 1
 385 1 l 2
 340 -147 232 -223 53 -228 c 1
 32 -93 l 1
 134 -83 177 -60 205 0 c 1
 137 0 l 1
 -15 534 l 1
 195 534 l 1
 262 121 l 1
 345 534 l 1
 549 534 l 1
EndSplineSet
EndChar

StartChar: uni007A
Encoding: 122 122 90
Width: 467
Flags: W
LayerCount: 2
Fore
SplineSet
455 534 m 1
 455 397 l 1
 236 146 l 1
 462 146 l 1
 445 0 l 1
 5 0 l 1
 5 138 l 1
 227 390 l 1
 25 390 l 1
 25 534 l 1
 455 534 l 1
EndSplineSet
EndChar

StartChar: uni007B
Encoding: 123 123 91
Width: 325
Flags: W
LayerCount: 2
Fore
SplineSet
310 842 m 1
 310 708 l 1
 255 708 246 693 246 654 c 2
 246 500 l 2
 246 401 202 366 125 349 c 1
 200 336 247 297 247 200 c 2
 247 46 l 2
 247 7 256 -8 310 -8 c 1
 310 -142 l 1
 103 -142 62 -78 62 32 c 2
 62 185 l 2
 62 245 51 269 0 269 c 1
 0 431 l 1
 51 431 62 455 62 515 c 2
 62 668 l 2
 62 779 103 842 310 842 c 1
EndSplineSet
EndChar

StartChar: uni007C
Encoding: 124 124 92
Width: 360
Flags: W
LayerCount: 2
Fore
SplineSet
273 812 m 1
 273 -107 l 1
 87 -107 l 1
 87 812 l 1
 273 812 l 1
EndSplineSet
EndChar

StartChar: uni007D
Encoding: 125 125 93
Width: 325
Flags: W
LayerCount: 2
Fore
SplineSet
15 842 m 1
 222 842 263 779 263 668 c 2
 263 515 l 2
 263 455 274 431 325 431 c 1
 325 269 l 1
 274 269 263 245 263 185 c 2
 263 32 l 2
 263 -78 222 -142 15 -142 c 1
 15 -8 l 1
 69 -8 78 7 78 46 c 2
 78 200 l 2
 78 297 125 336 200 349 c 1
 123 366 79 401 79 500 c 2
 79 654 l 2
 79 693 70 708 15 708 c 1
 15 842 l 1
EndSplineSet
EndChar

StartChar: uni007E
Encoding: 126 126 94
Width: 530
Flags: W
LayerCount: 2
Fore
SplineSet
350 221 m 0
 253 221 226 281 173 281 c 0
 136 281 124 257 105 231 c 1
 5 281 l 1
 41 355 90 426 180 426 c 0
 277 426 304 366 357 366 c 0
 394 366 406 390 426 414 c 1
 525 366 l 1
 489 292 440 221 350 221 c 0
EndSplineSet
EndChar

StartChar: uni00A1
Encoding: 161 161 96
Width: 240
Flags: W
LayerCount: 2
Fore
SplineSet
120 518 m 0
 177 518 223 471 223 415 c 0
 223 359 177 312 120 312 c 0
 63 312 17 359 17 415 c 0
 17 471 63 518 120 518 c 0
198 228 m 1
 224 -215 l 1
 16 -215 l 1
 42 228 l 1
 198 228 l 1
EndSplineSet
EndChar

StartChar: uni00A2
Encoding: 162 162 97
Width: 479
Flags: W
LayerCount: 2
Fore
SplineSet
404 167 m 1
 489 46 l 1
 452 16 409 -6 356 -15 c 1
 356 -165 l 1
 221 -165 l 1
 221 -11 l 1
 93 18 17 123 17 263 c 0
 17 406 95 516 222 546 c 1
 222 696 l 1
 356 696 l 1
 356 549 l 1
 409 539 452 516 489 483 c 1
 407 368 l 1
 375 394 345 405 313 405 c 0
 255 405 223 371 223 263 c 0
 223 156 260 133 311 133 c 0
 344 133 367 144 404 167 c 1
EndSplineSet
EndChar

StartChar: uni00A3
Encoding: 163 163 98
Width: 551
Flags: W
LayerCount: 2
Fore
SplineSet
298 263 m 2
 298 213 287 176 232 146 c 1
 531 146 l 1
 509 0 l 1
 20 0 l 1
 20 139 l 1
 102 160 104 197 104 250 c 2
 104 304 l 1
 35 304 l 1
 35 399 l 1
 104 399 l 1
 104 475 l 2
 104 602 179 696 332 696 c 0
 434 696 501 659 551 587 c 1
 432 501 l 1
 408 540 384 552 355 552 c 0
 312 552 298 521 298 473 c 2
 298 399 l 1
 469 399 l 1
 469 304 l 1
 298 304 l 1
 298 263 l 2
EndSplineSet
EndChar

StartChar: uni00A4
Encoding: 164 164 99
Width: 560
Flags: W
LayerCount: 2
Fore
SplineSet
507 342 m 0
 507 299 496 259 476 226 c 1
 551 151 l 1
 472 72 l 1
 394 148 l 1
 361 130 323 120 281 120 c 0
 239 120 201 130 168 148 c 1
 89 72 l 1
 10 151 l 1
 86 226 l 1
 66 260 55 299 55 342 c 0
 55 384 66 423 86 457 c 1
 10 534 l 1
 89 613 l 1
 167 536 l 1
 200 554 239 564 281 564 c 0
 323 564 362 554 395 535 c 1
 472 613 l 1
 551 534 l 1
 476 458 l 1
 496 424 507 385 507 342 c 0
281 247 m 0
 336 247 363 282 363 342 c 0
 363 401 336 435 281 435 c 0
 227 435 199 401 199 342 c 0
 199 282 227 247 281 247 c 0
EndSplineSet
EndChar

StartChar: uni00A5
Encoding: 165 165 100
Width: 588
Flags: W
LayerCount: 2
Fore
SplineSet
603 680 m 1
 434 356 l 1
 523 356 l 1
 523 261 l 1
 393 261 l 1
 393 201 l 1
 523 201 l 1
 523 106 l 1
 393 106 l 1
 393 0 l 1
 197 0 l 1
 197 106 l 1
 69 106 l 1
 69 201 l 1
 197 201 l 1
 197 261 l 1
 69 261 l 1
 69 356 l 1
 155 356 l 1
 -15 680 l 1
 193 680 l 1
 298 407 l 1
 400 680 l 1
 603 680 l 1
EndSplineSet
EndChar

StartChar: uni00A6
Encoding: 166 166 101
Width: 360
Flags: W
LayerCount: 2
Fore
SplineSet
273 812 m 1
 273 443 l 1
 87 443 l 1
 87 812 l 1
 273 812 l 1
273 262 m 1
 273 -107 l 1
 87 -107 l 1
 87 262 l 1
 273 262 l 1
EndSplineSet
EndChar

StartChar: uni00A7
Encoding: 167 167 102
Width: 560
Flags: W
LayerCount: 2
Fore
SplineSet
438 187 m 1
 478 159 494 129 494 76 c 0
 494 -21 403 -91 256 -91 c 0
 173 -91 103 -69 50 -34 c 1
 111 79 l 1
 156 54 199 41 241 41 c 0
 288 41 308 53 308 72 c 0
 308 95 300 107 192 139 c 0
 104 165 42 203 42 290 c 0
 42 347 79 387 124 414 c 1
 82 445 68 480 68 527 c 0
 68 621 153 696 300 696 c 0
 373 696 450 675 506 639 c 1
 443 531 l 1
 399 554 353 564 314 564 c 0
 271 564 254 552 254 532 c 0
 254 507 265 499 367 469 c 0
 455 443 518 405 518 315 c 0
 518 255 483 214 438 187 c 1
277 259 m 2
 333 237 l 1
 344 254 350 274 350 288 c 0
 350 314 332 331 258 354 c 0
 245 358 233 362 222 366 c 1
 213 349 210 332 210 319 c 0
 210 294 223 279 277 259 c 2
EndSplineSet
EndChar

StartChar: uni00A8
Encoding: 168 168 103
Width: 495
Flags: W
LayerCount: 2
Fore
SplineSet
123 818 m 0
 177 818 218 777 218 726 c 0
 218 674 177 633 123 633 c 0
 71 633 28 674 28 726 c 0
 28 777 71 818 123 818 c 0
368 818 m 0
 422 818 463 777 463 726 c 0
 463 674 422 633 368 633 c 0
 316 633 273 674 273 726 c 0
 273 777 316 818 368 818 c 0
EndSplineSet
EndChar

StartChar: uni00A9
Encoding: 169 169 104
Width: 810
Flags: W
LayerCount: 2
Fore
SplineSet
406 777 m 0
 603 777 758 635 758 431 c 0
 758 227 603 86 406 86 c 0
 210 86 52 227 52 431 c 0
 52 635 210 777 406 777 c 0
406 681 m 0
 266 681 163 581 163 431 c 0
 163 281 266 182 406 182 c 0
 545 182 648 281 648 431 c 0
 648 581 545 681 406 681 c 0
408 633 m 0
 458 633 511 612 547 576 c 1
 491 507 l 1
 465 527 448 530 424 530 c 0
 388 530 359 505 359 432 c 0
 359 358 384 333 421 333 c 0
 451 333 475 342 500 362 c 1
 551 287 l 1
 513 251 462 230 409 230 c 0
 294 230 223 302 223 432 c 0
 223 554 298 633 408 633 c 0
EndSplineSet
EndChar

StartChar: uni00AA
Encoding: 170 170 105
Width: 500
Flags: W
LayerCount: 2
Fore
SplineSet
246 530 m 2
 270 530 l 1
 270 533 l 2
 270 569 259 576 213 576 c 0
 190 576 146 568 104 555 c 1
 66 663 l 1
 120 684 190 696 239 696 c 0
 381 696 439 647 439 543 c 2
 439 418 l 2
 439 392 444 380 463 374 c 1
 428 264 l 1
 375 267 337 281 308 317 c 1
 277 275 227 260 178 260 c 0
 92 260 36 315 36 390 c 0
 36 480 109 530 246 530 c 2
210 405 m 0
 210 391 218 381 237 381 c 0
 250 381 262 386 270 393 c 1
 270 442 l 1
 262 442 l 2
 226 442 210 430 210 405 c 0
40 150 m 1
 467 150 l 1
 467 0 l 1
 40 0 l 1
 40 150 l 1
EndSplineSet
EndChar

StartChar: uni00AB
Encoding: 171 171 106
Width: 660
Flags: W
LayerCount: 2
Fore
SplineSet
223 569 m 1
 346 488 l 1
 221 283 l 1
 346 78 l 1
 223 -3 l 1
 25 222 l 1
 25 344 l 1
 223 569 l 1
512 569 m 1
 635 488 l 1
 510 283 l 1
 635 78 l 1
 512 -3 l 1
 314 222 l 1
 314 344 l 1
 512 569 l 1
EndSplineSet
EndChar

StartChar: uni00AC
Encoding: 172 172 107
Width: 550
Flags: W
LayerCount: 2
Fore
SplineSet
510 407 m 1
 510 97 l 1
 350 97 l 1
 350 257 l 1
 40 257 l 1
 40 407 l 1
 510 407 l 1
EndSplineSet
EndChar

StartChar: uni00AD
Encoding: 173 173 108
Width: 410
Flags: W
LayerCount: 2
Fore
SplineSet
35 238 m 1
 35 388 l 1
 375 388 l 1
 375 238 l 1
 35 238 l 1
EndSplineSet
EndChar

StartChar: uni00AE
Encoding: 174 174 109
Width: 635
Flags: W
LayerCount: 2
Fore
SplineSet
319 764 m 0
 484 764 605 648 605 479 c 0
 605 311 484 196 319 196 c 0
 153 196 30 311 30 479 c 0
 30 648 153 764 319 764 c 0
319 274 m 0
 433 274 513 352 513 479 c 0
 513 606 433 686 319 686 c 0
 204 686 122 606 122 479 c 0
 122 352 204 274 319 274 c 0
435 543 m 0
 435 507 413 480 381 465 c 1
 454 347 l 1
 363 347 l 1
 307 448 l 1
 287 448 l 1
 287 347 l 1
 207 347 l 1
 207 633 l 1
 295 633 l 2
 387 633 435 605 435 543 c 0
287 574 m 1
 287 514 l 1
 316 514 l 2
 336 514 353 523 353 546 c 0
 353 565 338 574 315 574 c 2
 287 574 l 1
EndSplineSet
EndChar

StartChar: uni00AF
Encoding: 175 175 110
Width: 385
Flags: W
LayerCount: 2
Fore
SplineSet
355 648 m 1
 30 648 l 1
 30 782 l 1
 355 782 l 1
 355 648 l 1
EndSplineSet
EndChar

StartChar: uni00B0
Encoding: 176 176 111
Width: 519
Flags: W
LayerCount: 2
Fore
SplineSet
217 362 m 0
 126 362 30 431 30 541 c 0
 30 651 126 716 217 716 c 0
 308 716 404 651 404 541 c 0
 404 431 308 362 217 362 c 0
217 473 m 0
 257 473 276 504 276 541 c 0
 276 578 257 608 217 608 c 0
 177 608 158 578 158 541 c 0
 158 504 177 473 217 473 c 0
EndSplineSet
EndChar

StartChar: uni00B1
Encoding: 177 177 112
Width: 550
Flags: W
LayerCount: 2
Fore
SplineSet
355 670 m 1
 355 510 l 1
 510 510 l 1
 510 360 l 1
 355 360 l 1
 355 200 l 1
 195 200 l 1
 195 360 l 1
 40 360 l 1
 40 510 l 1
 195 510 l 1
 195 670 l 1
 355 670 l 1
50 0 m 1
 50 150 l 1
 500 150 l 1
 500 0 l 1
 50 0 l 1
EndSplineSet
EndChar

StartChar: uni00B2
Encoding: 178 178 113
Width: 400
Flags: W
LayerCount: 2
Fore
SplineSet
194 755 m 0
 310 755 365 691 365 626 c 0
 365 570 342 528 204 426 c 1
 374 426 l 1
 360 320 l 1
 45 320 l 1
 45 417 l 1
 187 540 218 576 218 613 c 0
 218 637 203 651 177 651 c 0
 149 651 127 638 104 610 c 1
 25 672 l 1
 60 719 118 755 194 755 c 0
EndSplineSet
EndChar

StartChar: uni00B3
Encoding: 179 179 114
Width: 400
Flags: W
LayerCount: 2
Fore
SplineSet
200 755 m 0
 307 755 363 707 363 642 c 0
 363 599 336 560 266 543 c 1
 332 539 379 508 379 441 c 0
 379 370 318 306 192 306 c 0
 111 306 57 336 21 378 c 1
 98 452 l 1
 124 424 148 413 181 413 c 0
 208 413 231 423 231 451 c 0
 231 480 214 494 173 494 c 2
 133 494 l 1
 149 588 l 1
 177 588 l 2
 212 588 225 600 225 620 c 0
 225 642 207 652 180 652 c 0
 150 652 121 639 98 618 c 1
 28 690 l 1
 72 732 130 755 200 755 c 0
EndSplineSet
EndChar

StartChar: uni00B4
Encoding: 180 180 115
Width: 364
Flags: W
LayerCount: 2
Fore
SplineSet
260 856 m 1
 334 712 l 1
 83 613 l 1
 30 712 l 1
 260 856 l 1
EndSplineSet
EndChar

StartChar: uni00B5
Encoding: 181 181 116
Width: 579
Flags: W
LayerCount: 2
Fore
SplineSet
552 0 m 1
 371 -20 l 1
 359 4 355 23 349 57 c 1
 321 13 292 -6 258 -6 c 0
 228 -6 200 1 174 32 c 1
 204 -13 227 -49 227 -123 c 2
 227 -207 l 1
 42 -225 l 1
 42 534 l 1
 240 534 l 1
 240 173 l 2
 240 139 255 130 273 130 c 0
 291 130 313 143 331 174 c 1
 331 534 l 1
 529 534 l 1
 529 184 l 2
 529 102 540 41 552 0 c 1
EndSplineSet
EndChar

StartChar: uni00B6
Encoding: 182 182 117
Width: 820
Flags: W
LayerCount: 2
Fore
SplineSet
323 696 m 2
 720 696 l 1
 720 -206 l 1
 548 -227 l 1
 548 563 l 1
 470 563 l 1
 470 -206 l 1
 298 -227 l 1
 298 252 l 1
 136 254 50 344 50 473 c 0
 50 610 148 696 323 696 c 2
EndSplineSet
EndChar

StartChar: uni00B7
Encoding: 183 183 118
Width: 240
Flags: W
LayerCount: 2
Fore
SplineSet
120 409 m 0
 177 409 223 362 223 306 c 0
 223 250 177 203 120 203 c 0
 63 203 17 250 17 306 c 0
 17 362 63 409 120 409 c 0
EndSplineSet
EndChar

StartChar: uni00B8
Encoding: 184 184 119
Width: 349
Flags: W
LayerCount: 2
Fore
SplineSet
209 16 m 1
 209 -43 l 1
 282 -52 319 -89 319 -151 c 0
 319 -220 260 -275 155 -275 c 0
 103 -275 58 -259 30 -241 c 1
 73 -155 l 1
 93 -166 113 -173 137 -173 c 0
 165 -173 182 -167 182 -149 c 0
 182 -127 153 -120 88 -120 c 1
 105 16 l 1
 209 16 l 1
EndSplineSet
EndChar

StartChar: uni00B9
Encoding: 185 185 120
Width: 400
Flags: W
LayerCount: 2
Fore
SplineSet
315 744 m 1
 315 320 l 1
 175 320 l 1
 175 614 l 1
 87 558 l 1
 24 651 l 1
 186 744 l 1
 315 744 l 1
EndSplineSet
EndChar

StartChar: uni00BA
Encoding: 186 186 121
Width: 500
Flags: W
LayerCount: 2
Fore
SplineSet
250 696 m 0
 387 696 476 621 476 477 c 0
 476 344 390 260 251 260 c 0
 114 260 25 335 25 479 c 0
 25 612 112 696 250 696 c 0
250 574 m 0
 216 574 202 546 202 479 c 0
 202 407 216 382 251 382 c 0
 285 382 299 410 299 477 c 0
 299 549 285 574 250 574 c 0
25 0 m 1
 25 150 l 1
 475 150 l 1
 475 0 l 1
 25 0 l 1
EndSplineSet
EndChar

StartChar: uni00BB
Encoding: 187 187 122
Width: 661
Flags: W
LayerCount: 2
Fore
SplineSet
148 569 m 1
 346 344 l 1
 346 222 l 1
 148 -3 l 1
 25 78 l 1
 150 283 l 1
 25 488 l 1
 148 569 l 1
438 569 m 1
 636 344 l 1
 636 222 l 1
 438 -3 l 1
 315 78 l 1
 440 283 l 1
 315 488 l 1
 438 569 l 1
EndSplineSet
EndChar

StartChar: uni00BC
Encoding: 188 188 123
Width: 991
Flags: W
LayerCount: 2
Fore
SplineSet
647 764 m 1
 758 709 l 1
 344 -90 l 1
 233 -35 l 1
 647 764 l 1
315 272 m 1
 175 272 l 1
 175 566 l 1
 87 510 l 1
 24 603 l 1
 186 696 l 1
 315 696 l 1
 315 272 l 1
976 179 m 1
 976 77 l 1
 933 77 l 1
 933 0 l 1
 800 0 l 1
 800 77 l 1
 605 77 l 1
 605 170 l 1
 722 435 l 1
 841 392 l 1
 750 179 l 1
 801 179 l 1
 831 267 l 1
 933 267 l 1
 933 179 l 1
 976 179 l 1
EndSplineSet
EndChar

StartChar: uni00BD
Encoding: 189 189 124
Width: 991
Flags: W
LayerCount: 2
Fore
SplineSet
647 764 m 1
 758 709 l 1
 344 -90 l 1
 233 -35 l 1
 647 764 l 1
315 696 m 1
 315 272 l 1
 175 272 l 1
 175 566 l 1
 87 510 l 1
 24 603 l 1
 186 696 l 1
 315 696 l 1
785 435 m 0
 901 435 956 371 956 306 c 0
 956 250 933 208 795 106 c 1
 965 106 l 1
 951 0 l 1
 636 0 l 1
 636 97 l 1
 778 220 809 256 809 293 c 0
 809 317 794 331 768 331 c 0
 740 331 718 318 695 290 c 1
 616 352 l 1
 651 399 709 435 785 435 c 0
EndSplineSet
EndChar

StartChar: uni00BE
Encoding: 190 190 125
Width: 991
Flags: W
LayerCount: 2
Fore
SplineSet
647 764 m 1
 758 709 l 1
 344 -90 l 1
 233 -35 l 1
 647 764 l 1
379 393 m 0
 379 322 318 258 192 258 c 0
 111 258 57 288 21 330 c 1
 98 404 l 1
 124 376 148 365 181 365 c 0
 208 365 231 375 231 403 c 0
 231 432 214 446 173 446 c 2
 133 446 l 1
 149 540 l 1
 177 540 l 2
 212 540 225 552 225 572 c 0
 225 594 207 604 180 604 c 0
 150 604 121 591 98 570 c 1
 28 642 l 1
 72 684 130 707 200 707 c 0
 307 707 363 659 363 594 c 0
 363 551 336 512 266 495 c 1
 332 491 379 460 379 393 c 0
976 179 m 1
 976 77 l 1
 933 77 l 1
 933 0 l 1
 800 0 l 1
 800 77 l 1
 605 77 l 1
 605 170 l 1
 722 435 l 1
 841 392 l 1
 750 179 l 1
 801 179 l 1
 831 267 l 1
 933 267 l 1
 933 179 l 1
 976 179 l 1
EndSplineSet
EndChar

StartChar: uni00BF
Encoding: 191 191 126
Width: 495
Flags: W
LayerCount: 2
Fore
SplineSet
271 312 m 0
 214 312 168 359 168 415 c 0
 168 471 214 518 271 518 c 0
 328 518 374 471 374 415 c 0
 374 359 328 312 271 312 c 0
241 -227 m 0
 83 -227 5 -147 5 -53 c 0
 5 111 184 105 184 206 c 2
 184 229 l 1
 360 229 l 1
 360 200 l 2
 360 24 212 32 212 -34 c 0
 212 -59 230 -73 263 -73 c 0
 298 -73 334 -54 367 -19 c 1
 490 -115 l 1
 434 -181 356 -227 241 -227 c 0
EndSplineSet
EndChar

StartChar: uni00C0
Encoding: 192 192 127
Width: 601
Flags: W
LayerCount: 2
Fore
SplineSet
220 984 m 1
 453 848 l 1
 403 749 l 1
 149 840 l 1
 220 984 l 1
408 0 m 1
 381 135 l 1
 216 135 l 1
 190 0 l 1
 -25 0 l 1
 178 696 l 1
 424 696 l 1
 626 0 l 1
 408 0 l 1
245 279 m 1
 352 279 l 1
 298 552 l 1
 245 279 l 1
EndSplineSet
EndChar

StartChar: uni00C1
Encoding: 193 193 128
Width: 601
Flags: W
LayerCount: 2
Fore
SplineSet
453 840 m 1
 199 749 l 1
 149 848 l 1
 383 984 l 1
 453 840 l 1
408 0 m 1
 381 135 l 1
 216 135 l 1
 190 0 l 1
 -25 0 l 1
 178 696 l 1
 424 696 l 1
 626 0 l 1
 408 0 l 1
245 279 m 1
 352 279 l 1
 298 552 l 1
 245 279 l 1
EndSplineSet
EndChar

StartChar: uni00C2
Encoding: 194 194 129
Width: 601
Flags: W
LayerCount: 2
Fore
SplineSet
164 752 m 1
 97 829 l 1
 242 970 l 1
 360 970 l 1
 505 829 l 1
 438 752 l 1
 301 838 l 1
 164 752 l 1
408 0 m 1
 381 135 l 1
 216 135 l 1
 190 0 l 1
 -25 0 l 1
 178 696 l 1
 424 696 l 1
 626 0 l 1
 408 0 l 1
245 279 m 1
 352 279 l 1
 298 552 l 1
 245 279 l 1
EndSplineSet
EndChar

StartChar: uni00C3
Encoding: 195 195 130
Width: 601
Flags: W
LayerCount: 2
Fore
SplineSet
359 748 m 0
 331 748 314 754 293 769 c 0
 273 783 263 791 246 791 c 0
 221 791 209 776 193 748 c 1
 100 793 l 1
 126 866 175 929 241 929 c 0
 273 929 290 921 311 907 c 0
 331 893 342 886 357 886 c 0
 381 886 393 901 409 929 c 1
 502 884 l 1
 476 811 427 748 359 748 c 0
408 0 m 1
 381 135 l 1
 216 135 l 1
 190 0 l 1
 -25 0 l 1
 178 696 l 1
 424 696 l 1
 626 0 l 1
 408 0 l 1
245 279 m 1
 352 279 l 1
 298 552 l 1
 245 279 l 1
EndSplineSet
EndChar

StartChar: uni00C4
Encoding: 196 196 131
Width: 601
Flags: W
LayerCount: 2
Fore
SplineSet
176 944 m 0
 230 944 271 903 271 852 c 0
 271 800 230 759 176 759 c 0
 124 759 81 800 81 852 c 0
 81 903 124 944 176 944 c 0
421 944 m 0
 475 944 516 903 516 852 c 0
 516 800 475 759 421 759 c 0
 369 759 326 800 326 852 c 0
 326 903 369 944 421 944 c 0
408 0 m 1
 381 135 l 1
 216 135 l 1
 190 0 l 1
 -25 0 l 1
 178 696 l 1
 424 696 l 1
 626 0 l 1
 408 0 l 1
245 279 m 1
 352 279 l 1
 298 552 l 1
 245 279 l 1
EndSplineSet
EndChar

StartChar: uni00C5
Encoding: 197 197 132
Width: 601
Flags: W
LayerCount: 2
Fore
SplineSet
301 1012 m 0
 398 1012 455 944 455 866 c 0
 455 788 398 719 301 719 c 0
 204 719 147 788 147 866 c 0
 147 944 204 1012 301 1012 c 0
301 912 m 0
 278 912 261 898 261 866 c 0
 261 834 278 820 301 820 c 0
 324 820 341 834 341 866 c 0
 341 898 324 912 301 912 c 0
408 0 m 1
 381 135 l 1
 216 135 l 1
 190 0 l 1
 -25 0 l 1
 178 696 l 1
 424 696 l 1
 626 0 l 1
 408 0 l 1
245 279 m 1
 352 279 l 1
 298 552 l 1
 245 279 l 1
EndSplineSet
EndChar

StartChar: uni00C6
Encoding: 198 198 133
Width: 863
Flags: W
LayerCount: 2
Fore
SplineSet
610 144 m 1
 843 144 l 1
 843 0 l 1
 436 0 l 1
 418 135 l 1
 235 135 l 1
 194 0 l 1
 -30 0 l 1
 241 696 l 1
 808 696 l 1
 787 553 l 1
 540 553 l 1
 563 421 l 1
 799 421 l 1
 799 282 l 1
 586 282 l 1
 610 144 l 1
279 279 m 1
 398 279 l 1
 362 549 l 1
 279 279 l 1
EndSplineSet
EndChar

StartChar: uni00C7
Encoding: 199 199 134
Width: 584
Flags: W
LayerCount: 2
Fore
SplineSet
388 -43 m 1
 461 -52 498 -89 498 -151 c 0
 498 -220 439 -275 334 -275 c 0
 282 -275 237 -259 209 -241 c 1
 252 -155 l 1
 272 -166 292 -173 316 -173 c 0
 344 -173 361 -167 361 -149 c 0
 361 -127 332 -120 267 -120 c 1
 280 -14 l 1
 120 15 20 140 20 350 c 0
 20 582 157 716 352 716 c 0
 444 716 516 686 576 634 c 1
 481 522 l 1
 445 549 408 568 362 568 c 0
 282 568 234 497 234 350 c 0
 234 203 282 135 365 135 c 0
 414 135 452 158 494 191 c 1
 584 77 l 1
 539 32 470 -9 388 -18 c 1
 388 -43 l 1
EndSplineSet
EndChar

StartChar: uni00C8
Encoding: 200 200 135
Width: 520
Flags: W
LayerCount: 2
Fore
SplineSet
191 984 m 1
 424 848 l 1
 374 749 l 1
 120 840 l 1
 191 984 l 1
500 696 m 1
 479 553 l 1
 249 553 l 1
 249 423 l 1
 451 423 l 1
 451 284 l 1
 249 284 l 1
 249 144 l 1
 495 144 l 1
 495 0 l 1
 43 0 l 1
 43 696 l 1
 500 696 l 1
EndSplineSet
EndChar

StartChar: uni00C9
Encoding: 201 201 136
Width: 520
Flags: W
LayerCount: 2
Fore
SplineSet
354 984 m 1
 424 840 l 1
 170 749 l 1
 120 848 l 1
 354 984 l 1
500 696 m 1
 479 553 l 1
 249 553 l 1
 249 423 l 1
 451 423 l 1
 451 284 l 1
 249 284 l 1
 249 144 l 1
 495 144 l 1
 495 0 l 1
 43 0 l 1
 43 696 l 1
 500 696 l 1
EndSplineSet
EndChar

StartChar: uni00CA
Encoding: 202 202 137
Width: 520
Flags: W
LayerCount: 2
Fore
SplineSet
135 752 m 1
 68 829 l 1
 213 970 l 1
 331 970 l 1
 476 829 l 1
 409 752 l 1
 272 838 l 1
 135 752 l 1
500 696 m 1
 479 553 l 1
 249 553 l 1
 249 423 l 1
 451 423 l 1
 451 284 l 1
 249 284 l 1
 249 144 l 1
 495 144 l 1
 495 0 l 1
 43 0 l 1
 43 696 l 1
 500 696 l 1
EndSplineSet
EndChar

StartChar: uni00CB
Encoding: 203 203 138
Width: 520
Flags: W
LayerCount: 2
Fore
SplineSet
147 944 m 0
 201 944 242 903 242 852 c 0
 242 800 201 759 147 759 c 0
 95 759 52 800 52 852 c 0
 52 903 95 944 147 944 c 0
392 944 m 0
 446 944 487 903 487 852 c 0
 487 800 446 759 392 759 c 0
 340 759 297 800 297 852 c 0
 297 903 340 944 392 944 c 0
500 696 m 1
 479 553 l 1
 249 553 l 1
 249 423 l 1
 451 423 l 1
 451 284 l 1
 249 284 l 1
 249 144 l 1
 495 144 l 1
 495 0 l 1
 43 0 l 1
 43 696 l 1
 500 696 l 1
EndSplineSet
EndChar

StartChar: uni00CC
Encoding: 204 204 139
Width: 292
Flags: W
LayerCount: 2
Fore
SplineSet
65 984 m 1
 298 848 l 1
 248 749 l 1
 -6 840 l 1
 65 984 l 1
249 696 m 1
 249 0 l 1
 43 0 l 1
 43 696 l 1
 249 696 l 1
EndSplineSet
EndChar

StartChar: uni00CD
Encoding: 205 205 140
Width: 292
Flags: W
LayerCount: 2
Fore
SplineSet
228 984 m 1
 298 840 l 1
 44 749 l 1
 -6 848 l 1
 228 984 l 1
249 696 m 1
 249 0 l 1
 43 0 l 1
 43 696 l 1
 249 696 l 1
EndSplineSet
EndChar

StartChar: uni00CE
Encoding: 206 206 141
Width: 292
Flags: W
LayerCount: 2
Fore
SplineSet
9 752 m 1
 -58 829 l 1
 87 970 l 1
 205 970 l 1
 350 829 l 1
 283 752 l 1
 146 838 l 1
 9 752 l 1
249 696 m 1
 249 0 l 1
 43 0 l 1
 43 696 l 1
 249 696 l 1
EndSplineSet
EndChar

StartChar: uni00CF
Encoding: 207 207 142
Width: 292
Flags: W
LayerCount: 2
Fore
SplineSet
21 944 m 0
 75 944 116 903 116 852 c 0
 116 800 75 759 21 759 c 0
 -31 759 -74 800 -74 852 c 0
 -74 903 -31 944 21 944 c 0
266 944 m 0
 320 944 361 903 361 852 c 0
 361 800 320 759 266 759 c 0
 214 759 171 800 171 852 c 0
 171 903 214 944 266 944 c 0
249 696 m 1
 249 0 l 1
 43 0 l 1
 43 696 l 1
 249 696 l 1
EndSplineSet
EndChar

StartChar: uni00D0
Encoding: 208 208 143
Width: 671
Flags: W
LayerCount: 2
Fore
SplineSet
281 696 m 2
 472 696 651 637 651 351 c 0
 651 73 487 0 293 0 c 2
 58 0 l 1
 58 295 l 1
 10 295 l 1
 10 411 l 1
 58 411 l 1
 58 696 l 1
 281 696 l 2
305 145 m 2
 398 145 439 193 439 351 c 0
 439 509 394 551 306 551 c 2
 264 551 l 1
 264 411 l 1
 385 411 l 1
 385 295 l 1
 264 295 l 1
 264 145 l 1
 305 145 l 2
EndSplineSet
EndChar

StartChar: uni00D1
Encoding: 209 209 144
Width: 651
Flags: W
LayerCount: 2
Fore
SplineSet
384 748 m 0
 356 748 339 754 318 769 c 0
 298 783 288 791 271 791 c 0
 246 791 234 776 218 748 c 1
 125 793 l 1
 151 866 200 929 266 929 c 0
 298 929 315 921 336 907 c 0
 356 893 367 886 382 886 c 0
 406 886 418 901 434 929 c 1
 527 884 l 1
 501 811 452 748 384 748 c 0
608 696 m 1
 608 0 l 1
 350 0 l 1
 198 508 l 1
 208 441 225 345 225 216 c 2
 225 0 l 1
 43 0 l 1
 43 696 l 1
 296 696 l 1
 454 186 l 1
 441 267 426 347 426 473 c 2
 426 696 l 1
 608 696 l 1
EndSplineSet
EndChar

StartChar: uni00D2
Encoding: 210 210 145
Width: 690
Flags: W
LayerCount: 2
Fore
SplineSet
264 984 m 1
 497 848 l 1
 447 749 l 1
 193 840 l 1
 264 984 l 1
345 716 m 0
 554 716 670 580 670 349 c 0
 670 123 554 -20 345 -20 c 0
 136 -20 20 118 20 349 c 0
 20 575 136 716 345 716 c 0
345 570 m 0
 267 570 234 510 234 349 c 0
 234 188 267 126 345 126 c 0
 425 126 456 188 456 349 c 0
 456 510 423 570 345 570 c 0
EndSplineSet
EndChar

StartChar: uni00D3
Encoding: 211 211 146
Width: 690
Flags: W
LayerCount: 2
Fore
SplineSet
427 984 m 1
 497 840 l 1
 243 749 l 1
 193 848 l 1
 427 984 l 1
345 716 m 0
 554 716 670 580 670 349 c 0
 670 123 554 -20 345 -20 c 0
 136 -20 20 118 20 349 c 0
 20 575 136 716 345 716 c 0
345 570 m 0
 267 570 234 510 234 349 c 0
 234 188 267 126 345 126 c 0
 425 126 456 188 456 349 c 0
 456 510 423 570 345 570 c 0
EndSplineSet
EndChar

StartChar: uni00D4
Encoding: 212 212 147
Width: 690
Flags: W
LayerCount: 2
Fore
SplineSet
208 752 m 1
 141 829 l 1
 286 970 l 1
 404 970 l 1
 549 829 l 1
 482 752 l 1
 345 838 l 1
 208 752 l 1
345 716 m 0
 554 716 670 580 670 349 c 0
 670 123 554 -20 345 -20 c 0
 136 -20 20 118 20 349 c 0
 20 575 136 716 345 716 c 0
345 570 m 0
 267 570 234 510 234 349 c 0
 234 188 267 126 345 126 c 0
 425 126 456 188 456 349 c 0
 456 510 423 570 345 570 c 0
EndSplineSet
EndChar

StartChar: uni00D5
Encoding: 213 213 148
Width: 690
Flags: W
LayerCount: 2
Fore
SplineSet
403 748 m 0
 375 748 358 754 337 769 c 0
 317 783 307 791 290 791 c 0
 265 791 253 776 237 748 c 1
 144 793 l 1
 170 866 219 929 285 929 c 0
 317 929 334 921 355 907 c 0
 375 893 386 886 401 886 c 0
 425 886 437 901 453 929 c 1
 546 884 l 1
 520 811 471 748 403 748 c 0
345 716 m 0
 554 716 670 580 670 349 c 0
 670 123 554 -20 345 -20 c 0
 136 -20 20 118 20 349 c 0
 20 575 136 716 345 716 c 0
345 570 m 0
 267 570 234 510 234 349 c 0
 234 188 267 126 345 126 c 0
 425 126 456 188 456 349 c 0
 456 510 423 570 345 570 c 0
EndSplineSet
EndChar

StartChar: uni00D6
Encoding: 214 214 149
Width: 690
Flags: W
LayerCount: 2
Fore
SplineSet
220 944 m 0
 274 944 315 903 315 852 c 0
 315 800 274 759 220 759 c 0
 168 759 125 800 125 852 c 0
 125 903 168 944 220 944 c 0
465 944 m 0
 519 944 560 903 560 852 c 0
 560 800 519 759 465 759 c 0
 413 759 370 800 370 852 c 0
 370 903 413 944 465 944 c 0
345 716 m 0
 554 716 670 580 670 349 c 0
 670 123 554 -20 345 -20 c 0
 136 -20 20 118 20 349 c 0
 20 575 136 716 345 716 c 0
345 570 m 0
 267 570 234 510 234 349 c 0
 234 188 267 126 345 126 c 0
 425 126 456 188 456 349 c 0
 456 510 423 570 345 570 c 0
EndSplineSet
EndChar

StartChar: uni00D7
Encoding: 215 215 150
Width: 530
Flags: W
LayerCount: 2
Fore
SplineSet
378 525 m 1
 484 419 l 1
 370 309 l 1
 484 193 l 1
 378 87 l 1
 267 206 l 1
 152 87 l 1
 46 193 l 1
 159 303 l 1
 46 419 l 1
 152 525 l 1
 262 406 l 1
 378 525 l 1
EndSplineSet
EndChar

StartChar: uni00D8
Encoding: 216 216 151
Width: 690
Flags: W
LayerCount: 2
Fore
SplineSet
531 667 m 1
 622 608 670 498 670 349 c 0
 670 123 554 -20 345 -20 c 0
 332 -20 319 -19 306 -18 c 1
 269 -139 l 1
 119 -99 l 1
 159 30 l 1
 68 89 20 200 20 349 c 0
 20 575 136 716 345 716 c 0
 358 716 371 715 384 714 c 1
 421 833 l 1
 571 793 l 1
 531 667 l 1
345 570 m 0
 267 570 234 510 234 349 c 0
 234 275 239 225 249 192 c 1
 363 569 l 1
 357 570 351 570 345 570 c 0
345 126 m 0
 425 126 456 188 456 349 c 0
 456 422 451 471 441 504 c 1
 328 127 l 1
 333 126 339 126 345 126 c 0
EndSplineSet
EndChar

StartChar: uni00D9
Encoding: 217 217 152
Width: 644
Flags: W
LayerCount: 2
Fore
SplineSet
241 984 m 1
 474 848 l 1
 424 749 l 1
 170 840 l 1
 241 984 l 1
611 696 m 1
 611 236 l 2
 611 94 518 -20 322 -20 c 0
 126 -20 33 84 33 236 c 2
 33 696 l 1
 239 696 l 1
 239 242 l 2
 239 165 262 128 322 128 c 0
 382 128 405 165 405 242 c 2
 405 696 l 1
 611 696 l 1
EndSplineSet
EndChar

StartChar: uni00DA
Encoding: 218 218 153
Width: 644
Flags: W
LayerCount: 2
Fore
SplineSet
404 984 m 1
 474 840 l 1
 220 749 l 1
 170 848 l 1
 404 984 l 1
611 696 m 1
 611 236 l 2
 611 94 518 -20 322 -20 c 0
 126 -20 33 84 33 236 c 2
 33 696 l 1
 239 696 l 1
 239 242 l 2
 239 165 262 128 322 128 c 0
 382 128 405 165 405 242 c 2
 405 696 l 1
 611 696 l 1
EndSplineSet
EndChar

StartChar: uni00DB
Encoding: 219 219 154
Width: 644
Flags: W
LayerCount: 2
Fore
SplineSet
185 752 m 1
 118 829 l 1
 263 970 l 1
 381 970 l 1
 526 829 l 1
 459 752 l 1
 322 838 l 1
 185 752 l 1
611 696 m 1
 611 236 l 2
 611 94 518 -20 322 -20 c 0
 126 -20 33 84 33 236 c 2
 33 696 l 1
 239 696 l 1
 239 242 l 2
 239 165 262 128 322 128 c 0
 382 128 405 165 405 242 c 2
 405 696 l 1
 611 696 l 1
EndSplineSet
EndChar

StartChar: uni00DC
Encoding: 220 220 155
Width: 644
Flags: W
LayerCount: 2
Fore
SplineSet
197 944 m 0
 251 944 292 903 292 852 c 0
 292 800 251 759 197 759 c 0
 145 759 102 800 102 852 c 0
 102 903 145 944 197 944 c 0
442 944 m 0
 496 944 537 903 537 852 c 0
 537 800 496 759 442 759 c 0
 390 759 347 800 347 852 c 0
 347 903 390 944 442 944 c 0
611 696 m 1
 611 236 l 2
 611 94 518 -20 322 -20 c 0
 126 -20 33 84 33 236 c 2
 33 696 l 1
 239 696 l 1
 239 242 l 2
 239 165 262 128 322 128 c 0
 382 128 405 165 405 242 c 2
 405 696 l 1
 611 696 l 1
EndSplineSet
EndChar

StartChar: uni00DD
Encoding: 221 221 156
Width: 620
Flags: W
LayerCount: 2
Fore
SplineSet
392 984 m 1
 462 840 l 1
 208 749 l 1
 158 848 l 1
 392 984 l 1
635 696 m 1
 413 257 l 1
 413 0 l 1
 207 0 l 1
 207 256 l 1
 -15 696 l 1
 210 696 l 1
 313 412 l 1
 417 696 l 1
 635 696 l 1
EndSplineSet
EndChar

StartChar: uni00DE
Encoding: 222 222 157
Width: 611
Flags: W
LayerCount: 2
Fore
SplineSet
294 593 m 2
 481 593 596 515 596 358 c 0
 596 188 482 106 317 106 c 2
 249 106 l 1
 249 0 l 1
 43 0 l 1
 43 696 l 1
 249 696 l 1
 249 593 l 1
 294 593 l 2
297 251 m 2
 355 251 386 283 386 358 c 0
 386 416 359 450 291 450 c 2
 249 450 l 1
 249 251 l 1
 297 251 l 2
EndSplineSet
EndChar

StartChar: uni00DF
Encoding: 223 223 158
Width: 614
Flags: W
LayerCount: 2
Fore
SplineSet
299 764 m 0
 447 764 522 690 522 611 c 0
 522 515 428 490 428 434 c 0
 428 364 609 345 609 168 c 0
 609 49 518 -20 393 -20 c 0
 346 -20 298 -8 264 9 c 1
 323 142 l 1
 338 134 351 131 366 131 c 0
 391 131 404 145 404 172 c 0
 404 267 261 262 261 396 c 0
 261 507 336 502 336 582 c 0
 336 609 322 629 294 629 c 0
 255 629 240 596 240 537 c 2
 240 0 l 1
 42 0 l 1
 42 530 l 2
 42 674 131 764 299 764 c 0
EndSplineSet
EndChar

StartChar: uni00E0
Encoding: 224 224 159
Width: 551
Flags: W
LayerCount: 2
Fore
SplineSet
209 856 m 1
 439 712 l 1
 386 613 l 1
 135 712 l 1
 209 856 l 1
504 173 m 2
 504 135 512 120 536 111 c 1
 496 -16 l 1
 427 -11 382 7 352 58 c 1
 313 -1 252 -20 191 -20 c 0
 84 -20 15 51 15 150 c 0
 15 268 105 333 273 333 c 2
 311 333 l 1
 311 346 l 2
 311 400 293 414 234 414 c 0
 203 414 149 404 96 386 c 1
 53 512 l 1
 120 539 203 554 264 554 c 0
 434 554 504 489 504 357 c 2
 504 173 l 2
252 119 m 0
 277 119 298 133 311 151 c 1
 311 230 l 1
 290 230 l 2
 234 230 208 211 208 169 c 0
 208 139 225 119 252 119 c 0
EndSplineSet
EndChar

StartChar: uni00E1
Encoding: 225 225 160
Width: 551
Flags: W
LayerCount: 2
Fore
SplineSet
419 712 m 1
 168 613 l 1
 115 712 l 1
 345 856 l 1
 419 712 l 1
504 173 m 2
 504 135 512 120 536 111 c 1
 496 -16 l 1
 427 -11 382 7 352 58 c 1
 313 -1 252 -20 191 -20 c 0
 84 -20 15 51 15 150 c 0
 15 268 105 333 273 333 c 2
 311 333 l 1
 311 346 l 2
 311 400 293 414 234 414 c 0
 203 414 149 404 96 386 c 1
 53 512 l 1
 120 539 203 554 264 554 c 0
 434 554 504 489 504 357 c 2
 504 173 l 2
252 119 m 0
 277 119 298 133 311 151 c 1
 311 230 l 1
 290 230 l 2
 234 230 208 211 208 169 c 0
 208 139 225 119 252 119 c 0
EndSplineSet
EndChar

StartChar: uni00E2
Encoding: 226 226 161
Width: 551
Flags: W
LayerCount: 2
Fore
SplineSet
140 612 m 1
 73 689 l 1
 218 840 l 1
 336 840 l 1
 481 689 l 1
 414 612 l 1
 277 708 l 1
 140 612 l 1
504 173 m 2
 504 135 512 120 536 111 c 1
 496 -16 l 1
 427 -11 382 7 352 58 c 1
 313 -1 252 -20 191 -20 c 0
 84 -20 15 51 15 150 c 0
 15 268 105 333 273 333 c 2
 311 333 l 1
 311 346 l 2
 311 400 293 414 234 414 c 0
 203 414 149 404 96 386 c 1
 53 512 l 1
 120 539 203 554 264 554 c 0
 434 554 504 489 504 357 c 2
 504 173 l 2
252 119 m 0
 277 119 298 133 311 151 c 1
 311 230 l 1
 290 230 l 2
 234 230 208 211 208 169 c 0
 208 139 225 119 252 119 c 0
EndSplineSet
EndChar

StartChar: uni00E3
Encoding: 227 227 162
Width: 551
Flags: W
LayerCount: 2
Fore
SplineSet
335 622 m 0
 307 622 290 628 269 643 c 0
 249 657 239 665 222 665 c 0
 197 665 185 650 169 622 c 1
 76 667 l 1
 102 740 151 803 217 803 c 0
 249 803 266 795 287 781 c 0
 307 767 318 760 333 760 c 0
 357 760 369 775 385 803 c 1
 478 758 l 1
 452 685 403 622 335 622 c 0
504 173 m 2
 504 135 512 120 536 111 c 1
 496 -16 l 1
 427 -11 382 7 352 58 c 1
 313 -1 252 -20 191 -20 c 0
 84 -20 15 51 15 150 c 0
 15 268 105 333 273 333 c 2
 311 333 l 1
 311 346 l 2
 311 400 293 414 234 414 c 0
 203 414 149 404 96 386 c 1
 53 512 l 1
 120 539 203 554 264 554 c 0
 434 554 504 489 504 357 c 2
 504 173 l 2
252 119 m 0
 277 119 298 133 311 151 c 1
 311 230 l 1
 290 230 l 2
 234 230 208 211 208 169 c 0
 208 139 225 119 252 119 c 0
EndSplineSet
EndChar

StartChar: uni00E4
Encoding: 228 228 163
Width: 551
Flags: W
LayerCount: 2
Fore
SplineSet
154 818 m 0
 208 818 249 777 249 726 c 0
 249 674 208 633 154 633 c 0
 102 633 59 674 59 726 c 0
 59 777 102 818 154 818 c 0
399 818 m 0
 453 818 494 777 494 726 c 0
 494 674 453 633 399 633 c 0
 347 633 304 674 304 726 c 0
 304 777 347 818 399 818 c 0
504 173 m 2
 504 135 512 120 536 111 c 1
 496 -16 l 1
 427 -11 382 7 352 58 c 1
 313 -1 252 -20 191 -20 c 0
 84 -20 15 51 15 150 c 0
 15 268 105 333 273 333 c 2
 311 333 l 1
 311 346 l 2
 311 400 293 414 234 414 c 0
 203 414 149 404 96 386 c 1
 53 512 l 1
 120 539 203 554 264 554 c 0
 434 554 504 489 504 357 c 2
 504 173 l 2
252 119 m 0
 277 119 298 133 311 151 c 1
 311 230 l 1
 290 230 l 2
 234 230 208 211 208 169 c 0
 208 139 225 119 252 119 c 0
EndSplineSet
EndChar

StartChar: uni00E5
Encoding: 229 229 164
Width: 551
Flags: W
LayerCount: 2
Fore
SplineSet
277 886 m 0
 374 886 431 818 431 740 c 0
 431 662 374 593 277 593 c 0
 180 593 123 662 123 740 c 0
 123 818 180 886 277 886 c 0
277 786 m 0
 254 786 237 772 237 740 c 0
 237 708 254 694 277 694 c 0
 300 694 317 708 317 740 c 0
 317 772 300 786 277 786 c 0
504 173 m 2
 504 135 512 120 536 111 c 1
 496 -16 l 1
 427 -11 382 7 352 58 c 1
 313 -1 252 -20 191 -20 c 0
 84 -20 15 51 15 150 c 0
 15 268 105 333 273 333 c 2
 311 333 l 1
 311 346 l 2
 311 400 293 414 234 414 c 0
 203 414 149 404 96 386 c 1
 53 512 l 1
 120 539 203 554 264 554 c 0
 434 554 504 489 504 357 c 2
 504 173 l 2
252 119 m 0
 277 119 298 133 311 151 c 1
 311 230 l 1
 290 230 l 2
 234 230 208 211 208 169 c 0
 208 139 225 119 252 119 c 0
EndSplineSet
EndChar

StartChar: uni00E6
Encoding: 230 230 165
Width: 862
Flags: W
LayerCount: 2
Fore
SplineSet
847 274 m 0
 847 257 845 230 843 211 c 1
 519 211 l 1
 530 134 568 120 626 120 c 0
 664 120 701 135 747 167 c 1
 827 59 l 1
 774 16 700 -20 607 -20 c 0
 505 -20 431 15 384 68 c 1
 337 1 266 -20 195 -20 c 0
 83 -20 15 51 15 150 c 0
 15 268 105 333 281 333 c 2
 319 333 l 1
 319 344 l 2
 319 398 301 412 242 412 c 0
 211 412 157 402 104 384 c 1
 61 512 l 1
 128 539 211 554 272 554 c 0
 352 554 403 531 437 493 c 1
 478 531 531 554 601 554 c 0
 742 554 847 453 847 274 c 0
652 323 m 1
 652 330 l 2
 651 384 640 429 589 429 c 0
 547 429 525 405 518 323 c 1
 652 323 l 1
263 119 m 0
 293 119 312 139 331 166 c 1
 327 184 324 202 323 220 c 2
 323 225 l 1
 300 225 l 2
 247 225 221 209 221 165 c 0
 221 138 236 119 263 119 c 0
EndSplineSet
EndChar

StartChar: uni00E7
Encoding: 231 231 166
Width: 479
Flags: W
LayerCount: 2
Fore
SplineSet
489 46 m 1
 447 12 397 -12 333 -18 c 1
 333 -43 l 1
 406 -52 443 -89 443 -151 c 0
 443 -220 384 -275 279 -275 c 0
 227 -275 182 -259 154 -241 c 1
 197 -155 l 1
 217 -166 237 -173 261 -173 c 0
 289 -173 306 -167 306 -149 c 0
 306 -127 277 -120 212 -120 c 1
 225 -12 l 1
 94 16 17 121 17 263 c 0
 17 432 126 554 295 554 c 0
 377 554 438 528 489 483 c 1
 407 368 l 1
 375 394 345 405 313 405 c 0
 255 405 223 371 223 263 c 0
 223 156 260 133 311 133 c 0
 344 133 367 144 404 167 c 1
 489 46 l 1
EndSplineSet
EndChar

StartChar: uni00E8
Encoding: 232 232 167
Width: 560
Flags: W
LayerCount: 2
Fore
SplineSet
217 856 m 1
 447 712 l 1
 394 613 l 1
 143 712 l 1
 217 856 l 1
545 274 m 0
 545 257 543 230 541 211 c 1
 217 211 l 1
 228 134 266 120 324 120 c 0
 362 120 399 135 445 167 c 1
 525 59 l 1
 472 16 398 -20 305 -20 c 0
 109 -20 17 101 17 266 c 0
 17 422 106 554 283 554 c 0
 441 554 545 453 545 274 c 0
350 323 m 1
 350 330 l 2
 349 384 338 429 287 429 c 0
 245 429 223 405 216 323 c 1
 350 323 l 1
EndSplineSet
EndChar

StartChar: uni00E9
Encoding: 233 233 168
Width: 560
Flags: W
LayerCount: 2
Fore
SplineSet
427 712 m 1
 176 613 l 1
 123 712 l 1
 353 856 l 1
 427 712 l 1
545 274 m 0
 545 257 543 230 541 211 c 1
 217 211 l 1
 228 134 266 120 324 120 c 0
 362 120 399 135 445 167 c 1
 525 59 l 1
 472 16 398 -20 305 -20 c 0
 109 -20 17 101 17 266 c 0
 17 422 106 554 283 554 c 0
 441 554 545 453 545 274 c 0
350 323 m 1
 350 330 l 2
 349 384 338 429 287 429 c 0
 245 429 223 405 216 323 c 1
 350 323 l 1
EndSplineSet
EndChar

StartChar: uni00EA
Encoding: 234 234 169
Width: 560
Flags: W
LayerCount: 2
Fore
SplineSet
285 708 m 1
 148 612 l 1
 81 689 l 1
 226 840 l 1
 344 840 l 1
 489 689 l 1
 422 612 l 1
 285 708 l 1
545 274 m 0
 545 257 543 230 541 211 c 1
 217 211 l 1
 228 134 266 120 324 120 c 0
 362 120 399 135 445 167 c 1
 525 59 l 1
 472 16 398 -20 305 -20 c 0
 109 -20 17 101 17 266 c 0
 17 422 106 554 283 554 c 0
 441 554 545 453 545 274 c 0
350 323 m 1
 350 330 l 2
 349 384 338 429 287 429 c 0
 245 429 223 405 216 323 c 1
 350 323 l 1
EndSplineSet
EndChar

StartChar: uni00EB
Encoding: 235 235 170
Width: 560
Flags: W
LayerCount: 2
Fore
SplineSet
162 818 m 0
 216 818 257 777 257 726 c 0
 257 674 216 633 162 633 c 0
 110 633 67 674 67 726 c 0
 67 777 110 818 162 818 c 0
407 818 m 0
 461 818 502 777 502 726 c 0
 502 674 461 633 407 633 c 0
 355 633 312 674 312 726 c 0
 312 777 355 818 407 818 c 0
545 274 m 0
 545 257 543 230 541 211 c 1
 217 211 l 1
 228 134 266 120 324 120 c 0
 362 120 399 135 445 167 c 1
 525 59 l 1
 472 16 398 -20 305 -20 c 0
 109 -20 17 101 17 266 c 0
 17 422 106 554 283 554 c 0
 441 554 545 453 545 274 c 0
350 323 m 1
 350 330 l 2
 349 384 338 429 287 429 c 0
 245 429 223 405 216 323 c 1
 350 323 l 1
EndSplineSet
EndChar

StartChar: uni00EC
Encoding: 236 236 171
Width: 282
Flags: W
LayerCount: 2
Fore
SplineSet
73 856 m 1
 303 712 l 1
 250 613 l 1
 -1 712 l 1
 73 856 l 1
240 534 m 1
 240 0 l 1
 42 0 l 1
 42 534 l 1
 240 534 l 1
EndSplineSet
EndChar

StartChar: uni00ED
Encoding: 237 237 172
Width: 282
Flags: W
LayerCount: 2
Fore
SplineSet
209 856 m 1
 283 712 l 1
 32 613 l 1
 -21 712 l 1
 209 856 l 1
240 534 m 1
 240 0 l 1
 42 0 l 1
 42 534 l 1
 240 534 l 1
EndSplineSet
EndChar

StartChar: uni00EE
Encoding: 238 238 173
Width: 282
Flags: W
LayerCount: 2
Fore
SplineSet
4 612 m 1
 -63 689 l 1
 82 840 l 1
 200 840 l 1
 345 689 l 1
 278 612 l 1
 141 708 l 1
 4 612 l 1
240 534 m 1
 240 0 l 1
 42 0 l 1
 42 534 l 1
 240 534 l 1
EndSplineSet
EndChar

StartChar: uni00EF
Encoding: 239 239 174
Width: 282
Flags: W
LayerCount: 2
Fore
SplineSet
18 818 m 0
 72 818 113 777 113 726 c 0
 113 674 72 633 18 633 c 0
 -34 633 -77 674 -77 726 c 0
 -77 777 -34 818 18 818 c 0
263 818 m 0
 317 818 358 777 358 726 c 0
 358 674 317 633 263 633 c 0
 211 633 168 674 168 726 c 0
 168 777 211 818 263 818 c 0
240 534 m 1
 240 0 l 1
 42 0 l 1
 42 534 l 1
 240 534 l 1
EndSplineSet
EndChar

StartChar: uni00F0
Encoding: 240 240 175
Width: 584
Flags: W
LayerCount: 2
Fore
SplineSet
366 674 m 1
 512 574 562 445 562 284 c 0
 562 122 469 -20 286 -20 c 0
 133 -20 17 74 17 233 c 0
 17 381 118 482 229 482 c 0
 280 482 317 469 352 447 c 1
 334 494 310 530 261 567 c 1
 216 521 l 1
 94 576 l 1
 139 624 l 1
 109 631 83 636 63 639 c 1
 101 763 l 1
 145 757 184 750 244 731 c 1
 320 811 l 1
 417 726 l 1
 366 674 l 1
290 121 m 0
 345 121 360 161 360 250 c 2
 360 326 l 1
 340 340 316 348 289 348 c 0
 241 348 218 310 218 235 c 0
 218 149 245 121 290 121 c 0
EndSplineSet
EndChar

StartChar: uni00F1
Encoding: 241 241 176
Width: 570
Flags: W
LayerCount: 2
Fore
SplineSet
236 665 m 0
 211 665 199 650 183 622 c 1
 90 667 l 1
 116 740 165 803 231 803 c 0
 263 803 280 795 301 781 c 0
 321 767 332 760 347 760 c 0
 371 760 383 775 399 803 c 1
 492 758 l 1
 466 685 417 622 349 622 c 0
 321 622 304 628 283 643 c 0
 263 657 253 665 236 665 c 0
391 554 m 0
 480 554 535 496 535 394 c 2
 535 0 l 1
 337 0 l 1
 337 358 l 2
 337 400 325 410 307 410 c 0
 286 410 263 393 240 357 c 1
 240 0 l 1
 42 0 l 1
 42 534 l 1
 215 534 l 1
 229 479 l 1
 278 531 327 554 391 554 c 0
EndSplineSet
EndChar

StartChar: uni00F2
Encoding: 242 242 177
Width: 584
Flags: W
LayerCount: 2
Fore
SplineSet
224 856 m 1
 454 712 l 1
 401 613 l 1
 150 712 l 1
 224 856 l 1
292 554 m 0
 460 554 567 452 567 266 c 0
 567 92 462 -20 292 -20 c 0
 124 -20 17 82 17 268 c 0
 17 442 122 554 292 554 c 0
292 412 m 0
 242 412 220 369 220 268 c 0
 220 162 242 122 292 122 c 0
 342 122 364 165 364 266 c 0
 364 372 342 412 292 412 c 0
EndSplineSet
EndChar

StartChar: uni00F3
Encoding: 243 243 178
Width: 584
Flags: W
LayerCount: 2
Fore
SplineSet
360 856 m 1
 434 712 l 1
 183 613 l 1
 130 712 l 1
 360 856 l 1
292 554 m 0
 460 554 567 452 567 266 c 0
 567 92 462 -20 292 -20 c 0
 124 -20 17 82 17 268 c 0
 17 442 122 554 292 554 c 0
292 412 m 0
 242 412 220 369 220 268 c 0
 220 162 242 122 292 122 c 0
 342 122 364 165 364 266 c 0
 364 372 342 412 292 412 c 0
EndSplineSet
EndChar

StartChar: uni00F4
Encoding: 244 244 179
Width: 584
Flags: W
LayerCount: 2
Fore
SplineSet
155 612 m 1
 88 689 l 1
 233 840 l 1
 351 840 l 1
 496 689 l 1
 429 612 l 1
 292 708 l 1
 155 612 l 1
292 554 m 0
 460 554 567 452 567 266 c 0
 567 92 462 -20 292 -20 c 0
 124 -20 17 82 17 268 c 0
 17 442 122 554 292 554 c 0
292 412 m 0
 242 412 220 369 220 268 c 0
 220 162 242 122 292 122 c 0
 342 122 364 165 364 266 c 0
 364 372 342 412 292 412 c 0
EndSplineSet
EndChar

StartChar: uni00F5
Encoding: 245 245 180
Width: 584
Flags: W
LayerCount: 2
Fore
SplineSet
350 622 m 0
 322 622 305 628 284 643 c 0
 264 657 254 665 237 665 c 0
 212 665 200 650 184 622 c 1
 91 667 l 1
 117 740 166 803 232 803 c 0
 264 803 281 795 302 781 c 0
 322 767 333 760 348 760 c 0
 372 760 384 775 400 803 c 1
 493 758 l 1
 467 685 418 622 350 622 c 0
292 554 m 0
 460 554 567 452 567 266 c 0
 567 92 462 -20 292 -20 c 0
 124 -20 17 82 17 268 c 0
 17 442 122 554 292 554 c 0
292 412 m 0
 242 412 220 369 220 268 c 0
 220 162 242 122 292 122 c 0
 342 122 364 165 364 266 c 0
 364 372 342 412 292 412 c 0
EndSplineSet
EndChar

StartChar: uni00F6
Encoding: 246 246 181
Width: 584
Flags: W
LayerCount: 2
Fore
SplineSet
169 818 m 0
 223 818 264 777 264 726 c 0
 264 674 223 633 169 633 c 0
 117 633 74 674 74 726 c 0
 74 777 117 818 169 818 c 0
414 818 m 0
 468 818 509 777 509 726 c 0
 509 674 468 633 414 633 c 0
 362 633 319 674 319 726 c 0
 319 777 362 818 414 818 c 0
292 554 m 0
 460 554 567 452 567 266 c 0
 567 92 462 -20 292 -20 c 0
 124 -20 17 82 17 268 c 0
 17 442 122 554 292 554 c 0
292 412 m 0
 242 412 220 369 220 268 c 0
 220 162 242 122 292 122 c 0
 342 122 364 165 364 266 c 0
 364 372 342 412 292 412 c 0
EndSplineSet
EndChar

StartChar: uni00F7
Encoding: 247 247 182
Width: 530
Flags: W
LayerCount: 2
Fore
SplineSet
265 684 m 0
 322 684 368 637 368 581 c 0
 368 525 322 478 265 478 c 0
 208 478 162 525 162 581 c 0
 162 637 208 684 265 684 c 0
40 257 m 1
 40 407 l 1
 490 407 l 1
 490 257 l 1
 40 257 l 1
265 186 m 0
 322 186 368 139 368 83 c 0
 368 27 322 -20 265 -20 c 0
 208 -20 162 27 162 83 c 0
 162 139 208 186 265 186 c 0
EndSplineSet
EndChar

StartChar: uni00F8
Encoding: 248 248 183
Width: 584
Flags: W
LayerCount: 2
Fore
SplineSet
453 512 m 1
 525 466 567 382 567 266 c 0
 567 92 462 -20 292 -20 c 0
 284 -20 277 -20 270 -19 c 1
 233 -138 l 1
 93 -97 l 1
 131 22 l 1
 59 69 17 152 17 268 c 0
 17 442 122 554 292 554 c 0
 299 554 307 554 314 553 c 1
 353 673 l 1
 493 632 l 1
 453 512 l 1
292 412 m 2
 232 412 200 369 200 268 c 0
 200 217 204 184 213 162 c 1
 296 412 l 1
 292 412 l 2
292 122 m 2
 352 122 384 165 384 266 c 0
 384 317 380 350 371 372 c 1
 288 122 l 1
 292 122 l 2
EndSplineSet
EndChar

StartChar: uni00F9
Encoding: 249 249 184
Width: 564
Flags: W
LayerCount: 2
Fore
SplineSet
211 856 m 1
 441 712 l 1
 388 613 l 1
 137 712 l 1
 211 856 l 1
522 534 m 1
 522 0 l 1
 349 0 l 1
 342 58 l 1
 305 6 251 -20 184 -20 c 0
 80 -20 35 48 35 150 c 2
 35 534 l 1
 233 534 l 1
 233 176 l 2
 233 134 247 124 266 124 c 0
 284 124 306 137 324 168 c 1
 324 534 l 1
 522 534 l 1
EndSplineSet
EndChar

StartChar: uni00FA
Encoding: 250 250 185
Width: 564
Flags: W
LayerCount: 2
Fore
SplineSet
347 856 m 1
 421 712 l 1
 170 613 l 1
 117 712 l 1
 347 856 l 1
522 534 m 1
 522 0 l 1
 349 0 l 1
 342 58 l 1
 305 6 251 -20 184 -20 c 0
 80 -20 35 48 35 150 c 2
 35 534 l 1
 233 534 l 1
 233 176 l 2
 233 134 247 124 266 124 c 0
 284 124 306 137 324 168 c 1
 324 534 l 1
 522 534 l 1
EndSplineSet
EndChar

StartChar: uni00FB
Encoding: 251 251 186
Width: 564
Flags: W
LayerCount: 2
Fore
SplineSet
142 612 m 1
 75 689 l 1
 220 840 l 1
 338 840 l 1
 483 689 l 1
 416 612 l 1
 279 708 l 1
 142 612 l 1
522 534 m 1
 522 0 l 1
 349 0 l 1
 342 58 l 1
 305 6 251 -20 184 -20 c 0
 80 -20 35 48 35 150 c 2
 35 534 l 1
 233 534 l 1
 233 176 l 2
 233 134 247 124 266 124 c 0
 284 124 306 137 324 168 c 1
 324 534 l 1
 522 534 l 1
EndSplineSet
EndChar

StartChar: uni00FC
Encoding: 252 252 187
Width: 564
Flags: W
LayerCount: 2
Fore
SplineSet
156 818 m 0
 210 818 251 777 251 726 c 0
 251 674 210 633 156 633 c 0
 104 633 61 674 61 726 c 0
 61 777 104 818 156 818 c 0
401 818 m 0
 455 818 496 777 496 726 c 0
 496 674 455 633 401 633 c 0
 349 633 306 674 306 726 c 0
 306 777 349 818 401 818 c 0
522 534 m 1
 522 0 l 1
 349 0 l 1
 342 58 l 1
 305 6 251 -20 184 -20 c 0
 80 -20 35 48 35 150 c 2
 35 534 l 1
 233 534 l 1
 233 176 l 2
 233 134 247 124 266 124 c 0
 284 124 306 137 324 168 c 1
 324 534 l 1
 522 534 l 1
EndSplineSet
EndChar

StartChar: uni00FD
Encoding: 253 253 188
Width: 534
Flags: W
LayerCount: 2
Fore
SplineSet
335 856 m 1
 409 712 l 1
 158 613 l 1
 105 712 l 1
 335 856 l 1
549 534 m 1
 385 1 l 2
 340 -147 232 -223 53 -228 c 1
 32 -93 l 1
 134 -83 177 -60 205 0 c 1
 137 0 l 1
 -15 534 l 1
 195 534 l 1
 262 121 l 1
 345 534 l 1
 549 534 l 1
EndSplineSet
EndChar

StartChar: uni00FE
Encoding: 254 254 189
Width: 594
Flags: W
LayerCount: 2
Fore
SplineSet
373 554 m 0
 513 554 577 445 577 269 c 0
 577 103 492 -20 364 -20 c 0
 314 -20 272 -2 240 33 c 1
 240 -207 l 1
 42 -227 l 1
 42 744 l 1
 240 764 l 1
 240 492 l 1
 284 540 334 554 373 554 c 0
299 121 m 0
 343 121 374 158 374 266 c 0
 374 395 346 412 306 412 c 0
 284 412 260 398 240 362 c 1
 240 158 l 1
 258 131 275 121 299 121 c 0
EndSplineSet
EndChar

StartChar: uni00FF
Encoding: 255 255 190
Width: 534
Flags: W
LayerCount: 2
Fore
SplineSet
144 818 m 0
 198 818 239 777 239 726 c 0
 239 674 198 633 144 633 c 0
 92 633 49 674 49 726 c 0
 49 777 92 818 144 818 c 0
389 818 m 0
 443 818 484 777 484 726 c 0
 484 674 443 633 389 633 c 0
 337 633 294 674 294 726 c 0
 294 777 337 818 389 818 c 0
549 534 m 1
 385 1 l 2
 340 -147 232 -223 53 -228 c 1
 32 -93 l 1
 134 -83 177 -60 205 0 c 1
 137 0 l 1
 -15 534 l 1
 195 534 l 1
 262 121 l 1
 345 534 l 1
 549 534 l 1
EndSplineSet
EndChar

StartChar: uni0100
Encoding: 256 256 191
Width: 601
Flags: W
LayerCount: 2
Fore
SplineSet
463 774 m 1
 138 774 l 1
 138 908 l 1
 463 908 l 1
 463 774 l 1
408 0 m 1
 381 135 l 1
 216 135 l 1
 190 0 l 1
 -25 0 l 1
 178 696 l 1
 424 696 l 1
 626 0 l 1
 408 0 l 1
245 279 m 1
 352 279 l 1
 298 552 l 1
 245 279 l 1
EndSplineSet
EndChar

StartChar: uni0101
Encoding: 257 257 192
Width: 551
Flags: W
LayerCount: 2
Fore
SplineSet
439 648 m 1
 114 648 l 1
 114 782 l 1
 439 782 l 1
 439 648 l 1
504 173 m 2
 504 135 512 120 536 111 c 1
 496 -16 l 1
 427 -11 382 7 352 58 c 1
 313 -1 252 -20 191 -20 c 0
 84 -20 15 51 15 150 c 0
 15 268 105 333 273 333 c 2
 311 333 l 1
 311 346 l 2
 311 400 293 414 234 414 c 0
 203 414 149 404 96 386 c 1
 53 512 l 1
 120 539 203 554 264 554 c 0
 434 554 504 489 504 357 c 2
 504 173 l 2
252 119 m 0
 277 119 298 133 311 151 c 1
 311 230 l 1
 290 230 l 2
 234 230 208 211 208 169 c 0
 208 139 225 119 252 119 c 0
EndSplineSet
EndChar

StartChar: uni0102
Encoding: 258 258 193
Width: 601
Flags: W
LayerCount: 2
Fore
SplineSet
301 746 m 0
 181 746 124 840 116 932 c 1
 219 949 l 1
 230 912 256 880 301 880 c 0
 346 880 372 912 383 949 c 1
 486 932 l 1
 478 840 421 746 301 746 c 0
408 0 m 1
 381 135 l 1
 216 135 l 1
 190 0 l 1
 -25 0 l 1
 178 696 l 1
 424 696 l 1
 626 0 l 1
 408 0 l 1
245 279 m 1
 352 279 l 1
 298 552 l 1
 245 279 l 1
EndSplineSet
EndChar

StartChar: uni0103
Encoding: 259 259 194
Width: 551
Flags: W
LayerCount: 2
Fore
SplineSet
277 626 m 0
 157 626 100 720 92 822 c 1
 195 839 l 1
 206 792 232 760 277 760 c 0
 322 760 348 792 359 839 c 1
 462 822 l 1
 454 720 397 626 277 626 c 0
504 173 m 2
 504 135 512 120 536 111 c 1
 496 -16 l 1
 427 -11 382 7 352 58 c 1
 313 -1 252 -20 191 -20 c 0
 84 -20 15 51 15 150 c 0
 15 268 105 333 273 333 c 2
 311 333 l 1
 311 346 l 2
 311 400 293 414 234 414 c 0
 203 414 149 404 96 386 c 1
 53 512 l 1
 120 539 203 554 264 554 c 0
 434 554 504 489 504 357 c 2
 504 173 l 2
252 119 m 0
 277 119 298 133 311 151 c 1
 311 230 l 1
 290 230 l 2
 234 230 208 211 208 169 c 0
 208 139 225 119 252 119 c 0
EndSplineSet
EndChar

StartChar: uni0104
Encoding: 260 260 195
Width: 601
Flags: W
LayerCount: 2
Fore
SplineSet
516 0 m 1
 420 -32 401 -71 401 -95 c 0
 401 -125 420 -139 452 -139 c 0
 471 -139 491 -136 513 -131 c 1
 501 -246 l 1
 479 -251 454 -254 427 -254 c 0
 337 -254 267 -208 267 -128 c 0
 267 -50 322 0 401 33 c 1
 381 135 l 1
 216 135 l 1
 190 0 l 1
 -25 0 l 1
 178 696 l 1
 424 696 l 1
 626 0 l 1
 516 0 l 1
245 279 m 1
 352 279 l 1
 298 552 l 1
 245 279 l 1
EndSplineSet
EndChar

StartChar: uni0105
Encoding: 261 261 196
Width: 551
Flags: W
LayerCount: 2
Fore
SplineSet
496 -16 m 1
 400 -48 381 -87 381 -111 c 0
 381 -141 400 -155 432 -155 c 0
 451 -155 471 -152 493 -147 c 1
 481 -262 l 1
 459 -267 434 -270 407 -270 c 0
 317 -270 247 -224 247 -144 c 0
 247 -64 304 -14 385 19 c 1
 373 29 361 42 352 58 c 1
 313 -1 252 -20 191 -20 c 0
 84 -20 15 51 15 150 c 0
 15 268 105 333 273 333 c 2
 311 333 l 1
 311 346 l 2
 311 400 293 414 234 414 c 0
 203 414 149 404 96 386 c 1
 53 512 l 1
 120 539 203 554 264 554 c 0
 434 554 504 489 504 357 c 2
 504 173 l 2
 504 135 512 120 536 111 c 1
 496 -16 l 1
311 151 m 1
 311 230 l 1
 290 230 l 2
 234 230 208 211 208 169 c 0
 208 139 225 119 252 119 c 0
 277 119 298 133 311 151 c 1
EndSplineSet
EndChar

StartChar: uni0106
Encoding: 262 262 197
Width: 584
Flags: W
LayerCount: 2
Fore
SplineSet
440 984 m 1
 510 840 l 1
 256 749 l 1
 206 848 l 1
 440 984 l 1
352 716 m 0
 444 716 516 686 576 634 c 1
 481 522 l 1
 445 549 408 568 362 568 c 0
 282 568 234 497 234 350 c 0
 234 203 282 135 365 135 c 0
 414 135 452 158 494 191 c 1
 584 77 l 1
 533 26 452 -20 355 -20 c 0
 151 -20 20 109 20 350 c 0
 20 582 157 716 352 716 c 0
EndSplineSet
EndChar

StartChar: uni0107
Encoding: 263 263 198
Width: 479
Flags: W
LayerCount: 2
Fore
SplineSet
360 856 m 1
 434 712 l 1
 183 613 l 1
 130 712 l 1
 360 856 l 1
295 554 m 0
 377 554 438 528 489 483 c 1
 407 368 l 1
 375 394 345 405 313 405 c 0
 255 405 223 371 223 263 c 0
 223 156 260 133 311 133 c 0
 344 133 367 144 404 167 c 1
 489 46 l 1
 440 6 380 -20 300 -20 c 0
 124 -20 17 96 17 263 c 0
 17 432 126 554 295 554 c 0
EndSplineSet
EndChar

StartChar: uni010C
Encoding: 268 268 199
Width: 584
Flags: W
LayerCount: 2
Fore
SplineSet
495 965 m 1
 562 888 l 1
 417 747 l 1
 299 747 l 1
 154 888 l 1
 221 965 l 1
 358 879 l 1
 495 965 l 1
352 716 m 0
 444 716 516 686 576 634 c 1
 481 522 l 1
 445 549 408 568 362 568 c 0
 282 568 234 497 234 350 c 0
 234 203 282 135 365 135 c 0
 414 135 452 158 494 191 c 1
 584 77 l 1
 533 26 452 -20 355 -20 c 0
 151 -20 20 109 20 350 c 0
 20 582 157 716 352 716 c 0
EndSplineSet
EndChar

StartChar: uni010D
Encoding: 269 269 200
Width: 479
Flags: W
LayerCount: 2
Fore
SplineSet
429 830 m 1
 496 753 l 1
 351 602 l 1
 233 602 l 1
 88 753 l 1
 155 830 l 1
 292 734 l 1
 429 830 l 1
295 554 m 0
 377 554 438 528 489 483 c 1
 407 368 l 1
 375 394 345 405 313 405 c 0
 255 405 223 371 223 263 c 0
 223 156 260 133 311 133 c 0
 344 133 367 144 404 167 c 1
 489 46 l 1
 440 6 380 -20 300 -20 c 0
 124 -20 17 96 17 263 c 0
 17 432 126 554 295 554 c 0
EndSplineSet
EndChar

StartChar: uni010E
Encoding: 270 270 201
Width: 656
Flags: W
LayerCount: 2
Fore
SplineSet
428 965 m 1
 495 888 l 1
 350 747 l 1
 232 747 l 1
 87 888 l 1
 154 965 l 1
 291 879 l 1
 428 965 l 1
266 696 m 2
 457 696 636 637 636 351 c 0
 636 73 472 0 278 0 c 2
 43 0 l 1
 43 696 l 1
 266 696 l 2
291 551 m 2
 249 551 l 1
 249 145 l 1
 290 145 l 2
 383 145 424 193 424 351 c 0
 424 509 379 551 291 551 c 2
EndSplineSet
EndChar

StartChar: uni010F
Encoding: 271 271 202
Width: 739
Flags: W
LayerCount: 2
Fore
SplineSet
356 512 m 1
 356 764 l 1
 554 744 l 1
 554 0 l 1
 378 0 l 1
 371 55 l 1
 343 18 297 -20 220 -20 c 0
 81 -20 17 94 17 270 c 0
 17 436 107 554 240 554 c 0
 286 554 326 539 356 512 c 1
618 764 m 1
 759 743 l 1
 701 509 l 1
 593 525 l 1
 618 764 l 1
287 122 m 0
 313 122 337 136 356 169 c 1
 356 383 l 1
 338 402 321 413 297 413 c 0
 254 413 220 376 220 268 c 0
 220 140 251 122 287 122 c 0
EndSplineSet
EndChar

StartChar: uni0110
Encoding: 272 272 203
Width: 671
Flags: W
LayerCount: 2
Fore
SplineSet
281 696 m 2
 472 696 651 637 651 351 c 0
 651 73 487 0 293 0 c 2
 58 0 l 1
 58 295 l 1
 10 295 l 1
 10 411 l 1
 58 411 l 1
 58 696 l 1
 281 696 l 2
305 145 m 2
 398 145 439 193 439 351 c 0
 439 509 394 551 306 551 c 2
 264 551 l 1
 264 411 l 1
 385 411 l 1
 385 295 l 1
 264 295 l 1
 264 145 l 1
 305 145 l 2
EndSplineSet
EndChar

StartChar: uni0111
Encoding: 273 273 204
Width: 611
Flags: W
LayerCount: 2
Fore
SplineSet
554 696 m 1
 611 696 l 1
 611 590 l 1
 554 590 l 1
 554 0 l 1
 378 0 l 1
 371 55 l 1
 343 18 297 -20 220 -20 c 0
 81 -20 17 94 17 270 c 0
 17 436 107 554 240 554 c 0
 286 554 326 539 356 512 c 1
 356 590 l 1
 237 590 l 1
 237 696 l 1
 356 696 l 1
 356 764 l 1
 554 744 l 1
 554 696 l 1
287 122 m 0
 313 122 337 136 356 169 c 1
 356 383 l 1
 338 402 321 413 297 413 c 0
 254 413 220 376 220 268 c 0
 220 140 251 122 287 122 c 0
EndSplineSet
EndChar

StartChar: uni0112
Encoding: 274 274 205
Width: 520
Flags: W
LayerCount: 2
Fore
SplineSet
434 774 m 1
 109 774 l 1
 109 908 l 1
 434 908 l 1
 434 774 l 1
500 696 m 1
 479 553 l 1
 249 553 l 1
 249 423 l 1
 451 423 l 1
 451 284 l 1
 249 284 l 1
 249 144 l 1
 495 144 l 1
 495 0 l 1
 43 0 l 1
 43 696 l 1
 500 696 l 1
EndSplineSet
EndChar

StartChar: uni0113
Encoding: 275 275 206
Width: 560
Flags: W
LayerCount: 2
Fore
SplineSet
447 648 m 1
 122 648 l 1
 122 782 l 1
 447 782 l 1
 447 648 l 1
545 274 m 0
 545 257 543 230 541 211 c 1
 217 211 l 1
 228 134 266 120 324 120 c 0
 362 120 399 135 445 167 c 1
 525 59 l 1
 472 16 398 -20 305 -20 c 0
 109 -20 17 101 17 266 c 0
 17 422 106 554 283 554 c 0
 441 554 545 453 545 274 c 0
350 323 m 1
 350 330 l 2
 349 384 338 429 287 429 c 0
 245 429 223 405 216 323 c 1
 350 323 l 1
EndSplineSet
EndChar

StartChar: uni0116
Encoding: 278 278 207
Width: 520
Flags: W
LayerCount: 2
Fore
SplineSet
272 955 m 0
 337 955 383 909 383 849 c 0
 383 789 337 743 272 743 c 0
 207 743 161 789 161 849 c 0
 161 909 207 955 272 955 c 0
500 696 m 1
 479 553 l 1
 249 553 l 1
 249 423 l 1
 451 423 l 1
 451 284 l 1
 249 284 l 1
 249 144 l 1
 495 144 l 1
 495 0 l 1
 43 0 l 1
 43 696 l 1
 500 696 l 1
EndSplineSet
EndChar

StartChar: uni0117
Encoding: 279 279 208
Width: 560
Flags: W
LayerCount: 2
Fore
SplineSet
285 829 m 0
 350 829 396 783 396 723 c 0
 396 663 350 617 285 617 c 0
 220 617 174 663 174 723 c 0
 174 783 220 829 285 829 c 0
545 274 m 0
 545 257 543 230 541 211 c 1
 217 211 l 1
 228 134 266 120 324 120 c 0
 362 120 399 135 445 167 c 1
 525 59 l 1
 472 16 398 -20 305 -20 c 0
 109 -20 17 101 17 266 c 0
 17 422 106 554 283 554 c 0
 441 554 545 453 545 274 c 0
350 323 m 1
 350 330 l 2
 349 384 338 429 287 429 c 0
 245 429 223 405 216 323 c 1
 350 323 l 1
EndSplineSet
EndChar

StartChar: uni0118
Encoding: 280 280 209
Width: 520
Flags: W
LayerCount: 2
Fore
SplineSet
249 284 m 1
 249 144 l 1
 495 144 l 1
 495 0 l 1
 455 0 l 1
 359 -32 340 -71 340 -95 c 0
 340 -125 359 -139 391 -139 c 0
 410 -139 430 -136 452 -131 c 1
 440 -246 l 1
 418 -251 393 -254 366 -254 c 0
 276 -254 206 -208 206 -128 c 0
 206 -72 234 -31 279 0 c 1
 43 0 l 1
 43 696 l 1
 500 696 l 1
 479 553 l 1
 249 553 l 1
 249 423 l 1
 451 423 l 1
 451 284 l 1
 249 284 l 1
EndSplineSet
EndChar

StartChar: uni0119
Encoding: 281 281 210
Width: 560
Flags: W
LayerCount: 2
Fore
SplineSet
545 274 m 0
 545 257 543 230 541 211 c 1
 217 211 l 1
 228 134 266 120 324 120 c 0
 362 120 399 135 445 167 c 1
 525 59 l 1
 492 32 450 8 401 -6 c 1
 343 -34 330 -64 330 -84 c 0
 330 -114 349 -128 381 -128 c 0
 400 -128 420 -125 442 -120 c 1
 430 -235 l 1
 408 -240 383 -243 356 -243 c 0
 266 -243 196 -197 196 -117 c 0
 196 -73 219 -40 254 -17 c 1
 93 3 17 116 17 266 c 0
 17 422 106 554 283 554 c 0
 441 554 545 453 545 274 c 0
350 323 m 1
 350 330 l 2
 349 384 338 429 287 429 c 0
 245 429 223 405 216 323 c 1
 350 323 l 1
EndSplineSet
EndChar

StartChar: uni011A
Encoding: 282 282 211
Width: 520
Flags: W
LayerCount: 2
Fore
SplineSet
409 965 m 1
 476 888 l 1
 331 747 l 1
 213 747 l 1
 68 888 l 1
 135 965 l 1
 272 879 l 1
 409 965 l 1
500 696 m 1
 479 553 l 1
 249 553 l 1
 249 423 l 1
 451 423 l 1
 451 284 l 1
 249 284 l 1
 249 144 l 1
 495 144 l 1
 495 0 l 1
 43 0 l 1
 43 696 l 1
 500 696 l 1
EndSplineSet
EndChar

StartChar: uni011B
Encoding: 283 283 212
Width: 560
Flags: W
LayerCount: 2
Fore
SplineSet
344 602 m 1
 226 602 l 1
 81 753 l 1
 148 830 l 1
 285 734 l 1
 422 830 l 1
 489 753 l 1
 344 602 l 1
545 274 m 0
 545 257 543 230 541 211 c 1
 217 211 l 1
 228 134 266 120 324 120 c 0
 362 120 399 135 445 167 c 1
 525 59 l 1
 472 16 398 -20 305 -20 c 0
 109 -20 17 101 17 266 c 0
 17 422 106 554 283 554 c 0
 441 554 545 453 545 274 c 0
350 323 m 1
 350 330 l 2
 349 384 338 429 287 429 c 0
 245 429 223 405 216 323 c 1
 350 323 l 1
EndSplineSet
EndChar

StartChar: uni011E
Encoding: 286 286 213
Width: 653
Flags: W
LayerCount: 2
Fore
SplineSet
350 746 m 0
 230 746 173 840 165 932 c 1
 268 949 l 1
 279 912 305 880 350 880 c 0
 395 880 421 912 432 949 c 1
 535 932 l 1
 527 840 470 746 350 746 c 0
371 716 m 0
 478 716 561 675 618 625 c 1
 518 521 l 1
 472 554 436 572 383 572 c 0
 287 572 232 501 232 348 c 0
 232 176 268 126 349 126 c 0
 376 126 398 132 420 143 c 1
 420 270 l 1
 350 270 l 1
 331 409 l 1
 618 409 l 1
 618 60 l 1
 543 9 442 -20 355 -20 c 0
 122 -20 20 112 20 349 c 0
 20 585 170 716 371 716 c 0
EndSplineSet
EndChar

StartChar: uni011F
Encoding: 287 287 214
Width: 570
Flags: W
LayerCount: 2
Fore
SplineSet
285 626 m 0
 165 626 108 720 100 822 c 1
 203 839 l 1
 214 792 240 760 285 760 c 0
 330 760 356 792 367 839 c 1
 470 822 l 1
 462 720 405 626 285 626 c 0
527 636 m 1
 570 498 l 1
 537 483 488 474 418 474 c 1
 488 445 522 408 522 334 c 0
 522 233 431 158 285 158 c 0
 264 158 246 158 228 161 c 1
 220 157 216 150 216 142 c 0
 216 132 219 117 268 117 c 2
 345 117 l 2
 479 117 562 51 562 -42 c 0
 562 -155 459 -227 266 -227 c 0
 47 -227 -5 -153 -5 -49 c 1
 172 -49 l 1
 172 -88 188 -102 272 -102 c 0
 352 -102 363 -78 363 -56 c 0
 363 -37 350 -17 306 -17 c 2
 232 -17 l 2
 102 -17 52 31 52 90 c 0
 52 132 81 174 120 197 c 1
 47 236 20 284 20 353 c 0
 20 481 119 554 271 554 c 1
 382 550 461 591 527 636 c 1
277 426 m 0
 242 426 216 403 216 357 c 0
 216 306 243 284 277 284 c 0
 317 284 338 308 338 360 c 0
 338 407 318 426 277 426 c 0
EndSplineSet
EndChar

StartChar: uni0122
Encoding: 290 290 215
Width: 653
Flags: W
LayerCount: 2
Fore
SplineSet
371 716 m 0
 478 716 561 675 618 625 c 1
 518 521 l 1
 472 554 436 572 383 572 c 0
 287 572 232 501 232 348 c 0
 232 176 268 126 349 126 c 0
 376 126 398 132 420 143 c 1
 420 270 l 1
 350 270 l 1
 331 409 l 1
 618 409 l 1
 618 60 l 1
 543 9 442 -20 355 -20 c 0
 122 -20 20 112 20 349 c 0
 20 585 170 716 371 716 c 0
350 -62 m 0
 404 -62 442 -101 442 -153 c 0
 442 -184 432 -206 415 -241 c 2
 365 -342 l 1
 271 -342 l 1
 296 -228 l 1
 274 -211 258 -187 258 -153 c 0
 258 -104 296 -62 350 -62 c 0
EndSplineSet
EndChar

StartChar: uni0123
Encoding: 291 291 216
Width: 570
Flags: W
LayerCount: 2
Fore
SplineSet
279 573 m 0
 225 573 187 612 187 664 c 0
 187 695 197 717 214 752 c 2
 264 853 l 1
 358 853 l 1
 333 739 l 1
 355 722 371 698 371 664 c 0
 371 615 333 573 279 573 c 0
527 636 m 1
 570 498 l 1
 537 483 488 474 418 474 c 1
 488 445 522 408 522 334 c 0
 522 233 431 158 285 158 c 0
 264 158 246 158 228 161 c 1
 220 157 216 150 216 142 c 0
 216 132 219 117 268 117 c 2
 345 117 l 2
 479 117 562 51 562 -42 c 0
 562 -155 459 -227 266 -227 c 0
 47 -227 -5 -153 -5 -49 c 1
 172 -49 l 1
 172 -88 188 -102 272 -102 c 0
 352 -102 363 -78 363 -56 c 0
 363 -37 350 -17 306 -17 c 2
 232 -17 l 2
 102 -17 52 31 52 90 c 0
 52 132 81 174 120 197 c 1
 47 236 20 284 20 353 c 0
 20 481 119 554 271 554 c 1
 382 550 461 591 527 636 c 1
277 426 m 0
 242 426 216 403 216 357 c 0
 216 306 243 284 277 284 c 0
 317 284 338 308 338 360 c 0
 338 407 318 426 277 426 c 0
EndSplineSet
EndChar

StartChar: uni012A
Encoding: 298 298 217
Width: 292
Flags: W
LayerCount: 2
Fore
SplineSet
308 774 m 1
 -17 774 l 1
 -17 908 l 1
 308 908 l 1
 308 774 l 1
249 696 m 1
 249 0 l 1
 43 0 l 1
 43 696 l 1
 249 696 l 1
EndSplineSet
EndChar

StartChar: uni012B
Encoding: 299 299 218
Width: 282
Flags: W
LayerCount: 2
Fore
SplineSet
303 648 m 1
 -22 648 l 1
 -22 782 l 1
 303 782 l 1
 303 648 l 1
240 534 m 1
 240 0 l 1
 42 0 l 1
 42 534 l 1
 240 534 l 1
EndSplineSet
EndChar

StartChar: uni012E
Encoding: 302 302 219
Width: 292
Flags: W
LayerCount: 2
Fore
SplineSet
43 696 m 1
 249 696 l 1
 249 0 l 1
 203 0 l 1
 107 -32 88 -71 88 -95 c 0
 88 -125 107 -139 139 -139 c 0
 158 -139 178 -136 200 -131 c 1
 188 -246 l 1
 166 -251 141 -254 114 -254 c 0
 24 -254 -46 -208 -46 -128 c 0
 -46 -66 -11 -22 43 11 c 1
 43 696 l 1
EndSplineSet
EndChar

StartChar: uni012F
Encoding: 303 303 220
Width: 282
Flags: W
LayerCount: 2
Fore
SplineSet
141 617 m 0
 76 617 30 663 30 723 c 0
 30 783 76 829 141 829 c 0
 206 829 252 783 252 723 c 0
 252 663 206 617 141 617 c 0
42 12 m 1
 42 534 l 1
 240 534 l 1
 240 0 l 1
 200 0 l 1
 104 -32 85 -71 85 -95 c 0
 85 -125 104 -139 136 -139 c 0
 155 -139 175 -136 197 -131 c 1
 185 -246 l 1
 163 -251 138 -254 111 -254 c 0
 21 -254 -49 -208 -49 -128 c 0
 -49 -65 -13 -20 42 12 c 1
EndSplineSet
EndChar

StartChar: uni0130
Encoding: 304 304 221
Width: 292
Flags: W
LayerCount: 2
Fore
SplineSet
146 955 m 0
 211 955 257 909 257 849 c 0
 257 789 211 743 146 743 c 0
 81 743 35 789 35 849 c 0
 35 909 81 955 146 955 c 0
249 696 m 1
 249 0 l 1
 43 0 l 1
 43 696 l 1
 249 696 l 1
EndSplineSet
EndChar

StartChar: uni0131
Encoding: 305 305 222
Width: 282
Flags: W
LayerCount: 2
Fore
SplineSet
240 534 m 1
 240 0 l 1
 42 0 l 1
 42 534 l 1
 240 534 l 1
EndSplineSet
EndChar

StartChar: uni0136
Encoding: 310 310 223
Width: 659
Flags: W
LayerCount: 2
Fore
SplineSet
249 696 m 1
 249 0 l 1
 43 0 l 1
 43 696 l 1
 249 696 l 1
661 696 m 1
 464 387 l 1
 679 0 l 1
 445 0 l 1
 255 371 l 1
 449 696 l 1
 661 696 l 1
330 -62 m 0
 384 -62 422 -101 422 -153 c 0
 422 -184 412 -206 395 -241 c 2
 345 -342 l 1
 251 -342 l 1
 276 -228 l 1
 254 -211 238 -187 238 -153 c 0
 238 -104 276 -62 330 -62 c 0
EndSplineSet
EndChar

StartChar: uni0137
Encoding: 311 311 224
Width: 576
Flags: W
LayerCount: 2
Fore
SplineSet
240 764 m 1
 240 0 l 1
 42 0 l 1
 42 744 l 1
 240 764 l 1
583 534 m 1
 442 300 l 1
 591 0 l 1
 372 0 l 1
 244 292 l 1
 387 534 l 1
 583 534 l 1
288 -62 m 0
 342 -62 380 -101 380 -153 c 0
 380 -184 370 -206 353 -241 c 2
 303 -342 l 1
 209 -342 l 1
 234 -228 l 1
 212 -211 196 -187 196 -153 c 0
 196 -104 234 -62 288 -62 c 0
EndSplineSet
EndChar

StartChar: uni0139
Encoding: 313 313 225
Width: 522
Flags: W
LayerCount: 2
Fore
SplineSet
228 984 m 1
 298 840 l 1
 44 749 l 1
 -6 848 l 1
 228 984 l 1
249 696 m 1
 249 158 l 1
 512 158 l 1
 491 0 l 1
 43 0 l 1
 43 696 l 1
 249 696 l 1
EndSplineSet
EndChar

StartChar: uni013A
Encoding: 314 314 226
Width: 303
Flags: W
LayerCount: 2
Fore
SplineSet
216 1032 m 1
 286 888 l 1
 32 797 l 1
 -18 896 l 1
 216 1032 l 1
203 -20 m 0
 95 -20 35 43 35 154 c 2
 35 744 l 1
 233 764 l 1
 233 162 l 2
 233 144 241 135 257 135 c 0
 266 135 273 137 278 139 c 1
 313 -2 l 1
 287 -12 248 -20 203 -20 c 0
EndSplineSet
EndChar

StartChar: uni013B
Encoding: 315 315 227
Width: 522
Flags: W
LayerCount: 2
Fore
SplineSet
249 696 m 1
 249 158 l 1
 512 158 l 1
 491 0 l 1
 43 0 l 1
 43 696 l 1
 249 696 l 1
267 -62 m 0
 321 -62 359 -101 359 -153 c 0
 359 -184 349 -206 332 -241 c 2
 282 -342 l 1
 188 -342 l 1
 213 -228 l 1
 191 -211 175 -187 175 -153 c 0
 175 -104 213 -62 267 -62 c 0
EndSplineSet
EndChar

StartChar: uni013C
Encoding: 316 316 228
Width: 303
Flags: W
LayerCount: 2
Fore
SplineSet
203 -20 m 0
 95 -20 35 43 35 154 c 2
 35 744 l 1
 233 764 l 1
 233 162 l 2
 233 144 241 135 257 135 c 0
 266 135 273 137 278 139 c 1
 313 -2 l 1
 287 -12 248 -20 203 -20 c 0
184 -62 m 0
 238 -62 276 -101 276 -153 c 0
 276 -184 266 -206 249 -241 c 2
 199 -342 l 1
 105 -342 l 1
 130 -228 l 1
 108 -211 92 -187 92 -153 c 0
 92 -104 130 -62 184 -62 c 0
EndSplineSet
EndChar

StartChar: uni013D
Encoding: 317 317 229
Width: 522
Flags: W
LayerCount: 2
Fore
SplineSet
391 461 m 1
 449 695 l 1
 308 716 l 1
 283 477 l 1
 391 461 l 1
249 696 m 1
 249 158 l 1
 512 158 l 1
 491 0 l 1
 43 0 l 1
 43 696 l 1
 249 696 l 1
EndSplineSet
EndChar

StartChar: uni013E
Encoding: 318 318 230
Width: 415
Flags: W
LayerCount: 2
Fore
SplineSet
203 -20 m 0
 95 -20 35 43 35 154 c 2
 35 744 l 1
 233 764 l 1
 233 162 l 2
 233 144 241 135 257 135 c 0
 266 135 273 137 278 139 c 1
 313 -2 l 1
 287 -12 248 -20 203 -20 c 0
377 509 m 1
 435 743 l 1
 294 764 l 1
 269 525 l 1
 377 509 l 1
EndSplineSet
EndChar

StartChar: uni0141
Encoding: 321 321 231
Width: 576
Flags: W
LayerCount: 2
Fore
SplineSet
303 158 m 1
 566 158 l 1
 545 0 l 1
 97 0 l 1
 97 205 l 1
 63 184 l 1
 0 287 l 1
 97 347 l 1
 97 696 l 1
 303 696 l 1
 303 474 l 1
 411 541 l 1
 475 439 l 1
 303 333 l 1
 303 158 l 1
EndSplineSet
EndChar

StartChar: uni0142
Encoding: 322 322 232
Width: 386
Flags: W
LayerCount: 2
Fore
SplineSet
299 135 m 0
 308 135 315 137 320 139 c 1
 355 -2 l 1
 329 -12 290 -20 245 -20 c 0
 137 -20 77 43 77 154 c 2
 77 248 l 1
 43 227 l 1
 -20 329 l 1
 77 390 l 1
 77 744 l 1
 275 764 l 1
 275 509 l 1
 329 542 l 1
 392 440 l 1
 275 369 l 1
 275 162 l 2
 275 144 283 135 299 135 c 0
EndSplineSet
EndChar

StartChar: uni0143
Encoding: 323 323 233
Width: 651
Flags: W
LayerCount: 2
Fore
SplineSet
408 984 m 1
 478 840 l 1
 224 749 l 1
 174 848 l 1
 408 984 l 1
608 696 m 1
 608 0 l 1
 350 0 l 1
 198 508 l 1
 208 441 225 345 225 216 c 2
 225 0 l 1
 43 0 l 1
 43 696 l 1
 296 696 l 1
 454 186 l 1
 441 267 426 347 426 473 c 2
 426 696 l 1
 608 696 l 1
EndSplineSet
EndChar

StartChar: uni0144
Encoding: 324 324 234
Width: 570
Flags: W
LayerCount: 2
Fore
SplineSet
433 712 m 1
 182 613 l 1
 129 712 l 1
 359 856 l 1
 433 712 l 1
391 554 m 0
 480 554 535 496 535 394 c 2
 535 0 l 1
 337 0 l 1
 337 358 l 2
 337 400 325 410 307 410 c 0
 286 410 263 393 240 357 c 1
 240 0 l 1
 42 0 l 1
 42 534 l 1
 215 534 l 1
 229 479 l 1
 278 531 327 554 391 554 c 0
EndSplineSet
EndChar

StartChar: uni0145
Encoding: 325 325 235
Width: 651
Flags: W
LayerCount: 2
Fore
SplineSet
608 696 m 1
 608 0 l 1
 350 0 l 1
 198 508 l 1
 208 441 225 345 225 216 c 2
 225 0 l 1
 43 0 l 1
 43 696 l 1
 296 696 l 1
 454 186 l 1
 441 267 426 347 426 473 c 2
 426 696 l 1
 608 696 l 1
326 -62 m 0
 380 -62 418 -101 418 -153 c 0
 418 -184 408 -206 391 -241 c 2
 341 -342 l 1
 247 -342 l 1
 272 -228 l 1
 250 -211 234 -187 234 -153 c 0
 234 -104 272 -62 326 -62 c 0
EndSplineSet
EndChar

StartChar: uni0146
Encoding: 326 326 236
Width: 570
Flags: W
LayerCount: 2
Fore
SplineSet
391 554 m 0
 480 554 535 496 535 394 c 2
 535 0 l 1
 337 0 l 1
 337 358 l 2
 337 400 325 410 307 410 c 0
 286 410 263 393 240 357 c 1
 240 0 l 1
 42 0 l 1
 42 534 l 1
 215 534 l 1
 229 479 l 1
 278 531 327 554 391 554 c 0
286 -62 m 0
 340 -62 378 -101 378 -153 c 0
 378 -184 368 -206 351 -241 c 2
 301 -342 l 1
 207 -342 l 1
 232 -228 l 1
 210 -211 194 -187 194 -153 c 0
 194 -104 232 -62 286 -62 c 0
EndSplineSet
EndChar

StartChar: uni0147
Encoding: 327 327 237
Width: 651
Flags: W
LayerCount: 2
Fore
SplineSet
463 965 m 1
 530 888 l 1
 385 747 l 1
 267 747 l 1
 122 888 l 1
 189 965 l 1
 326 879 l 1
 463 965 l 1
608 696 m 1
 608 0 l 1
 350 0 l 1
 198 508 l 1
 208 441 225 345 225 216 c 2
 225 0 l 1
 43 0 l 1
 43 696 l 1
 296 696 l 1
 454 186 l 1
 441 267 426 347 426 473 c 2
 426 696 l 1
 608 696 l 1
EndSplineSet
EndChar

StartChar: uni0148
Encoding: 328 328 238
Width: 570
Flags: W
LayerCount: 2
Fore
SplineSet
350 602 m 1
 232 602 l 1
 87 753 l 1
 154 830 l 1
 291 734 l 1
 428 830 l 1
 495 753 l 1
 350 602 l 1
391 554 m 0
 480 554 535 496 535 394 c 2
 535 0 l 1
 337 0 l 1
 337 358 l 2
 337 400 325 410 307 410 c 0
 286 410 263 393 240 357 c 1
 240 0 l 1
 42 0 l 1
 42 534 l 1
 215 534 l 1
 229 479 l 1
 278 531 327 554 391 554 c 0
EndSplineSet
EndChar

StartChar: uni014C
Encoding: 332 332 239
Width: 690
Flags: W
LayerCount: 2
Fore
SplineSet
507 774 m 1
 182 774 l 1
 182 908 l 1
 507 908 l 1
 507 774 l 1
345 716 m 0
 554 716 670 580 670 349 c 0
 670 123 554 -20 345 -20 c 0
 136 -20 20 118 20 349 c 0
 20 575 136 716 345 716 c 0
345 570 m 0
 267 570 234 510 234 349 c 0
 234 188 267 126 345 126 c 0
 425 126 456 188 456 349 c 0
 456 510 423 570 345 570 c 0
EndSplineSet
EndChar

StartChar: uni014D
Encoding: 333 333 240
Width: 584
Flags: W
LayerCount: 2
Fore
SplineSet
454 648 m 1
 129 648 l 1
 129 782 l 1
 454 782 l 1
 454 648 l 1
292 554 m 0
 460 554 567 452 567 266 c 0
 567 92 462 -20 292 -20 c 0
 124 -20 17 82 17 268 c 0
 17 442 122 554 292 554 c 0
292 412 m 0
 242 412 220 369 220 268 c 0
 220 162 242 122 292 122 c 0
 342 122 364 165 364 266 c 0
 364 372 342 412 292 412 c 0
EndSplineSet
EndChar

StartChar: uni0150
Encoding: 336 336 241
Width: 690
Flags: W
LayerCount: 2
Fore
SplineSet
291 976 m 1
 413 912 l 1
 285 745 l 1
 200 789 l 1
 291 976 l 1
474 967 m 1
 592 896 l 1
 455 736 l 1
 373 785 l 1
 474 967 l 1
345 716 m 0
 554 716 670 580 670 349 c 0
 670 123 554 -20 345 -20 c 0
 136 -20 20 118 20 349 c 0
 20 575 136 716 345 716 c 0
345 570 m 0
 267 570 234 510 234 349 c 0
 234 188 267 126 345 126 c 0
 425 126 456 188 456 349 c 0
 456 510 423 570 345 570 c 0
EndSplineSet
EndChar

StartChar: uni0151
Encoding: 337 337 242
Width: 584
Flags: W
LayerCount: 2
Fore
SplineSet
254 845 m 1
 376 781 l 1
 248 604 l 1
 163 648 l 1
 254 845 l 1
437 836 m 1
 555 765 l 1
 418 595 l 1
 336 644 l 1
 437 836 l 1
292 554 m 0
 460 554 567 452 567 266 c 0
 567 92 462 -20 292 -20 c 0
 124 -20 17 82 17 268 c 0
 17 442 122 554 292 554 c 0
292 412 m 0
 242 412 220 369 220 268 c 0
 220 162 242 122 292 122 c 0
 342 122 364 165 364 266 c 0
 364 372 342 412 292 412 c 0
EndSplineSet
EndChar

StartChar: uni0152
Encoding: 338 338 243
Width: 910
Flags: W
LayerCount: 2
Fore
SplineSet
645 284 m 1
 637 233 620 185 593 144 c 1
 885 144 l 1
 885 0 l 1
 434 0 l 1
 403 -13 367 -20 327 -20 c 0
 136 -20 20 118 20 349 c 0
 20 575 136 716 327 716 c 0
 368 716 406 709 438 696 c 1
 890 696 l 1
 869 553 l 1
 594 553 l 1
 620 514 636 470 644 423 c 1
 841 423 l 1
 841 284 l 1
 645 284 l 1
335 126 m 0
 405 126 436 188 436 349 c 0
 436 510 403 570 335 570 c 0
 267 570 234 510 234 349 c 0
 234 188 267 126 335 126 c 0
EndSplineSet
EndChar

StartChar: uni0153
Encoding: 339 339 244
Width: 905
Flags: W
LayerCount: 2
Fore
SplineSet
890 274 m 0
 890 257 888 230 886 211 c 1
 562 211 l 1
 573 134 611 120 669 120 c 0
 707 120 744 135 790 167 c 1
 870 59 l 1
 817 16 743 -20 650 -20 c 0
 568 -20 509 6 465 50 c 1
 421 4 363 -20 291 -20 c 0
 122 -20 17 82 17 268 c 0
 17 440 122 554 291 554 c 0
 360 554 418 529 463 486 c 1
 504 528 558 554 628 554 c 0
 786 554 890 453 890 274 c 0
695 323 m 1
 695 330 l 2
 694 384 683 429 632 429 c 0
 590 429 568 405 561 323 c 1
 695 323 l 1
291 122 m 0
 340 122 362 163 362 268 c 0
 362 369 340 412 291 412 c 0
 242 412 220 369 220 268 c 0
 220 162 242 122 291 122 c 0
EndSplineSet
EndChar

StartChar: uni0154
Encoding: 340 340 245
Width: 624
Flags: W
LayerCount: 2
Fore
SplineSet
454 840 m 1
 200 749 l 1
 150 848 l 1
 384 984 l 1
 454 840 l 1
416 0 m 1
 287 248 l 1
 249 248 l 1
 249 0 l 1
 43 0 l 1
 43 696 l 1
 298 696 l 2
 497 696 597 628 597 475 c 0
 597 387 559 335 474 286 c 1
 644 0 l 1
 416 0 l 1
249 555 m 1
 249 386 l 1
 303 386 l 2
 359 386 387 414 387 475 c 0
 387 530 354 555 293 555 c 2
 249 555 l 1
EndSplineSet
EndChar

StartChar: uni0155
Encoding: 341 341 246
Width: 410
Flags: W
LayerCount: 2
Fore
SplineSet
373 712 m 1
 122 613 l 1
 69 712 l 1
 299 856 l 1
 373 712 l 1
366 551 m 0
 387 551 401 548 420 542 c 1
 389 351 l 1
 372 356 357 359 340 359 c 0
 276 359 255 311 240 243 c 1
 240 0 l 1
 42 0 l 1
 42 534 l 1
 215 534 l 1
 231 434 l 1
 253 504 307 551 366 551 c 0
EndSplineSet
EndChar

StartChar: uni0156
Encoding: 342 342 247
Width: 624
Flags: W
LayerCount: 2
Fore
SplineSet
474 286 m 1
 644 0 l 1
 416 0 l 1
 287 248 l 1
 249 248 l 1
 249 0 l 1
 43 0 l 1
 43 696 l 1
 298 696 l 2
 497 696 597 628 597 475 c 0
 597 387 559 335 474 286 c 1
249 555 m 1
 249 386 l 1
 303 386 l 2
 359 386 387 414 387 475 c 0
 387 530 354 555 293 555 c 2
 249 555 l 1
312 -62 m 0
 366 -62 404 -101 404 -153 c 0
 404 -184 394 -206 377 -241 c 2
 327 -342 l 1
 233 -342 l 1
 258 -228 l 1
 236 -211 220 -187 220 -153 c 0
 220 -104 258 -62 312 -62 c 0
EndSplineSet
EndChar

StartChar: uni0157
Encoding: 343 343 248
Width: 410
Flags: W
LayerCount: 2
Fore
SplineSet
366 551 m 0
 387 551 401 548 420 542 c 1
 389 351 l 1
 372 356 357 359 340 359 c 0
 276 359 255 311 240 243 c 1
 240 0 l 1
 42 0 l 1
 42 534 l 1
 215 534 l 1
 231 434 l 1
 253 504 307 551 366 551 c 0
141 -62 m 0
 195 -62 233 -101 233 -153 c 0
 233 -184 223 -206 206 -241 c 2
 156 -342 l 1
 62 -342 l 1
 87 -228 l 1
 65 -211 49 -187 49 -153 c 0
 49 -104 87 -62 141 -62 c 0
EndSplineSet
EndChar

StartChar: uni0158
Encoding: 344 344 249
Width: 624
Flags: W
LayerCount: 2
Fore
SplineSet
361 747 m 1
 243 747 l 1
 98 888 l 1
 165 965 l 1
 302 879 l 1
 439 965 l 1
 506 888 l 1
 361 747 l 1
416 0 m 1
 287 248 l 1
 249 248 l 1
 249 0 l 1
 43 0 l 1
 43 696 l 1
 298 696 l 2
 497 696 597 628 597 475 c 0
 597 387 559 335 474 286 c 1
 644 0 l 1
 416 0 l 1
249 555 m 1
 249 386 l 1
 303 386 l 2
 359 386 387 414 387 475 c 0
 387 530 354 555 293 555 c 2
 249 555 l 1
EndSplineSet
EndChar

StartChar: uni0159
Encoding: 345 345 250
Width: 410
Flags: W
LayerCount: 2
Fore
SplineSet
290 602 m 1
 172 602 l 1
 27 753 l 1
 94 830 l 1
 231 734 l 1
 368 830 l 1
 435 753 l 1
 290 602 l 1
231 434 m 1
 253 504 307 551 366 551 c 0
 387 551 401 548 420 542 c 1
 389 351 l 1
 372 356 357 359 340 359 c 0
 276 359 255 311 240 243 c 1
 240 0 l 1
 42 0 l 1
 42 534 l 1
 215 534 l 1
 231 434 l 1
EndSplineSet
EndChar

StartChar: uni015A
Encoding: 346 346 251
Width: 588
Flags: W
LayerCount: 2
Fore
SplineSet
389 984 m 1
 459 840 l 1
 205 749 l 1
 155 848 l 1
 389 984 l 1
299 716 m 0
 411 716 493 682 556 621 c 1
 465 514 l 1
 419 551 371 570 316 570 c 0
 266 570 241 551 241 520 c 0
 241 484 267 473 366 441 c 0
 509 395 573 333 573 208 c 0
 573 74 463 -20 280 -20 c 0
 147 -20 57 30 0 85 c 1
 101 196 l 1
 151 153 207 128 272 128 c 0
 332 128 359 155 359 191 c 0
 359 232 337 250 246 278 c 0
 78 331 29 402 29 503 c 0
 29 635 145 716 299 716 c 0
EndSplineSet
EndChar

StartChar: uni015B
Encoding: 347 347 252
Width: 488
Flags: W
LayerCount: 2
Fore
SplineSet
319 856 m 1
 393 712 l 1
 142 613 l 1
 89 712 l 1
 319 856 l 1
256 554 m 0
 335 554 412 527 461 485 c 1
 391 378 l 1
 353 402 307 417 264 417 c 0
 231 417 219 407 219 393 c 0
 219 375 225 367 326 336 c 0
 427 305 483 261 483 164 c 0
 483 54 378 -20 230 -20 c 0
 136 -20 50 13 -5 65 c 1
 89 169 l 1
 127 139 176 116 225 116 c 0
 260 116 281 127 281 149 c 0
 281 175 270 180 178 208 c 0
 78 238 23 295 23 381 c 0
 23 477 106 554 256 554 c 0
EndSplineSet
EndChar

StartChar: uni015E
Encoding: 350 350 253
Width: 588
Flags: W
LayerCount: 2
Fore
SplineSet
573 208 m 0
 573 90 488 3 342 -16 c 1
 342 -43 l 1
 415 -52 452 -89 452 -151 c 0
 452 -220 393 -275 288 -275 c 0
 236 -275 191 -259 163 -241 c 1
 206 -155 l 1
 226 -166 246 -173 270 -173 c 0
 298 -173 315 -167 315 -149 c 0
 315 -127 286 -120 221 -120 c 1
 234 -18 l 1
 126 -8 50 37 0 85 c 1
 101 196 l 1
 151 153 207 128 272 128 c 0
 332 128 359 155 359 191 c 0
 359 232 337 250 246 278 c 0
 78 331 29 402 29 503 c 0
 29 635 145 716 299 716 c 0
 411 716 493 682 556 621 c 1
 465 514 l 1
 419 551 371 570 316 570 c 0
 266 570 241 551 241 520 c 0
 241 484 267 473 366 441 c 0
 509 395 573 333 573 208 c 0
EndSplineSet
EndChar

StartChar: uni015F
Encoding: 351 351 254
Width: 488
Flags: W
LayerCount: 2
Fore
SplineSet
483 164 m 0
 483 73 411 6 302 -14 c 1
 302 -43 l 1
 375 -52 412 -89 412 -151 c 0
 412 -220 353 -275 248 -275 c 0
 196 -275 151 -259 123 -241 c 1
 166 -155 l 1
 186 -166 206 -173 230 -173 c 0
 258 -173 275 -167 275 -149 c 0
 275 -127 246 -120 181 -120 c 1
 194 -18 l 1
 114 -11 43 20 -5 65 c 1
 89 169 l 1
 127 139 176 116 225 116 c 0
 260 116 281 127 281 149 c 0
 281 175 270 180 178 208 c 0
 78 238 23 295 23 381 c 0
 23 477 106 554 256 554 c 0
 335 554 412 527 461 485 c 1
 391 378 l 1
 353 402 307 417 264 417 c 0
 231 417 219 407 219 393 c 0
 219 375 225 367 326 336 c 0
 427 305 483 261 483 164 c 0
EndSplineSet
EndChar

StartChar: uni0160
Encoding: 352 352 255
Width: 588
Flags: W
LayerCount: 2
Fore
SplineSet
444 965 m 1
 511 888 l 1
 366 747 l 1
 248 747 l 1
 103 888 l 1
 170 965 l 1
 307 879 l 1
 444 965 l 1
299 716 m 0
 411 716 493 682 556 621 c 1
 465 514 l 1
 419 551 371 570 316 570 c 0
 266 570 241 551 241 520 c 0
 241 484 267 473 366 441 c 0
 509 395 573 333 573 208 c 0
 573 74 463 -20 280 -20 c 0
 147 -20 57 30 0 85 c 1
 101 196 l 1
 151 153 207 128 272 128 c 0
 332 128 359 155 359 191 c 0
 359 232 337 250 246 278 c 0
 78 331 29 402 29 503 c 0
 29 635 145 716 299 716 c 0
EndSplineSet
EndChar

StartChar: uni0161
Encoding: 353 353 256
Width: 488
Flags: W
LayerCount: 2
Fore
SplineSet
388 830 m 1
 455 753 l 1
 310 602 l 1
 192 602 l 1
 47 753 l 1
 114 830 l 1
 251 734 l 1
 388 830 l 1
256 554 m 0
 335 554 412 527 461 485 c 1
 391 378 l 1
 353 402 307 417 264 417 c 0
 231 417 219 407 219 393 c 0
 219 375 225 367 326 336 c 0
 427 305 483 261 483 164 c 0
 483 54 378 -20 230 -20 c 0
 136 -20 50 13 -5 65 c 1
 89 169 l 1
 127 139 176 116 225 116 c 0
 260 116 281 127 281 149 c 0
 281 175 270 180 178 208 c 0
 78 238 23 295 23 381 c 0
 23 477 106 554 256 554 c 0
EndSplineSet
EndChar

StartChar: uni0162
Encoding: 354 354 257
Width: 554
Flags: W
LayerCount: 2
Fore
SplineSet
380 -43 m 1
 453 -52 490 -89 490 -151 c 0
 490 -220 431 -275 326 -275 c 0
 274 -275 228 -258 201 -241 c 1
 244 -155 l 1
 264 -166 284 -173 306 -173 c 0
 336 -173 353 -167 353 -148 c 0
 353 -127 324 -120 259 -120 c 1
 274 0 l 1
 174 0 l 1
 174 542 l 1
 5 542 l 1
 5 696 l 1
 559 696 l 1
 538 542 l 1
 380 542 l 1
 380 -43 l 1
EndSplineSet
EndChar

StartChar: uni0163
Encoding: 355 355 258
Width: 401
Flags: W
LayerCount: 2
Fore
SplineSet
290 -43 m 1
 363 -52 400 -89 400 -151 c 0
 400 -220 341 -275 236 -275 c 0
 184 -275 139 -259 111 -241 c 1
 154 -155 l 1
 174 -166 194 -173 218 -173 c 0
 246 -173 263 -167 263 -149 c 0
 263 -127 234 -120 169 -120 c 1
 183 -10 l 1
 100 15 62 85 62 197 c 2
 62 400 l 1
 -2 400 l 1
 -2 534 l 1
 62 534 l 1
 62 646 l 1
 260 669 l 1
 260 534 l 1
 380 534 l 1
 360 400 l 1
 260 400 l 1
 260 199 l 2
 260 149 277 135 302 135 c 0
 317 135 334 139 352 149 c 1
 416 26 l 1
 381 2 333 -13 290 -18 c 1
 290 -43 l 1
EndSplineSet
EndChar

StartChar: uni0164
Encoding: 356 356 259
Width: 554
Flags: W
LayerCount: 2
Fore
SplineSet
414 965 m 1
 481 888 l 1
 336 747 l 1
 218 747 l 1
 73 888 l 1
 140 965 l 1
 277 879 l 1
 414 965 l 1
559 696 m 1
 538 542 l 1
 380 542 l 1
 380 0 l 1
 174 0 l 1
 174 542 l 1
 5 542 l 1
 5 696 l 1
 559 696 l 1
EndSplineSet
EndChar

StartChar: uni0165
Encoding: 357 357 260
Width: 401
Flags: W
LayerCount: 2
Fore
SplineSet
443 798 m 1
 385 564 l 1
 277 580 l 1
 302 819 l 1
 443 798 l 1
302 135 m 0
 317 135 334 139 352 149 c 1
 416 26 l 1
 372 -5 306 -20 256 -20 c 0
 122 -19 62 56 62 197 c 2
 62 400 l 1
 -2 400 l 1
 -2 534 l 1
 62 534 l 1
 62 646 l 1
 260 669 l 1
 260 534 l 1
 380 534 l 1
 360 400 l 1
 260 400 l 1
 260 199 l 2
 260 149 277 135 302 135 c 0
EndSplineSet
EndChar

StartChar: uni016A
Encoding: 362 362 261
Width: 644
Flags: W
LayerCount: 2
Fore
SplineSet
484 774 m 1
 159 774 l 1
 159 908 l 1
 484 908 l 1
 484 774 l 1
611 696 m 1
 611 236 l 2
 611 94 518 -20 322 -20 c 0
 126 -20 33 84 33 236 c 2
 33 696 l 1
 239 696 l 1
 239 242 l 2
 239 165 262 128 322 128 c 0
 382 128 405 165 405 242 c 2
 405 696 l 1
 611 696 l 1
EndSplineSet
EndChar

StartChar: uni016B
Encoding: 363 363 262
Width: 564
Flags: W
LayerCount: 2
Fore
SplineSet
441 648 m 1
 116 648 l 1
 116 782 l 1
 441 782 l 1
 441 648 l 1
522 534 m 1
 522 0 l 1
 349 0 l 1
 342 58 l 1
 305 6 251 -20 184 -20 c 0
 80 -20 35 48 35 150 c 2
 35 534 l 1
 233 534 l 1
 233 176 l 2
 233 134 247 124 266 124 c 0
 284 124 306 137 324 168 c 1
 324 534 l 1
 522 534 l 1
EndSplineSet
EndChar

StartChar: uni016E
Encoding: 366 366 263
Width: 644
Flags: W
LayerCount: 2
Fore
SplineSet
322 1012 m 0
 419 1012 476 944 476 866 c 0
 476 788 419 719 322 719 c 0
 225 719 168 788 168 866 c 0
 168 944 225 1012 322 1012 c 0
322 912 m 0
 299 912 282 898 282 866 c 0
 282 834 299 820 322 820 c 0
 345 820 362 834 362 866 c 0
 362 898 345 912 322 912 c 0
611 696 m 1
 611 236 l 2
 611 94 518 -20 322 -20 c 0
 126 -20 33 84 33 236 c 2
 33 696 l 1
 239 696 l 1
 239 242 l 2
 239 165 262 128 322 128 c 0
 382 128 405 165 405 242 c 2
 405 696 l 1
 611 696 l 1
EndSplineSet
EndChar

StartChar: uni016F
Encoding: 367 367 264
Width: 564
Flags: W
LayerCount: 2
Fore
SplineSet
279 886 m 0
 376 886 433 818 433 740 c 0
 433 662 376 593 279 593 c 0
 182 593 125 662 125 740 c 0
 125 818 182 886 279 886 c 0
279 786 m 0
 256 786 239 772 239 740 c 0
 239 708 256 694 279 694 c 0
 302 694 319 708 319 740 c 0
 319 772 302 786 279 786 c 0
522 534 m 1
 522 0 l 1
 349 0 l 1
 342 58 l 1
 305 6 251 -20 184 -20 c 0
 80 -20 35 48 35 150 c 2
 35 534 l 1
 233 534 l 1
 233 176 l 2
 233 134 247 124 266 124 c 0
 284 124 306 137 324 168 c 1
 324 534 l 1
 522 534 l 1
EndSplineSet
EndChar

StartChar: uni0170
Encoding: 368 368 265
Width: 644
Flags: W
LayerCount: 2
Fore
SplineSet
268 976 m 1
 390 912 l 1
 262 745 l 1
 177 789 l 1
 268 976 l 1
451 967 m 1
 569 896 l 1
 432 736 l 1
 350 785 l 1
 451 967 l 1
611 696 m 1
 611 236 l 2
 611 94 518 -20 322 -20 c 0
 126 -20 33 84 33 236 c 2
 33 696 l 1
 239 696 l 1
 239 242 l 2
 239 165 262 128 322 128 c 0
 382 128 405 165 405 242 c 2
 405 696 l 1
 611 696 l 1
EndSplineSet
EndChar

StartChar: uni0171
Encoding: 369 369 266
Width: 564
Flags: W
LayerCount: 2
Fore
SplineSet
241 845 m 1
 363 781 l 1
 235 604 l 1
 150 648 l 1
 241 845 l 1
424 836 m 1
 542 765 l 1
 405 595 l 1
 323 644 l 1
 424 836 l 1
522 534 m 1
 522 0 l 1
 349 0 l 1
 342 58 l 1
 305 6 251 -20 184 -20 c 0
 80 -20 35 48 35 150 c 2
 35 534 l 1
 233 534 l 1
 233 176 l 2
 233 134 247 124 266 124 c 0
 284 124 306 137 324 168 c 1
 324 534 l 1
 522 534 l 1
EndSplineSet
EndChar

StartChar: uni0172
Encoding: 370 370 267
Width: 644
Flags: W
LayerCount: 2
Fore
SplineSet
405 696 m 1
 611 696 l 1
 611 236 l 2
 611 130 559 39 450 0 c 0
 354 -32 335 -71 335 -95 c 0
 335 -125 354 -139 386 -139 c 0
 405 -139 425 -136 447 -131 c 1
 435 -246 l 1
 413 -251 388 -254 361 -254 c 0
 271 -254 201 -208 201 -128 c 0
 201 -77 231 -41 276 -18 c 1
 111 -3 33 96 33 236 c 2
 33 696 l 1
 239 696 l 1
 239 242 l 2
 239 165 262 128 322 128 c 0
 382 128 405 165 405 242 c 2
 405 696 l 1
EndSplineSet
EndChar

StartChar: uni0173
Encoding: 371 371 268
Width: 564
Flags: W
LayerCount: 2
Fore
SplineSet
522 0 m 1
 426 -32 407 -71 407 -95 c 0
 407 -125 426 -139 458 -139 c 0
 477 -139 497 -136 519 -131 c 1
 507 -246 l 1
 485 -251 460 -254 433 -254 c 0
 343 -254 273 -208 273 -128 c 0
 273 -71 302 -29 349 2 c 1
 342 58 l 1
 305 6 251 -20 184 -20 c 0
 80 -20 35 48 35 150 c 2
 35 534 l 1
 233 534 l 1
 233 176 l 2
 233 134 247 124 266 124 c 0
 284 124 306 137 324 168 c 1
 324 534 l 1
 522 534 l 1
 522 0 l 1
EndSplineSet
EndChar

StartChar: uni0178
Encoding: 376 376 269
Width: 620
Flags: W
LayerCount: 2
Fore
SplineSet
185 944 m 0
 239 944 280 903 280 852 c 0
 280 800 239 759 185 759 c 0
 133 759 90 800 90 852 c 0
 90 903 133 944 185 944 c 0
430 944 m 0
 484 944 525 903 525 852 c 0
 525 800 484 759 430 759 c 0
 378 759 335 800 335 852 c 0
 335 903 378 944 430 944 c 0
635 696 m 1
 413 257 l 1
 413 0 l 1
 207 0 l 1
 207 256 l 1
 -15 696 l 1
 210 696 l 1
 313 412 l 1
 417 696 l 1
 635 696 l 1
EndSplineSet
EndChar

StartChar: uni0179
Encoding: 377 377 270
Width: 557
Flags: W
LayerCount: 2
Fore
SplineSet
361 984 m 1
 431 840 l 1
 177 749 l 1
 127 848 l 1
 361 984 l 1
533 696 m 1
 533 543 l 1
 256 161 l 1
 542 161 l 1
 522 0 l 1
 10 0 l 1
 10 151 l 1
 296 540 l 1
 38 540 l 1
 38 696 l 1
 533 696 l 1
EndSplineSet
EndChar

StartChar: uni017A
Encoding: 378 378 271
Width: 467
Flags: W
LayerCount: 2
Fore
SplineSet
309 856 m 1
 383 712 l 1
 132 613 l 1
 79 712 l 1
 309 856 l 1
455 534 m 1
 455 397 l 1
 236 146 l 1
 462 146 l 1
 445 0 l 1
 5 0 l 1
 5 138 l 1
 227 390 l 1
 25 390 l 1
 25 534 l 1
 455 534 l 1
EndSplineSet
EndChar

StartChar: uni017B
Encoding: 379 379 272
Width: 557
Flags: W
LayerCount: 2
Fore
SplineSet
279 955 m 0
 344 955 390 909 390 849 c 0
 390 789 344 743 279 743 c 0
 214 743 168 789 168 849 c 0
 168 909 214 955 279 955 c 0
533 696 m 1
 533 543 l 1
 256 161 l 1
 542 161 l 1
 522 0 l 1
 10 0 l 1
 10 151 l 1
 296 540 l 1
 38 540 l 1
 38 696 l 1
 533 696 l 1
EndSplineSet
EndChar

StartChar: uni017C
Encoding: 380 380 273
Width: 467
Flags: W
LayerCount: 2
Fore
SplineSet
241 829 m 0
 306 829 352 783 352 723 c 0
 352 663 306 617 241 617 c 0
 176 617 130 663 130 723 c 0
 130 783 176 829 241 829 c 0
455 534 m 1
 455 397 l 1
 236 146 l 1
 462 146 l 1
 445 0 l 1
 5 0 l 1
 5 138 l 1
 227 390 l 1
 25 390 l 1
 25 534 l 1
 455 534 l 1
EndSplineSet
EndChar

StartChar: uni017D
Encoding: 381 381 274
Width: 557
Flags: W
LayerCount: 2
Fore
SplineSet
416 965 m 1
 483 888 l 1
 338 747 l 1
 220 747 l 1
 75 888 l 1
 142 965 l 1
 279 879 l 1
 416 965 l 1
533 696 m 1
 533 543 l 1
 256 161 l 1
 542 161 l 1
 522 0 l 1
 10 0 l 1
 10 151 l 1
 296 540 l 1
 38 540 l 1
 38 696 l 1
 533 696 l 1
EndSplineSet
EndChar

StartChar: uni017E
Encoding: 382 382 275
Width: 467
Flags: W
LayerCount: 2
Fore
SplineSet
378 830 m 1
 445 753 l 1
 300 602 l 1
 182 602 l 1
 37 753 l 1
 104 830 l 1
 241 734 l 1
 378 830 l 1
455 534 m 1
 455 397 l 1
 236 146 l 1
 462 146 l 1
 445 0 l 1
 5 0 l 1
 5 138 l 1
 227 390 l 1
 25 390 l 1
 25 534 l 1
 455 534 l 1
EndSplineSet
EndChar

StartChar: uni0192
Encoding: 402 402 276
Width: 390
Flags: W
LayerCount: 2
Fore
SplineSet
338 622 m 0
 286 622 273 605 273 555 c 2
 273 534 l 1
 397 534 l 1
 375 400 l 1
 273 400 l 1
 273 77 l 2
 273 -111 163 -184 31 -227 c 1
 -37 -83 l 1
 30 -52 75 -22 75 65 c 2
 75 400 l 1
 -5 400 l 1
 -5 534 l 1
 75 534 l 1
 75 565 l 2
 75 675 148 764 301 764 c 0
 369 764 431 747 474 727 c 1
 422 602 l 1
 388 617 363 622 338 622 c 0
EndSplineSet
EndChar

StartChar: uni0218
Encoding: 536 536 277
Width: 588
Flags: W
LayerCount: 2
Fore
SplineSet
299 716 m 0
 411 716 493 682 556 621 c 1
 465 514 l 1
 419 551 371 570 316 570 c 0
 266 570 241 551 241 520 c 0
 241 484 267 473 366 441 c 0
 509 395 573 333 573 208 c 0
 573 74 463 -20 280 -20 c 0
 147 -20 57 30 0 85 c 1
 101 196 l 1
 151 153 207 128 272 128 c 0
 332 128 359 155 359 191 c 0
 359 232 337 250 246 278 c 0
 78 331 29 402 29 503 c 0
 29 635 145 716 299 716 c 0
293 -62 m 0
 347 -62 385 -101 385 -153 c 0
 385 -184 375 -206 358 -241 c 2
 308 -342 l 1
 214 -342 l 1
 239 -228 l 1
 217 -211 201 -187 201 -153 c 0
 201 -104 239 -62 293 -62 c 0
EndSplineSet
EndChar

StartChar: uni0219
Encoding: 537 537 278
Width: 488
Flags: W
LayerCount: 2
Fore
SplineSet
256 554 m 0
 335 554 412 527 461 485 c 1
 391 378 l 1
 353 402 307 417 264 417 c 0
 231 417 219 407 219 393 c 0
 219 375 225 367 326 336 c 0
 427 305 483 261 483 164 c 0
 483 54 378 -20 230 -20 c 0
 136 -20 50 13 -5 65 c 1
 89 169 l 1
 127 139 176 116 225 116 c 0
 260 116 281 127 281 149 c 0
 281 175 270 180 178 208 c 0
 78 238 23 295 23 381 c 0
 23 477 106 554 256 554 c 0
246 -62 m 0
 300 -62 338 -101 338 -153 c 0
 338 -184 328 -206 311 -241 c 2
 261 -342 l 1
 167 -342 l 1
 192 -228 l 1
 170 -211 154 -187 154 -153 c 0
 154 -104 192 -62 246 -62 c 0
EndSplineSet
EndChar

StartChar: uni021A
Encoding: 538 538 279
Width: 554
Flags: W
LayerCount: 2
Fore
SplineSet
559 696 m 1
 538 542 l 1
 380 542 l 1
 380 0 l 1
 174 0 l 1
 174 542 l 1
 5 542 l 1
 5 696 l 1
 559 696 l 1
277 -62 m 0
 331 -62 369 -101 369 -153 c 0
 369 -184 359 -206 342 -241 c 2
 292 -342 l 1
 198 -342 l 1
 223 -228 l 1
 201 -211 185 -187 185 -153 c 0
 185 -104 223 -62 277 -62 c 0
EndSplineSet
EndChar

StartChar: uni021B
Encoding: 539 539 280
Width: 401
Flags: W
LayerCount: 2
Fore
SplineSet
416 26 m 1
 372 -5 306 -20 256 -20 c 0
 122 -19 62 56 62 197 c 2
 62 400 l 1
 -2 400 l 1
 -2 534 l 1
 62 534 l 1
 62 646 l 1
 260 669 l 1
 260 534 l 1
 380 534 l 1
 360 400 l 1
 260 400 l 1
 260 199 l 2
 260 149 277 135 302 135 c 0
 317 135 334 139 352 149 c 1
 416 26 l 1
234 -62 m 0
 288 -62 326 -101 326 -153 c 0
 326 -184 316 -206 299 -241 c 2
 249 -342 l 1
 155 -342 l 1
 180 -228 l 1
 158 -211 142 -187 142 -153 c 0
 142 -104 180 -62 234 -62 c 0
EndSplineSet
EndChar

StartChar: uni0237
Encoding: 567 567 281
Width: 282
Flags: W
LayerCount: 2
Fore
SplineSet
240 534 m 1
 240 77 l 2
 240 -111 130 -184 -2 -227 c 1
 -70 -83 l 1
 -3 -52 42 -22 42 65 c 2
 42 534 l 1
 240 534 l 1
EndSplineSet
EndChar

StartChar: uni0300
Encoding: 768 768 282
Width: 0
Flags: W
LayerCount: 2
Fore
SplineSet
-260 856 m 1
 -30 712 l 1
 -83 613 l 1
 -334 712 l 1
 -260 856 l 1
EndSplineSet
EndChar

StartChar: uni0301
Encoding: 769 769 283
Width: 0
Flags: W
LayerCount: 2
Fore
SplineSet
-104 856 m 1
 -30 712 l 1
 -281 613 l 1
 -334 712 l 1
 -104 856 l 1
EndSplineSet
EndChar

StartChar: uni0302
Encoding: 770 770 284
Width: 0
Flags: W
LayerCount: 2
Fore
SplineSet
-371 612 m 1
 -438 689 l 1
 -293 840 l 1
 -175 840 l 1
 -30 689 l 1
 -97 612 l 1
 -234 708 l 1
 -371 612 l 1
EndSplineSet
EndChar

StartChar: uni0303
Encoding: 771 771 285
Width: 0
Flags: W
LayerCount: 2
Fore
SplineSet
-173 622 m 0
 -201 622 -218 628 -239 643 c 0
 -259 657 -269 665 -286 665 c 0
 -311 665 -323 650 -339 622 c 1
 -432 667 l 1
 -406 740 -357 803 -291 803 c 0
 -259 803 -242 795 -221 781 c 0
 -201 767 -190 760 -175 760 c 0
 -151 760 -139 775 -123 803 c 1
 -30 758 l 1
 -56 685 -105 622 -173 622 c 0
EndSplineSet
EndChar

StartChar: uni0304
Encoding: 772 772 286
Width: 0
Flags: W
LayerCount: 2
Fore
SplineSet
-30 648 m 1
 -355 648 l 1
 -355 782 l 1
 -30 782 l 1
 -30 648 l 1
EndSplineSet
EndChar

StartChar: uni0305
Encoding: 773 773 287
Width: 0
Flags: W
LayerCount: 2
Fore
SplineSet
-30 650 m 1
 -509 650 l 1
 -509 744 l 1
 -30 744 l 1
 -30 650 l 1
EndSplineSet
EndChar

StartChar: uni0306
Encoding: 774 774 288
Width: 0
Flags: W
LayerCount: 2
Fore
SplineSet
-215 626 m 0
 -335 626 -392 720 -400 822 c 1
 -297 839 l 1
 -286 792 -260 760 -215 760 c 0
 -170 760 -144 792 -133 839 c 1
 -30 822 l 1
 -38 720 -95 626 -215 626 c 0
EndSplineSet
EndChar

StartChar: uni0307
Encoding: 775 775 289
Width: 0
Flags: W
LayerCount: 2
Fore
SplineSet
-141 829 m 0
 -76 829 -30 783 -30 723 c 0
 -30 663 -76 617 -141 617 c 0
 -206 617 -252 663 -252 723 c 0
 -252 783 -206 829 -141 829 c 0
EndSplineSet
EndChar

StartChar: uni0308
Encoding: 776 776 290
Width: 0
Flags: W
LayerCount: 2
Fore
SplineSet
-370 818 m 0
 -316 818 -275 777 -275 726 c 0
 -275 674 -316 633 -370 633 c 0
 -422 633 -465 674 -465 726 c 0
 -465 777 -422 818 -370 818 c 0
-125 818 m 0
 -71 818 -30 777 -30 726 c 0
 -30 674 -71 633 -125 633 c 0
 -177 633 -220 674 -220 726 c 0
 -220 777 -177 818 -125 818 c 0
EndSplineSet
EndChar

StartChar: uni0309
Encoding: 777 777 291
Width: 0
Flags: W
LayerCount: 2
Fore
SplineSet
-215 601 m 1
 -215 704 l 1
 -164 705 -144 715 -144 739 c 0
 -144 757 -159 767 -181 767 c 0
 -206 767 -222 762 -243 754 c 1
 -272 828 l 1
 -242 846 -205 856 -154 856 c 0
 -66 856 -20 810 -20 748 c 0
 -20 695 -50 661 -106 650 c 1
 -106 601 l 1
 -215 601 l 1
EndSplineSet
EndChar

StartChar: uni030A
Encoding: 778 778 292
Width: 0
Flags: W
LayerCount: 2
Fore
SplineSet
-184 886 m 0
 -87 886 -30 818 -30 740 c 0
 -30 662 -87 593 -184 593 c 0
 -281 593 -338 662 -338 740 c 0
 -338 818 -281 886 -184 886 c 0
-184 786 m 0
 -207 786 -224 772 -224 740 c 0
 -224 708 -207 694 -184 694 c 0
 -161 694 -144 708 -144 740 c 0
 -144 772 -161 786 -184 786 c 0
EndSplineSet
EndChar

StartChar: uni030B
Encoding: 779 779 293
Width: 0
Flags: W
LayerCount: 2
Fore
SplineSet
-331 845 m 1
 -209 781 l 1
 -337 604 l 1
 -422 648 l 1
 -331 845 l 1
-148 836 m 1
 -30 765 l 1
 -167 595 l 1
 -249 644 l 1
 -148 836 l 1
EndSplineSet
EndChar

StartChar: uni030C
Encoding: 780 780 294
Width: 0
Flags: W
LayerCount: 2
Fore
SplineSet
-97 830 m 1
 -30 753 l 1
 -175 602 l 1
 -293 602 l 1
 -438 753 l 1
 -371 830 l 1
 -234 734 l 1
 -97 830 l 1
EndSplineSet
EndChar

StartChar: uni030D
Encoding: 781 781 295
Width: 0
Flags: W
LayerCount: 2
Fore
SplineSet
-200 616 m 1
 -200 896 l 1
 -30 896 l 1
 -30 616 l 1
 -200 616 l 1
EndSplineSet
EndChar

StartChar: uni030F
Encoding: 783 783 296
Width: 0
Flags: W
LayerCount: 2
Fore
SplineSet
-316 877 m 1
 -212 666 l 1
 -308 620 l 1
 -439 816 l 1
 -316 877 l 1
-126 877 m 1
 -30 663 l 1
 -128 624 l 1
 -251 821 l 1
 -126 877 l 1
EndSplineSet
EndChar

StartChar: uni0311
Encoding: 785 785 297
Width: 0
Flags: W
LayerCount: 2
Fore
SplineSet
-215 807 m 0
 -95 807 -38 713 -30 611 c 1
 -133 594 l 1
 -144 641 -170 673 -215 673 c 0
 -260 673 -286 641 -297 594 c 1
 -400 611 l 1
 -392 713 -335 807 -215 807 c 0
EndSplineSet
EndChar

StartChar: uni0312
Encoding: 786 786 298
Width: 0
Flags: W
LayerCount: 2
Fore
SplineSet
-122 573 m 0
 -176 573 -214 612 -214 664 c 0
 -214 695 -204 717 -187 752 c 2
 -137 853 l 1
 -43 853 l 1
 -68 739 l 1
 -46 722 -30 698 -30 664 c 0
 -30 615 -68 573 -122 573 c 0
EndSplineSet
EndChar

StartChar: uni0313
Encoding: 787 787 299
Width: 0
Flags: W
LayerCount: 2
Fore
SplineSet
-122 863 m 0
 -68 863 -30 824 -30 772 c 0
 -30 741 -40 719 -57 684 c 2
 -107 583 l 1
 -201 583 l 1
 -176 697 l 1
 -198 714 -214 738 -214 772 c 0
 -214 821 -176 863 -122 863 c 0
EndSplineSet
EndChar

StartChar: uni0316
Encoding: 790 790 300
Width: 0
Flags: W
LayerCount: 2
Fore
SplineSet
-263 -36 m 1
 -30 -172 l 1
 -80 -271 l 1
 -334 -180 l 1
 -263 -36 l 1
EndSplineSet
EndChar

StartChar: uni0317
Encoding: 791 791 301
Width: 0
Flags: W
LayerCount: 2
Fore
SplineSet
-100 -36 m 1
 -30 -180 l 1
 -284 -271 l 1
 -334 -172 l 1
 -100 -36 l 1
EndSplineSet
EndChar

StartChar: uni0318
Encoding: 792 792 302
Width: 0
Flags: W
LayerCount: 2
Fore
SplineSet
-144 -55 m 1
 -30 -55 l 1
 -30 -355 l 1
 -144 -355 l 1
 -144 -257 l 1
 -254 -257 l 1
 -254 -154 l 1
 -144 -154 l 1
 -144 -55 l 1
EndSplineSet
EndChar

StartChar: uni0319
Encoding: 793 793 303
Width: 0
Flags: W
LayerCount: 2
Fore
SplineSet
-140 -55 m 1
 -140 -154 l 1
 -30 -154 l 1
 -30 -257 l 1
 -140 -257 l 1
 -140 -355 l 1
 -254 -355 l 1
 -254 -55 l 1
 -140 -55 l 1
EndSplineSet
EndChar

StartChar: uni031A
Encoding: 794 794 304
Width: 0
Flags: W
LayerCount: 2
Fore
SplineSet
-257 815 m 1
 -30 815 l 1
 -30 596 l 1
 -143 596 l 1
 -143 715 l 1
 -257 715 l 1
 -257 815 l 1
EndSplineSet
EndChar

StartChar: uni031B
Encoding: 795 795 305
Width: 0
Flags: W
LayerCount: 2
Fore
SplineSet
-194 381 m 1
 -204 471 l 1
 -169 474 -157 492 -157 531 c 0
 -157 558 -162 576 -169 596 c 1
 -49 611 l 1
 -40 592 -30 565 -30 519 c 0
 -30 426 -94 381 -194 381 c 1
EndSplineSet
EndChar

StartChar: uni031C
Encoding: 796 796 306
Width: 0
Flags: W
LayerCount: 2
Fore
SplineSet
-30 -337 m 1
 -30 -236 l 1
 -53 -236 -70 -222 -70 -190 c 0
 -70 -158 -56 -144 -30 -144 c 1
 -30 -44 l 1
 -127 -44 -184 -112 -184 -190 c 0
 -184 -268 -127 -337 -30 -337 c 1
EndSplineSet
EndChar

StartChar: uni031D
Encoding: 797 797 307
Width: 0
Flags: W
LayerCount: 2
Fore
SplineSet
-30 -225 m 1
 -30 -329 l 1
 -370 -329 l 1
 -370 -225 l 1
 -262 -225 l 1
 -262 -85 l 1
 -139 -85 l 1
 -139 -225 l 1
 -30 -225 l 1
EndSplineSet
EndChar

StartChar: uni031E
Encoding: 798 798 308
Width: 0
Flags: W
LayerCount: 2
Fore
SplineSet
-30 -189 m 1
 -139 -189 l 1
 -139 -329 l 1
 -262 -329 l 1
 -262 -189 l 1
 -370 -189 l 1
 -370 -85 l 1
 -30 -85 l 1
 -30 -189 l 1
EndSplineSet
EndChar

StartChar: uni031F
Encoding: 799 799 309
Width: 0
Flags: W
LayerCount: 2
Fore
SplineSet
-122 -76 m 1
 -122 -162 l 1
 -30 -162 l 1
 -30 -263 l 1
 -122 -263 l 1
 -122 -349 l 1
 -242 -349 l 1
 -242 -263 l 1
 -334 -263 l 1
 -334 -162 l 1
 -242 -162 l 1
 -242 -76 l 1
 -122 -76 l 1
EndSplineSet
EndChar

StartChar: uni0320
Encoding: 800 800 310
Width: 0
Flags: W
LayerCount: 2
Fore
SplineSet
-334 -263 m 1
 -334 -162 l 1
 -30 -162 l 1
 -30 -263 l 1
 -334 -263 l 1
EndSplineSet
EndChar

StartChar: uni0321
Encoding: 801 801 311
Width: 0
Flags: W
LayerCount: 2
Fore
SplineSet
-254 -227 m 0
 -327 -227 -376 -208 -412 -182 c 1
 -348 -69 l 1
 -324 -80 -308 -87 -280 -87 c 0
 -247 -87 -228 -69 -228 -34 c 2
 -228 1 l 1
 -30 1 l 1
 -30 -16 l 2
 -30 -157 -121 -227 -254 -227 c 0
EndSplineSet
EndChar

StartChar: uni0323
Encoding: 803 803 312
Width: 0
Flags: W
LayerCount: 2
Fore
SplineSet
-141 -264 m 0
 -206 -264 -252 -218 -252 -158 c 0
 -252 -98 -206 -52 -141 -52 c 0
 -76 -52 -30 -98 -30 -158 c 0
 -30 -218 -76 -264 -141 -264 c 0
EndSplineSet
EndChar

StartChar: uni0324
Encoding: 804 804 313
Width: 0
Flags: W
LayerCount: 2
Fore
SplineSet
-370 -64 m 0
 -316 -64 -275 -105 -275 -156 c 0
 -275 -208 -316 -249 -370 -249 c 0
 -422 -249 -465 -208 -465 -156 c 0
 -465 -105 -422 -64 -370 -64 c 0
-125 -64 m 0
 -71 -64 -30 -105 -30 -156 c 0
 -30 -208 -71 -249 -125 -249 c 0
 -177 -249 -220 -208 -220 -156 c 0
 -220 -105 -177 -64 -125 -64 c 0
EndSplineSet
EndChar

StartChar: uni0325
Encoding: 805 805 314
Width: 0
Flags: W
LayerCount: 2
Fore
SplineSet
-184 -44 m 0
 -87 -44 -30 -112 -30 -190 c 0
 -30 -268 -87 -337 -184 -337 c 0
 -281 -337 -338 -268 -338 -190 c 0
 -338 -112 -281 -44 -184 -44 c 0
-184 -144 m 0
 -207 -144 -224 -158 -224 -190 c 0
 -224 -222 -207 -236 -184 -236 c 0
 -161 -236 -144 -222 -144 -190 c 0
 -144 -158 -161 -144 -184 -144 c 0
EndSplineSet
EndChar

StartChar: uni0326
Encoding: 806 806 315
Width: 0
Flags: W
LayerCount: 2
Fore
SplineSet
-122 -62 m 0
 -68 -62 -30 -101 -30 -153 c 0
 -30 -184 -40 -206 -57 -241 c 2
 -107 -342 l 1
 -201 -342 l 1
 -176 -228 l 1
 -198 -211 -214 -187 -214 -153 c 0
 -214 -104 -176 -62 -122 -62 c 0
EndSplineSet
EndChar

StartChar: uni0327
Encoding: 807 807 316
Width: 0
Flags: W
LayerCount: 2
Fore
SplineSet
-140 16 m 1
 -140 -43 l 1
 -67 -52 -30 -89 -30 -151 c 0
 -30 -220 -89 -275 -194 -275 c 0
 -246 -275 -291 -259 -319 -241 c 1
 -276 -155 l 1
 -256 -166 -236 -173 -212 -173 c 0
 -184 -173 -167 -167 -167 -149 c 0
 -167 -127 -196 -120 -261 -120 c 1
 -244 16 l 1
 -140 16 l 1
EndSplineSet
EndChar

StartChar: uni0328
Encoding: 808 808 317
Width: 0
Flags: W
LayerCount: 2
Fore
SplineSet
-61 61 m 1
 -30 0 l 1
 -126 -32 -145 -71 -145 -95 c 0
 -145 -125 -126 -139 -94 -139 c 0
 -75 -139 -55 -136 -33 -131 c 1
 -45 -246 l 1
 -67 -251 -92 -254 -119 -254 c 0
 -209 -254 -279 -208 -279 -128 c 0
 -279 -24 -182 29 -61 61 c 1
EndSplineSet
EndChar

StartChar: uni0329
Encoding: 809 809 318
Width: 0
Flags: W
LayerCount: 2
Fore
SplineSet
-200 -344 m 1
 -200 -64 l 1
 -30 -64 l 1
 -30 -344 l 1
 -200 -344 l 1
EndSplineSet
EndChar

StartChar: uni032A
Encoding: 810 810 319
Width: 0
Flags: W
LayerCount: 2
Fore
SplineSet
-350 -259 m 1
 -350 -85 l 1
 -30 -85 l 1
 -30 -259 l 1
 -143 -259 l 1
 -143 -179 l 1
 -237 -179 l 1
 -237 -259 l 1
 -350 -259 l 1
EndSplineSet
EndChar

StartChar: uni032B
Encoding: 811 811 320
Width: 0
Flags: W
LayerCount: 2
Fore
SplineSet
-108 -51 m 1
 -30 -61 l 1
 -35 -160 -73 -244 -153 -244 c 0
 -201 -244 -233 -214 -253 -167 c 1
 -273 -214 -305 -244 -353 -244 c 0
 -433 -244 -471 -160 -476 -61 c 1
 -398 -51 l 1
 -390 -98 -378 -120 -348 -120 c 0
 -318 -120 -306 -98 -298 -51 c 1
 -208 -51 l 1
 -200 -98 -188 -120 -158 -120 c 0
 -128 -120 -116 -98 -108 -51 c 1
EndSplineSet
EndChar

StartChar: uni032C
Encoding: 812 812 321
Width: 0
Flags: W
LayerCount: 2
Fore
SplineSet
-97 -55 m 1
 -30 -132 l 1
 -175 -273 l 1
 -293 -273 l 1
 -438 -132 l 1
 -371 -55 l 1
 -234 -141 l 1
 -97 -55 l 1
EndSplineSet
EndChar

StartChar: uni032D
Encoding: 813 813 322
Width: 0
Flags: W
LayerCount: 2
Fore
SplineSet
-371 -288 m 1
 -438 -211 l 1
 -293 -60 l 1
 -175 -60 l 1
 -30 -211 l 1
 -97 -288 l 1
 -234 -192 l 1
 -371 -288 l 1
EndSplineSet
EndChar

StartChar: uni032F
Encoding: 815 815 323
Width: 0
Flags: W
LayerCount: 2
Fore
SplineSet
-215 -43 m 0
 -95 -43 -38 -137 -30 -239 c 1
 -133 -256 l 1
 -144 -209 -170 -177 -215 -177 c 0
 -260 -177 -286 -209 -297 -256 c 1
 -400 -239 l 1
 -392 -137 -335 -43 -215 -43 c 0
EndSplineSet
EndChar

StartChar: uni0330
Encoding: 816 816 324
Width: 0
Flags: W
LayerCount: 2
Fore
SplineSet
-173 -228 m 0
 -201 -228 -218 -222 -239 -207 c 0
 -259 -193 -269 -185 -286 -185 c 0
 -311 -185 -323 -200 -339 -228 c 1
 -432 -183 l 1
 -406 -110 -357 -47 -291 -47 c 0
 -259 -47 -242 -55 -221 -69 c 0
 -201 -83 -190 -90 -175 -90 c 0
 -151 -90 -139 -75 -123 -47 c 1
 -30 -92 l 1
 -56 -165 -105 -228 -173 -228 c 0
EndSplineSet
EndChar

StartChar: uni0331
Encoding: 817 817 325
Width: 0
Flags: W
LayerCount: 2
Fore
SplineSet
-30 -202 m 1
 -355 -202 l 1
 -355 -68 l 1
 -30 -68 l 1
 -30 -202 l 1
EndSplineSet
EndChar

StartChar: uni0332
Encoding: 818 818 326
Width: 0
Flags: W
LayerCount: 2
Fore
SplineSet
-30 -202 m 1
 -518 -202 l 1
 -518 -68 l 1
 -30 -68 l 1
 -30 -202 l 1
EndSplineSet
EndChar

StartChar: uni0334
Encoding: 820 820 327
Width: 0
Flags: W
LayerCount: 2
Fore
SplineSet
-205 221 m 0
 -302 221 -329 281 -382 281 c 0
 -419 281 -431 257 -450 231 c 1
 -550 281 l 1
 -514 355 -465 426 -375 426 c 0
 -278 426 -251 366 -198 366 c 0
 -161 366 -149 390 -129 414 c 1
 -30 366 l 1
 -66 292 -115 221 -205 221 c 0
EndSplineSet
EndChar

StartChar: uni0335
Encoding: 821 821 328
Width: 0
Flags: W
LayerCount: 2
Fore
SplineSet
-375 238 m 1
 -375 388 l 1
 -35 388 l 1
 -35 238 l 1
 -375 238 l 1
EndSplineSet
EndChar

StartChar: uni0336
Encoding: 822 822 329
Width: 0
Flags: W
LayerCount: 2
Fore
SplineSet
-800 238 m 1
 -800 388 l 1
 -30 388 l 1
 -30 238 l 1
 -800 238 l 1
EndSplineSet
EndChar

StartChar: uni0339
Encoding: 825 825 330
Width: 0
Flags: W
LayerCount: 2
Fore
SplineSet
-184 -336 m 1
 -87 -336 -30 -267 -30 -189 c 0
 -30 -111 -87 -43 -184 -43 c 1
 -184 -143 l 1
 -158 -143 -144 -157 -144 -189 c 0
 -144 -221 -161 -235 -184 -235 c 1
 -184 -336 l 1
EndSplineSet
EndChar

StartChar: uni033A
Encoding: 826 826 331
Width: 0
Flags: W
LayerCount: 2
Fore
SplineSet
-350 -84 m 1
 -237 -84 l 1
 -237 -164 l 1
 -143 -164 l 1
 -143 -84 l 1
 -30 -84 l 1
 -30 -258 l 1
 -350 -258 l 1
 -350 -84 l 1
EndSplineSet
EndChar

StartChar: uni033B
Encoding: 827 827 332
Width: 0
Flags: W
LayerCount: 2
Fore
SplineSet
-350 -258 m 1
 -350 -58 l 1
 -30 -58 l 1
 -30 -258 l 1
 -350 -258 l 1
-265 -189 m 1
 -115 -189 l 1
 -115 -127 l 1
 -265 -127 l 1
 -265 -189 l 1
EndSplineSet
EndChar

StartChar: uni033C
Encoding: 828 828 333
Width: 0
Flags: W
LayerCount: 2
Fore
SplineSet
-153 -53 m 0
 -73 -53 -35 -137 -30 -236 c 1
 -108 -246 l 1
 -116 -199 -128 -177 -158 -177 c 0
 -188 -177 -200 -199 -208 -246 c 1
 -298 -246 l 1
 -306 -199 -318 -177 -348 -177 c 0
 -378 -177 -390 -199 -398 -246 c 1
 -476 -236 l 1
 -471 -137 -433 -53 -353 -53 c 0
 -305 -53 -273 -83 -253 -130 c 1
 -233 -83 -201 -53 -153 -53 c 0
EndSplineSet
EndChar

StartChar: uni033D
Encoding: 829 829 334
Width: 0
Flags: W
LayerCount: 2
Fore
SplineSet
-124 728 m 1
 -30 600 l 1
 -122 600 l 1
 -176 687 l 1
 -230 600 l 1
 -318 600 l 1
 -224 726 l 1
 -308 838 l 1
 -217 838 l 1
 -173 765 l 1
 -130 838 l 1
 -44 838 l 1
 -124 728 l 1
EndSplineSet
EndChar

StartChar: uni0342
Encoding: 834 834 335
Width: 0
Flags: W
LayerCount: 2
Fore
SplineSet
-173 622 m 0
 -201 622 -218 628 -239 643 c 0
 -259 657 -269 665 -286 665 c 0
 -311 665 -323 650 -339 622 c 1
 -432 667 l 1
 -406 740 -357 803 -291 803 c 0
 -259 803 -242 795 -221 781 c 0
 -201 767 -190 760 -175 760 c 0
 -151 760 -139 775 -123 803 c 1
 -30 758 l 1
 -56 685 -105 622 -173 622 c 0
EndSplineSet
EndChar

StartChar: uni0345
Encoding: 837 837 336
Width: 0
Flags: W
LayerCount: 2
Fore
SplineSet
-150 -212 m 0
 -245 -212 -294 -152 -294 -71 c 2
 -294 -44 l 1
 -161 -44 l 1
 -161 -67 l 2
 -161 -92 -149 -107 -123 -107 c 0
 -106 -107 -92 -102 -75 -93 c 1
 -30 -173 l 1
 -59 -196 -95 -212 -150 -212 c 0
EndSplineSet
EndChar

StartChar: uni035C
Encoding: 860 860 337
Width: 0
Flags: W
LayerCount: 2
Fore
SplineSet
344 -109 m 1
 262 -171 159 -232 -1 -232 c 0
 -161 -232 -264 -171 -346 -109 c 1
 -290 -27 l 1
 -222 -56 -123 -89 -1 -89 c 0
 120 -89 219 -56 287 -27 c 1
 344 -109 l 1
EndSplineSet
EndChar

StartChar: uni0361
Encoding: 865 865 338
Width: 0
Flags: W
LayerCount: 2
Fore
SplineSet
344 701 m 1
 287 619 l 1
 219 648 120 681 -1 681 c 0
 -123 681 -222 648 -290 619 c 1
 -346 701 l 1
 -264 763 -161 824 -1 824 c 0
 159 824 262 763 344 701 c 1
EndSplineSet
EndChar

StartChar: uni037E
Encoding: 894 894 339
Width: 240
Flags: W
LayerCount: 2
Fore
SplineSet
120 518 m 0
 177 518 223 471 223 415 c 0
 223 359 177 312 120 312 c 0
 63 312 17 359 17 415 c 0
 17 471 63 518 120 518 c 0
120 186 m 0
 179 186 223 142 223 83 c 0
 223 48 210 17 183 -44 c 2
 121 -184 l 1
 19 -184 l 1
 63 -1 l 1
 33 18 17 48 17 84 c 0
 17 142 61 186 120 186 c 0
EndSplineSet
EndChar

StartChar: uni0384
Encoding: 900 900 340
Width: 247
Flags: W
LayerCount: 2
Fore
SplineSet
30 853 m 1
 217 839 l 1
 165 596 l 1
 43 596 l 1
 30 853 l 1
EndSplineSet
EndChar

StartChar: uni0385
Encoding: 901 901 341
Width: 545
Flags: W
LayerCount: 2
Fore
SplineSet
207 969 m 1
 368 957 l 1
 323 748 l 1
 218 748 l 1
 207 969 l 1
125 772 m 0
 177 772 220 731 220 680 c 0
 220 628 177 587 125 587 c 0
 71 587 30 628 30 680 c 0
 30 731 71 772 125 772 c 0
420 772 m 0
 472 772 515 731 515 680 c 0
 515 628 472 587 420 587 c 0
 366 587 325 628 325 680 c 0
 325 731 366 772 420 772 c 0
EndSplineSet
EndChar

StartChar: uni0386
Encoding: 902 902 342
Width: 748
Flags: W
LayerCount: 2
Fore
SplineSet
82 710 m 1
 269 696 l 1
 217 453 l 1
 95 453 l 1
 82 710 l 1
555 0 m 1
 528 135 l 1
 363 135 l 1
 337 0 l 1
 122 0 l 1
 325 696 l 1
 571 696 l 1
 773 0 l 1
 555 0 l 1
392 279 m 1
 499 279 l 1
 445 552 l 1
 392 279 l 1
EndSplineSet
EndChar

StartChar: uni0387
Encoding: 903 903 343
Width: 240
Flags: W
LayerCount: 2
Fore
SplineSet
120 409 m 0
 177 409 223 362 223 306 c 0
 223 250 177 203 120 203 c 0
 63 203 17 250 17 306 c 0
 17 362 63 409 120 409 c 0
EndSplineSet
EndChar

StartChar: uni0388
Encoding: 904 904 344
Width: 774
Flags: W
LayerCount: 2
Fore
SplineSet
82 710 m 1
 269 696 l 1
 217 453 l 1
 95 453 l 1
 82 710 l 1
754 696 m 1
 733 553 l 1
 503 553 l 1
 503 423 l 1
 705 423 l 1
 705 284 l 1
 503 284 l 1
 503 144 l 1
 749 144 l 1
 749 0 l 1
 297 0 l 1
 297 696 l 1
 754 696 l 1
EndSplineSet
EndChar

StartChar: uni0389
Encoding: 905 905 345
Width: 911
Flags: W
LayerCount: 2
Fore
SplineSet
82 710 m 1
 269 696 l 1
 217 453 l 1
 95 453 l 1
 82 710 l 1
662 0 m 1
 662 281 l 1
 503 281 l 1
 503 0 l 1
 297 0 l 1
 297 696 l 1
 503 696 l 1
 503 439 l 1
 662 439 l 1
 662 696 l 1
 868 696 l 1
 868 0 l 1
 662 0 l 1
EndSplineSet
EndChar

StartChar: uni038A
Encoding: 906 906 346
Width: 546
Flags: W
LayerCount: 2
Fore
SplineSet
82 710 m 1
 269 696 l 1
 217 453 l 1
 95 453 l 1
 82 710 l 1
503 696 m 1
 503 0 l 1
 297 0 l 1
 297 696 l 1
 503 696 l 1
EndSplineSet
EndChar

StartChar: uni038C
Encoding: 908 908 347
Width: 884
Flags: W
LayerCount: 2
Fore
SplineSet
539 716 m 0
 748 716 864 580 864 349 c 0
 864 123 748 -20 539 -20 c 0
 330 -20 214 118 214 349 c 0
 214 575 330 716 539 716 c 0
72 710 m 1
 259 696 l 1
 207 453 l 1
 85 453 l 1
 72 710 l 1
539 570 m 0
 461 570 428 510 428 349 c 0
 428 188 461 126 539 126 c 0
 619 126 650 188 650 349 c 0
 650 510 617 570 539 570 c 0
EndSplineSet
EndChar

StartChar: uni038E
Encoding: 910 910 348
Width: 917
Flags: W
LayerCount: 2
Fore
SplineSet
82 710 m 1
 269 696 l 1
 217 453 l 1
 95 453 l 1
 82 710 l 1
932 696 m 1
 710 257 l 1
 710 0 l 1
 504 0 l 1
 504 256 l 1
 282 696 l 1
 507 696 l 1
 610 412 l 1
 714 696 l 1
 932 696 l 1
EndSplineSet
EndChar

StartChar: uni038F
Encoding: 911 911 349
Width: 913
Flags: W
LayerCount: 2
Fore
SplineSet
568 716 m 0
 777 716 893 566 893 392 c 0
 893 277 842 191 757 142 c 1
 872 142 l 1
 872 0 l 1
 596 0 l 1
 596 132 l 1
 677 172 679 246 679 392 c 0
 679 505 646 570 568 570 c 0
 490 570 457 505 457 392 c 0
 457 246 459 174 540 132 c 1
 540 0 l 1
 264 0 l 1
 264 142 l 1
 379 142 l 1
 294 191 243 277 243 392 c 0
 243 566 359 716 568 716 c 0
72 710 m 1
 259 696 l 1
 207 453 l 1
 85 453 l 1
 72 710 l 1
EndSplineSet
EndChar

StartChar: uni0390
Encoding: 912 912 350
Width: 279
Flags: W
LayerCount: 2
Fore
SplineSet
68 969 m 1
 229 957 l 1
 184 748 l 1
 79 748 l 1
 68 969 l 1
-14 772 m 0
 38 772 81 731 81 680 c 0
 81 628 38 587 -14 587 c 0
 -68 587 -109 628 -109 680 c 0
 -109 731 -68 772 -14 772 c 0
281 772 m 0
 333 772 376 731 376 680 c 0
 376 628 333 587 281 587 c 0
 227 587 186 628 186 680 c 0
 186 731 227 772 281 772 c 0
233 534 m 1
 233 202 l 2
 233 157 243 137 274 121 c 1
 218 -20 l 1
 104 -4 35 52 35 176 c 2
 35 534 l 1
 233 534 l 1
EndSplineSet
EndChar

StartChar: uni0391
Encoding: 913 913 351
Width: 601
Flags: W
LayerCount: 2
Fore
SplineSet
408 0 m 1
 381 135 l 1
 216 135 l 1
 190 0 l 1
 -25 0 l 1
 178 696 l 1
 424 696 l 1
 626 0 l 1
 408 0 l 1
245 279 m 1
 352 279 l 1
 298 552 l 1
 245 279 l 1
EndSplineSet
EndChar

StartChar: uni0392
Encoding: 914 914 352
Width: 622
Flags: W
LayerCount: 2
Fore
SplineSet
452 369 m 1
 528 353 607 315 607 206 c 0
 607 41 470 0 287 0 c 2
 43 0 l 1
 43 696 l 1
 260 696 l 2
 455 696 578 652 578 516 c 0
 578 426 514 385 452 369 c 1
279 555 m 2
 249 555 l 1
 249 427 l 1
 284 427 l 2
 347 427 369 446 369 495 c 0
 369 536 345 555 279 555 c 2
289 145 m 2
 352 145 395 158 395 220 c 0
 395 274 361 297 297 297 c 2
 249 297 l 1
 249 145 l 1
 289 145 l 2
EndSplineSet
EndChar

StartChar: uni0393
Encoding: 915 915 353
Width: 511
Flags: W
LayerCount: 2
Fore
SplineSet
516 696 m 1
 496 538 l 1
 249 538 l 1
 249 0 l 1
 43 0 l 1
 43 696 l 1
 516 696 l 1
EndSplineSet
EndChar

StartChar: uni0394
Encoding: 916 916 354
Width: 609
Flags: W
LayerCount: 2
Fore
SplineSet
428 696 m 1
 634 0 l 1
 -25 0 l 1
 182 696 l 1
 428 696 l 1
303 549 m 1
 220 146 l 1
 385 146 l 1
 303 549 l 1
EndSplineSet
EndChar

StartChar: uni0395
Encoding: 917 917 355
Width: 520
Flags: W
LayerCount: 2
Fore
SplineSet
500 696 m 1
 479 553 l 1
 249 553 l 1
 249 423 l 1
 451 423 l 1
 451 284 l 1
 249 284 l 1
 249 144 l 1
 495 144 l 1
 495 0 l 1
 43 0 l 1
 43 696 l 1
 500 696 l 1
EndSplineSet
EndChar

StartChar: uni0396
Encoding: 918 918 356
Width: 557
Flags: W
LayerCount: 2
Fore
SplineSet
533 696 m 1
 533 543 l 1
 256 161 l 1
 542 161 l 1
 522 0 l 1
 10 0 l 1
 10 151 l 1
 296 540 l 1
 38 540 l 1
 38 696 l 1
 533 696 l 1
EndSplineSet
EndChar

StartChar: uni0397
Encoding: 919 919 357
Width: 657
Flags: W
LayerCount: 2
Fore
SplineSet
408 0 m 1
 408 281 l 1
 249 281 l 1
 249 0 l 1
 43 0 l 1
 43 696 l 1
 249 696 l 1
 249 439 l 1
 408 439 l 1
 408 696 l 1
 614 696 l 1
 614 0 l 1
 408 0 l 1
EndSplineSet
EndChar

StartChar: uni0398
Encoding: 920 920 358
Width: 690
Flags: W
LayerCount: 2
Fore
SplineSet
345 716 m 0
 554 716 670 580 670 349 c 0
 670 123 554 -20 345 -20 c 0
 136 -20 20 118 20 349 c 0
 20 575 136 716 345 716 c 0
345 570 m 0
 257 570 220 510 220 349 c 0
 220 188 257 126 345 126 c 0
 435 126 470 188 470 349 c 0
 470 510 433 570 345 570 c 0
435 405 m 1
 435 299 l 1
 255 299 l 1
 255 405 l 1
 435 405 l 1
EndSplineSet
EndChar

StartChar: uni0399
Encoding: 921 921 359
Width: 292
Flags: W
LayerCount: 2
Fore
SplineSet
249 696 m 1
 249 0 l 1
 43 0 l 1
 43 696 l 1
 249 696 l 1
EndSplineSet
EndChar

StartChar: uni039A
Encoding: 922 922 360
Width: 659
Flags: W
LayerCount: 2
Fore
SplineSet
249 696 m 1
 249 0 l 1
 43 0 l 1
 43 696 l 1
 249 696 l 1
661 696 m 1
 464 387 l 1
 679 0 l 1
 445 0 l 1
 255 371 l 1
 449 696 l 1
 661 696 l 1
EndSplineSet
EndChar

StartChar: uni039B
Encoding: 923 923 361
Width: 601
Flags: W
LayerCount: 2
Fore
SplineSet
424 696 m 1
 626 0 l 1
 408 0 l 1
 299 552 l 1
 190 0 l 1
 -25 0 l 1
 178 696 l 1
 424 696 l 1
EndSplineSet
EndChar

StartChar: uni039C
Encoding: 924 924 362
Width: 791
Flags: W
LayerCount: 2
Fore
SplineSet
726 696 m 1
 776 0 l 1
 573 0 l 1
 568 247 l 2
 566 337 566 427 575 531 c 1
 493 70 l 1
 298 70 l 1
 210 531 l 1
 221 416 225 342 223 248 c 2
 218 0 l 1
 15 0 l 1
 65 696 l 1
 319 696 l 1
 399 245 l 1
 471 696 l 1
 726 696 l 1
EndSplineSet
EndChar

StartChar: uni039D
Encoding: 925 925 363
Width: 651
Flags: W
LayerCount: 2
Fore
SplineSet
608 696 m 1
 608 0 l 1
 350 0 l 1
 198 508 l 1
 208 441 225 345 225 216 c 2
 225 0 l 1
 43 0 l 1
 43 696 l 1
 296 696 l 1
 454 186 l 1
 441 267 426 347 426 473 c 2
 426 696 l 1
 608 696 l 1
EndSplineSet
EndChar

StartChar: uni039E
Encoding: 926 926 364
Width: 532
Flags: W
LayerCount: 2
Fore
SplineSet
517 696 m 1
 494 528 l 1
 20 528 l 1
 20 696 l 1
 517 696 l 1
446 431 m 1
 446 276 l 1
 86 276 l 1
 86 431 l 1
 446 431 l 1
512 174 m 1
 512 0 l 1
 20 0 l 1
 20 174 l 1
 512 174 l 1
EndSplineSet
EndChar

StartChar: uni039F
Encoding: 927 927 365
Width: 690
Flags: W
LayerCount: 2
Fore
SplineSet
345 716 m 0
 554 716 670 580 670 349 c 0
 670 123 554 -20 345 -20 c 0
 136 -20 20 118 20 349 c 0
 20 575 136 716 345 716 c 0
345 570 m 0
 267 570 234 510 234 349 c 0
 234 188 267 126 345 126 c 0
 425 126 456 188 456 349 c 0
 456 510 423 570 345 570 c 0
EndSplineSet
EndChar

StartChar: uni03A0
Encoding: 928 928 366
Width: 657
Flags: W
LayerCount: 2
Fore
SplineSet
614 696 m 1
 614 0 l 1
 408 0 l 1
 408 542 l 1
 249 542 l 1
 249 0 l 1
 43 0 l 1
 43 696 l 1
 614 696 l 1
EndSplineSet
EndChar

StartChar: uni03A1
Encoding: 929 929 367
Width: 611
Flags: W
LayerCount: 2
Fore
SplineSet
294 696 m 2
 481 696 596 618 596 462 c 0
 596 299 482 217 317 217 c 2
 249 217 l 1
 249 0 l 1
 43 0 l 1
 43 696 l 1
 294 696 l 2
297 362 m 2
 355 362 386 394 386 462 c 0
 386 519 359 553 291 553 c 2
 249 553 l 1
 249 362 l 1
 297 362 l 2
EndSplineSet
EndChar

StartChar: uni03A3
Encoding: 931 931 368
Width: 503
Flags: W
LayerCount: 2
Fore
SplineSet
493 696 m 1
 493 551 l 1
 236 551 l 1
 384 376 l 1
 384 308 l 1
 233 148 l 1
 493 148 l 1
 493 0 l 1
 10 0 l 1
 10 144 l 1
 184 340 l 1
 10 552 l 1
 10 696 l 1
 493 696 l 1
EndSplineSet
EndChar

StartChar: uni03A4
Encoding: 932 932 369
Width: 554
Flags: W
LayerCount: 2
Fore
SplineSet
559 696 m 1
 538 542 l 1
 380 542 l 1
 380 0 l 1
 174 0 l 1
 174 542 l 1
 5 542 l 1
 5 696 l 1
 559 696 l 1
EndSplineSet
EndChar

StartChar: uni03A5
Encoding: 933 933 370
Width: 620
Flags: W
LayerCount: 2
Fore
SplineSet
635 696 m 1
 413 257 l 1
 413 0 l 1
 207 0 l 1
 207 256 l 1
 -15 696 l 1
 210 696 l 1
 313 412 l 1
 417 696 l 1
 635 696 l 1
EndSplineSet
EndChar

StartChar: uni03A6
Encoding: 934 934 371
Width: 863
Flags: W
LayerCount: 2
Fore
SplineSet
858 351 m 0
 858 179 723 90 531 80 c 1
 531 0 l 1
 331 0 l 1
 331 80 l 1
 143 90 5 174 5 345 c 0
 5 515 139 604 331 615 c 1
 331 696 l 1
 531 696 l 1
 531 615 l 1
 720 605 858 522 858 351 c 0
521 195 m 1
 617 205 650 273 650 351 c 0
 650 432 613 491 521 501 c 1
 521 195 l 1
213 345 m 0
 213 263 250 205 341 194 c 1
 341 500 l 1
 246 490 213 427 213 345 c 0
EndSplineSet
EndChar

StartChar: uni03A7
Encoding: 935 935 372
Width: 606
Flags: W
LayerCount: 2
Fore
SplineSet
422 375 m 1
 616 0 l 1
 394 0 l 1
 298 239 l 1
 208 0 l 1
 -10 0 l 1
 176 369 l 1
 3 696 l 1
 224 696 l 1
 300 496 l 1
 385 696 l 1
 602 696 l 1
 422 375 l 1
EndSplineSet
EndChar

StartChar: uni03A8
Encoding: 936 936 373
Width: 748
Flags: W
LayerCount: 2
Fore
SplineSet
542 696 m 1
 738 696 l 1
 738 431 l 2
 738 300 653 203 477 177 c 1
 477 0 l 1
 271 0 l 1
 271 176 l 1
 95 201 10 292 10 431 c 2
 10 696 l 1
 206 696 l 1
 206 422 l 2
 206 365 225 329 281 312 c 1
 281 696 l 1
 467 696 l 1
 467 313 l 1
 522 330 542 367 542 422 c 2
 542 696 l 1
EndSplineSet
EndChar

StartChar: uni03A9
Encoding: 937 937 374
Width: 690
Flags: W
LayerCount: 2
Fore
SplineSet
345 716 m 0
 554 716 670 566 670 392 c 0
 670 277 619 191 534 142 c 1
 649 142 l 1
 649 0 l 1
 373 0 l 1
 373 132 l 1
 454 172 456 246 456 392 c 0
 456 505 423 570 345 570 c 0
 267 570 234 505 234 392 c 0
 234 246 236 174 317 132 c 1
 317 0 l 1
 41 0 l 1
 41 142 l 1
 156 142 l 1
 71 191 20 277 20 392 c 0
 20 566 136 716 345 716 c 0
EndSplineSet
EndChar

StartChar: uni03AA
Encoding: 938 938 375
Width: 292
Flags: W
LayerCount: 2
Fore
SplineSet
21 944 m 0
 75 944 116 903 116 852 c 0
 116 800 75 759 21 759 c 0
 -31 759 -74 800 -74 852 c 0
 -74 903 -31 944 21 944 c 0
266 944 m 0
 320 944 361 903 361 852 c 0
 361 800 320 759 266 759 c 0
 214 759 171 800 171 852 c 0
 171 903 214 944 266 944 c 0
249 696 m 1
 249 0 l 1
 43 0 l 1
 43 696 l 1
 249 696 l 1
EndSplineSet
EndChar

StartChar: uni03AB
Encoding: 939 939 376
Width: 620
Flags: W
LayerCount: 2
Fore
SplineSet
185 944 m 0
 239 944 280 903 280 852 c 0
 280 800 239 759 185 759 c 0
 133 759 90 800 90 852 c 0
 90 903 133 944 185 944 c 0
430 944 m 0
 484 944 525 903 525 852 c 0
 525 800 484 759 430 759 c 0
 378 759 335 800 335 852 c 0
 335 903 378 944 430 944 c 0
635 696 m 1
 413 257 l 1
 413 0 l 1
 207 0 l 1
 207 256 l 1
 -15 696 l 1
 210 696 l 1
 313 412 l 1
 417 696 l 1
 635 696 l 1
EndSplineSet
EndChar

StartChar: uni03AC
Encoding: 940 940 377
Width: 599
Flags: W
LayerCount: 2
Fore
SplineSet
209 853 m 1
 396 839 l 1
 344 596 l 1
 222 596 l 1
 209 853 l 1
247 554 m 0
 335 554 384 502 401 430 c 1
 412 534 l 1
 578 534 l 1
 500 266 l 1
 527 178 l 2
 538 141 559 127 589 124 c 1
 527 -19 l 1
 455 -11 412 16 397 74 c 2
 391 98 l 1
 354 14 303 -20 226 -20 c 0
 102 -20 17 79 17 263 c 0
 17 432 104 554 247 554 c 0
277 413 m 0
 243 413 214 370 214 263 c 0
 214 154 245 121 274 121 c 0
 313 121 335 156 354 275 c 1
 334 378 317 413 277 413 c 0
EndSplineSet
EndChar

StartChar: uni03AD
Encoding: 941 941 378
Width: 486
Flags: W
LayerCount: 2
Fore
SplineSet
188 853 m 1
 375 839 l 1
 323 596 l 1
 201 596 l 1
 188 853 l 1
262 554 m 0
 343 554 415 534 477 487 c 1
 400 389 l 1
 362 410 330 422 290 422 c 0
 258 422 234 407 234 380 c 0
 234 352 251 332 291 332 c 2
 361 332 l 1
 343 212 l 1
 283 212 l 2
 236 212 218 192 218 165 c 0
 218 134 239 116 291 116 c 0
 327 116 361 126 411 153 c 1
 491 45 l 1
 435 4 356 -20 258 -20 c 0
 120 -20 15 36 15 147 c 0
 15 225 63 272 163 284 c 1
 74 302 35 346 35 406 c 0
 35 498 128 554 262 554 c 0
EndSplineSet
EndChar

StartChar: uni03AE
Encoding: 942 942 379
Width: 570
Flags: W
LayerCount: 2
Fore
SplineSet
349 596 m 1
 227 596 l 1
 214 853 l 1
 401 839 l 1
 349 596 l 1
391 554 m 0
 480 554 535 496 535 391 c 2
 535 -227 l 1
 337 -207 l 1
 337 358 l 2
 337 400 325 410 307 410 c 0
 287 410 265 395 244 362 c 1
 244 0 l 1
 46 0 l 1
 46 397 l 2
 46 442 40 486 27 524 c 1
 210 548 l 1
 220 533 226 514 232 482 c 1
 280 532 328 554 391 554 c 0
EndSplineSet
EndChar

StartChar: uni03AF
Encoding: 943 943 380
Width: 279
Flags: W
LayerCount: 2
Fore
SplineSet
60 853 m 1
 247 839 l 1
 195 596 l 1
 73 596 l 1
 60 853 l 1
233 534 m 1
 233 202 l 2
 233 157 243 137 274 121 c 1
 218 -20 l 1
 104 -4 35 52 35 176 c 2
 35 534 l 1
 233 534 l 1
EndSplineSet
EndChar

StartChar: uni03B0
Encoding: 944 944 381
Width: 559
Flags: W
LayerCount: 2
Fore
SplineSet
206 969 m 1
 367 957 l 1
 322 748 l 1
 217 748 l 1
 206 969 l 1
124 772 m 0
 176 772 219 731 219 680 c 0
 219 628 176 587 124 587 c 0
 70 587 29 628 29 680 c 0
 29 731 70 772 124 772 c 0
419 772 m 0
 471 772 514 731 514 680 c 0
 514 628 471 587 419 587 c 0
 365 587 324 628 324 680 c 0
 324 731 365 772 419 772 c 0
503 534 m 1
 518 456 534 359 534 244 c 0
 534 54 395 -20 258 -20 c 0
 139 -20 35 39 35 191 c 2
 35 534 l 1
 233 534 l 1
 233 190 l 2
 233 137 249 122 274 122 c 0
 308 122 336 158 336 259 c 0
 336 346 324 444 309 534 c 1
 503 534 l 1
EndSplineSet
EndChar

StartChar: uni03B1
Encoding: 945 945 382
Width: 599
Flags: W
LayerCount: 2
Fore
SplineSet
247 554 m 0
 335 554 384 502 401 430 c 1
 412 534 l 1
 578 534 l 1
 500 266 l 1
 527 178 l 2
 538 141 559 127 589 124 c 1
 527 -19 l 1
 455 -11 412 16 397 74 c 2
 391 98 l 1
 354 14 303 -20 226 -20 c 0
 102 -20 17 79 17 263 c 0
 17 432 104 554 247 554 c 0
277 413 m 0
 243 413 214 370 214 263 c 0
 214 154 245 121 274 121 c 0
 313 121 335 156 354 275 c 1
 334 378 317 413 277 413 c 0
EndSplineSet
EndChar

StartChar: uni03B2
Encoding: 946 946 383
Width: 610
Flags: W
LayerCount: 2
Fore
SplineSet
406 406 m 1
 485 398 596 363 596 210 c 0
 596 75 503 -20 368 -20 c 0
 311 -20 268 -5 231 19 c 1
 231 -200 l 1
 42 -227 l 1
 42 549 l 2
 42 687 151 764 294 764 c 0
 452 764 538 680 538 572 c 0
 538 491 498 430 406 406 c 1
307 129 m 0
 359 129 397 157 397 230 c 0
 397 316 347 333 297 333 c 2
 265 333 l 1
 275 462 l 1
 284 462 l 2
 325 462 346 494 346 552 c 0
 346 605 326 629 290 629 c 0
 254 629 231 604 231 551 c 2
 231 143 l 1
 250 134 273 129 307 129 c 0
EndSplineSet
EndChar

StartChar: uni03B3
Encoding: 947 947 384
Width: 523
Flags: W
LayerCount: 2
Fore
SplineSet
152 554 m 1
 199 501 240 395 263 193 c 1
 343 553 l 1
 538 510 l 1
 357 31 l 2
 325 -53 319 -105 337 -210 c 1
 179 -227 l 1
 138 -144 136 -84 170 13 c 1
 119 233 37 413 -25 494 c 1
 152 554 l 1
EndSplineSet
EndChar

StartChar: uni03B4
Encoding: 948 948 385
Width: 576
Flags: W
LayerCount: 2
Fore
SplineSet
344 529 m 0
 494 470 559 397 559 251 c 0
 559 78 451 -20 288 -20 c 0
 118 -20 17 78 17 242 c 0
 17 335 65 409 171 457 c 1
 84 507 70 548 70 602 c 0
 70 690 138 764 308 764 c 0
 395 764 465 734 507 699 c 1
 420 599 l 1
 390 618 358 631 319 631 c 0
 274 631 256 617 256 596 c 0
 256 572 263 561 344 529 c 0
287 122 m 0
 333 122 356 158 356 252 c 0
 356 341 346 369 268 409 c 1
 223 364 218 316 218 252 c 0
 218 159 239 122 287 122 c 0
EndSplineSet
EndChar

StartChar: uni03B5
Encoding: 949 949 386
Width: 486
Flags: W
LayerCount: 2
Fore
SplineSet
262 554 m 0
 343 554 415 534 477 487 c 1
 400 389 l 1
 362 410 330 422 290 422 c 0
 258 422 234 407 234 380 c 0
 234 352 251 332 291 332 c 2
 361 332 l 1
 343 212 l 1
 283 212 l 2
 236 212 218 192 218 165 c 0
 218 134 239 116 291 116 c 0
 327 116 361 126 411 153 c 1
 491 45 l 1
 435 4 356 -20 258 -20 c 0
 120 -20 15 36 15 147 c 0
 15 225 63 272 163 284 c 1
 74 302 35 346 35 406 c 0
 35 498 128 554 262 554 c 0
EndSplineSet
EndChar

StartChar: uni03B6
Encoding: 950 950 387
Width: 438
Flags: W
LayerCount: 2
Fore
SplineSet
432 744 m 1
 458 646 l 1
 252 472 213 357 213 265 c 0
 213 202 240 172 325 135 c 0
 404 100 451 64 451 -21 c 0
 451 -110 387 -172 255 -227 c 1
 184 -114 l 1
 224 -88 250 -70 250 -40 c 0
 250 -16 241 -4 183 23 c 0
 56 83 10 129 10 256 c 0
 10 375 97 505 290 628 c 1
 262 617 208 606 163 606 c 2
 28 606 l 1
 49 744 l 1
 432 744 l 1
EndSplineSet
EndChar

StartChar: uni03B7
Encoding: 951 951 388
Width: 570
Flags: W
LayerCount: 2
Fore
SplineSet
391 554 m 0
 480 554 535 496 535 391 c 2
 535 -227 l 1
 337 -207 l 1
 337 358 l 2
 337 400 325 410 307 410 c 0
 287 410 265 395 244 362 c 1
 244 0 l 1
 46 0 l 1
 46 397 l 2
 46 442 40 486 27 524 c 1
 210 548 l 1
 220 533 226 514 232 482 c 1
 280 532 328 554 391 554 c 0
EndSplineSet
EndChar

StartChar: uni03B8
Encoding: 952 952 389
Width: 556
Flags: W
LayerCount: 2
Fore
SplineSet
278 764 m 0
 446 764 539 636 539 373 c 0
 539 107 446 -20 278 -20 c 0
 110 -20 17 107 17 373 c 0
 17 635 110 764 278 764 c 0
278 626 m 0
 228 626 202 597 198 427 c 1
 356 427 l 1
 352 597 328 626 278 626 c 0
278 118 m 0
 325 118 352 150 356 321 c 1
 198 321 l 1
 203 150 230 118 278 118 c 0
EndSplineSet
EndChar

StartChar: uni03B9
Encoding: 953 953 390
Width: 279
Flags: W
LayerCount: 2
Fore
SplineSet
233 534 m 1
 233 202 l 2
 233 157 243 137 274 121 c 1
 218 -20 l 1
 104 -4 35 52 35 176 c 2
 35 534 l 1
 233 534 l 1
EndSplineSet
EndChar

StartChar: uni03BA
Encoding: 954 954 391
Width: 568
Flags: W
LayerCount: 2
Fore
SplineSet
573 483 m 1
 453 286 l 1
 544 158 l 2
 555 142 565 134 583 129 c 1
 515 -20 l 1
 446 -14 393 8 353 84 c 2
 248 281 l 1
 401 552 l 1
 573 483 l 1
210 548 m 1
 231 509 244 459 244 349 c 2
 244 0 l 1
 46 0 l 1
 46 397 l 2
 46 442 36 495 27 524 c 1
 210 548 l 1
EndSplineSet
EndChar

StartChar: uni03BB
Encoding: 955 955 392
Width: 553
Flags: W
LayerCount: 2
Fore
SplineSet
80 762 m 1
 266 738 369 694 416 494 c 0
 473 252 502 142 573 40 c 1
 380 -20 l 1
 320 88 296 186 269 381 c 1
 197 -20 l 1
 0 24 l 1
 158 534 l 1
 222 534 l 1
 190 600 159 617 58 631 c 1
 80 762 l 1
EndSplineSet
EndChar

StartChar: uni03BC
Encoding: 956 956 393
Width: 579
Flags: W
LayerCount: 2
Fore
SplineSet
552 0 m 1
 371 -20 l 1
 359 4 355 23 349 57 c 1
 321 13 292 -6 258 -6 c 0
 228 -6 200 1 174 32 c 1
 204 -13 227 -49 227 -123 c 2
 227 -207 l 1
 42 -225 l 1
 42 534 l 1
 240 534 l 1
 240 173 l 2
 240 139 255 130 273 130 c 0
 291 130 313 143 331 174 c 1
 331 534 l 1
 529 534 l 1
 529 184 l 2
 529 102 540 41 552 0 c 1
EndSplineSet
EndChar

StartChar: uni03BD
Encoding: 957 957 394
Width: 523
Flags: W
LayerCount: 2
Fore
SplineSet
152 554 m 1
 199 501 242 365 260 156 c 1
 347 553 l 1
 538 510 l 1
 371 0 l 1
 142 0 l 1
 101 226 48 421 -25 494 c 1
 152 554 l 1
EndSplineSet
EndChar

StartChar: uni03BE
Encoding: 958 958 395
Width: 458
Flags: W
LayerCount: 2
Fore
SplineSet
282 764 m 0
 369 764 429 743 483 701 c 1
 400 598 l 1
 372 616 348 629 312 629 c 0
 277 629 254 606 254 565 c 0
 254 521 278 495 324 495 c 2
 381 495 l 1
 363 371 l 1
 323 371 l 2
 261 371 218 335 218 275 c 0
 218 205 254 179 357 135 c 0
 436 100 483 64 483 -21 c 0
 483 -110 419 -172 287 -227 c 1
 216 -114 l 1
 256 -88 282 -70 282 -40 c 0
 282 -16 273 -4 215 23 c 0
 99 76 15 117 15 256 c 0
 15 367 81 423 181 445 c 1
 100 468 55 516 55 595 c 0
 55 696 155 764 282 764 c 0
EndSplineSet
EndChar

StartChar: uni03BF
Encoding: 959 959 396
Width: 584
Flags: W
LayerCount: 2
Fore
SplineSet
292 554 m 0
 460 554 567 452 567 266 c 0
 567 92 462 -20 292 -20 c 0
 124 -20 17 82 17 268 c 0
 17 442 122 554 292 554 c 0
292 412 m 0
 242 412 220 369 220 268 c 0
 220 162 242 122 292 122 c 0
 342 122 364 165 364 266 c 0
 364 372 342 412 292 412 c 0
EndSplineSet
EndChar

StartChar: uni03C0
Encoding: 960 960 397
Width: 622
Flags: W
LayerCount: 2
Fore
SplineSet
605 390 m 1
 555 390 l 1
 555 202 l 2
 555 157 565 137 596 121 c 1
 540 -20 l 1
 426 -4 357 52 357 176 c 2
 357 390 l 1
 278 390 l 1
 278 0 l 1
 84 0 l 1
 84 390 l 1
 59 388 46 386 25 379 c 1
 -10 506 l 1
 28 524 68 534 162 534 c 2
 605 534 l 1
 605 390 l 1
EndSplineSet
EndChar

StartChar: uni03C1
Encoding: 961 961 398
Width: 587
Flags: W
LayerCount: 2
Fore
SplineSet
294 554 m 0
 467 554 565 458 565 269 c 0
 565 103 480 -20 352 -20 c 0
 305 -20 264 -5 228 40 c 1
 228 -207 l 1
 30 -227 l 1
 30 277 l 2
 30 452 114 554 294 554 c 0
291 121 m 0
 332 121 362 158 362 266 c 0
 362 391 332 413 294 413 c 0
 246 413 228 373 228 263 c 2
 228 164 l 1
 246 131 265 121 291 121 c 0
EndSplineSet
EndChar

StartChar: uni03C2
Encoding: 962 962 399
Width: 484
Flags: W
LayerCount: 2
Fore
SplineSet
295 554 m 0
 377 554 438 528 489 483 c 1
 407 368 l 1
 375 394 345 405 313 405 c 0
 260 405 223 374 223 278 c 0
 223 207 246 175 336 135 c 0
 415 100 460 64 460 -21 c 0
 460 -110 396 -172 264 -227 c 1
 193 -114 l 1
 233 -88 259 -70 259 -40 c 0
 259 -16 250 -4 192 23 c 0
 87 71 17 126 17 278 c 0
 17 435 131 554 295 554 c 0
EndSplineSet
EndChar

StartChar: uni03C3
Encoding: 963 963 400
Width: 613
Flags: W
LayerCount: 2
Fore
SplineSet
613 534 m 1
 613 393 l 1
 517 399 l 1
 551 366 567 323 567 256 c 0
 567 92 462 -20 292 -20 c 0
 124 -20 17 82 17 268 c 0
 17 437 111 544 313 544 c 0
 417 544 516 539 613 534 c 1
292 122 m 0
 342 122 364 165 364 256 c 0
 364 341 356 382 342 405 c 1
 250 405 220 388 220 267 c 0
 220 162 242 122 292 122 c 0
EndSplineSet
EndChar

StartChar: uni03C4
Encoding: 964 964 401
Width: 495
Flags: W
LayerCount: 2
Fore
SplineSet
495 390 m 1
 350 390 l 1
 350 202 l 2
 350 157 360 137 391 121 c 1
 335 -20 l 1
 221 -4 152 52 152 176 c 2
 152 390 l 1
 116 390 l 2
 67 390 53 388 25 379 c 1
 -10 506 l 1
 28 524 68 534 152 534 c 2
 495 534 l 1
 495 390 l 1
EndSplineSet
EndChar

StartChar: uni03C5
Encoding: 965 965 402
Width: 559
Flags: W
LayerCount: 2
Fore
SplineSet
503 534 m 1
 518 456 534 359 534 244 c 0
 534 54 395 -20 258 -20 c 0
 139 -20 35 39 35 191 c 2
 35 534 l 1
 233 534 l 1
 233 190 l 2
 233 137 249 122 274 122 c 0
 308 122 336 158 336 259 c 0
 336 346 324 444 309 534 c 1
 503 534 l 1
EndSplineSet
EndChar

StartChar: uni03C6
Encoding: 966 966 403
Width: 767
Flags: W
LayerCount: 2
Fore
SplineSet
745 271 m 0
 745 91 659 2 475 -18 c 1
 475 -207 l 1
 292 -227 l 1
 292 -18 l 1
 106 2 20 99 20 241 c 0
 20 356 50 456 81 534 c 1
 267 534 l 1
 236 438 210 352 210 256 c 0
 210 171 228 127 292 113 c 1
 292 317 l 2
 292 462 365 554 511 554 c 0
 671 554 745 452 745 271 c 0
475 113 m 1
 541 124 556 164 556 269 c 0
 556 404 542 426 513 426 c 0
 486 426 475 410 475 326 c 2
 475 113 l 1
EndSplineSet
EndChar

StartChar: uni03C7
Encoding: 967 967 404
Width: 510
Flags: W
LayerCount: 2
Fore
SplineSet
355 185 m 1
 535 -194 l 1
 338 -227 l 1
 252 30 l 1
 177 -227 l 1
 -26 -207 l 1
 154 180 l 1
 81 333 35 423 -32 493 c 1
 162 549 l 1
 202 480 218 448 256 308 c 1
 308 548 l 1
 511 528 l 1
 355 185 l 1
EndSplineSet
EndChar

StartChar: uni03C8
Encoding: 968 968 405
Width: 795
Flags: W
LayerCount: 2
Fore
SplineSet
770 242 m 0
 770 86 660 -1 494 -17 c 1
 494 -207 l 1
 306 -227 l 1
 306 -18 l 1
 124 -1 35 88 35 205 c 2
 35 534 l 1
 228 534 l 1
 228 215 l 2
 228 163 247 129 306 117 c 1
 306 534 l 1
 494 534 l 1
 494 119 l 1
 551 133 577 174 577 247 c 0
 577 336 565 444 550 534 c 1
 739 534 l 1
 756 456 770 359 770 242 c 0
EndSplineSet
EndChar

StartChar: uni03C9
Encoding: 969 969 406
Width: 772
Flags: W
LayerCount: 2
Fore
SplineSet
688 534 m 1
 725 456 752 359 752 244 c 0
 752 63 668 -20 547 -20 c 0
 457 -20 407 13 385 99 c 1
 361 12 314 -20 227 -20 c 0
 101 -20 20 63 20 244 c 0
 20 359 47 456 84 534 c 1
 259 534 l 1
 236 448 212 355 212 256 c 0
 212 158 230 122 260 122 c 0
 281 122 295 131 295 190 c 2
 295 355 l 1
 477 379 l 1
 477 190 l 2
 477 131 493 122 515 122 c 0
 545 122 560 158 560 256 c 0
 560 354 536 448 513 534 c 1
 688 534 l 1
EndSplineSet
EndChar

StartChar: uni03CA
Encoding: 970 970 407
Width: 279
Flags: W
LayerCount: 2
Fore
SplineSet
11 818 m 0
 65 818 106 777 106 726 c 0
 106 674 65 633 11 633 c 0
 -41 633 -84 674 -84 726 c 0
 -84 777 -41 818 11 818 c 0
256 818 m 0
 310 818 351 777 351 726 c 0
 351 674 310 633 256 633 c 0
 204 633 161 674 161 726 c 0
 161 777 204 818 256 818 c 0
233 534 m 1
 233 202 l 2
 233 157 243 137 274 121 c 1
 218 -20 l 1
 104 -4 35 52 35 176 c 2
 35 534 l 1
 233 534 l 1
EndSplineSet
EndChar

StartChar: uni03CB
Encoding: 971 971 408
Width: 559
Flags: W
LayerCount: 2
Fore
SplineSet
149 818 m 0
 203 818 244 777 244 726 c 0
 244 674 203 633 149 633 c 0
 97 633 54 674 54 726 c 0
 54 777 97 818 149 818 c 0
394 818 m 0
 448 818 489 777 489 726 c 0
 489 674 448 633 394 633 c 0
 342 633 299 674 299 726 c 0
 299 777 342 818 394 818 c 0
503 534 m 1
 518 456 534 359 534 244 c 0
 534 54 395 -20 258 -20 c 0
 139 -20 35 39 35 191 c 2
 35 534 l 1
 233 534 l 1
 233 190 l 2
 233 137 249 122 274 122 c 0
 308 122 336 158 336 259 c 0
 336 346 324 444 309 534 c 1
 503 534 l 1
EndSplineSet
EndChar

StartChar: uni03CC
Encoding: 972 972 409
Width: 584
Flags: W
LayerCount: 2
Fore
SplineSet
218 853 m 1
 405 839 l 1
 353 596 l 1
 231 596 l 1
 218 853 l 1
292 554 m 0
 460 554 567 452 567 266 c 0
 567 92 462 -20 292 -20 c 0
 124 -20 17 82 17 268 c 0
 17 442 122 554 292 554 c 0
292 412 m 0
 242 412 220 369 220 268 c 0
 220 162 242 122 292 122 c 0
 342 122 364 165 364 266 c 0
 364 372 342 412 292 412 c 0
EndSplineSet
EndChar

StartChar: uni03CD
Encoding: 973 973 410
Width: 559
Flags: W
LayerCount: 2
Fore
SplineSet
198 853 m 1
 385 839 l 1
 333 596 l 1
 211 596 l 1
 198 853 l 1
503 534 m 1
 518 456 534 359 534 244 c 0
 534 54 395 -20 258 -20 c 0
 139 -20 35 39 35 191 c 2
 35 534 l 1
 233 534 l 1
 233 190 l 2
 233 137 249 122 274 122 c 0
 308 122 336 158 336 259 c 0
 336 346 324 444 309 534 c 1
 503 534 l 1
EndSplineSet
EndChar

StartChar: uni03CE
Encoding: 974 974 411
Width: 772
Flags: W
LayerCount: 2
Fore
SplineSet
312 853 m 1
 499 839 l 1
 447 596 l 1
 325 596 l 1
 312 853 l 1
688 534 m 1
 725 456 752 359 752 244 c 0
 752 63 668 -20 547 -20 c 0
 457 -20 407 13 385 99 c 1
 361 12 314 -20 227 -20 c 0
 101 -20 20 63 20 244 c 0
 20 359 47 456 84 534 c 1
 259 534 l 1
 236 448 212 355 212 256 c 0
 212 158 230 122 260 122 c 0
 281 122 295 131 295 190 c 2
 295 355 l 1
 477 379 l 1
 477 190 l 2
 477 131 493 122 515 122 c 0
 545 122 560 158 560 256 c 0
 560 354 536 448 513 534 c 1
 688 534 l 1
EndSplineSet
EndChar

StartChar: uni03D0
Encoding: 976 976 412
Width: 564
Flags: W
LayerCount: 2
Fore
SplineSet
397 427 m 0
 481 427 552 363 552 235 c 0
 552 78 441 -20 281 -20 c 0
 96 -20 17 121 17 343 c 0
 17 600 139 764 314 764 c 0
 442 764 502 691 502 607 c 0
 502 525 459 463 334 419 c 1
 359 425 373 427 397 427 c 0
297 628 m 0
 263 628 225 588 215 447 c 1
 237 454 l 2
 310 478 332 532 332 588 c 0
 332 614 317 628 297 628 c 0
282 120 m 0
 323 120 349 150 349 229 c 0
 349 305 320 342 280 342 c 0
 267 342 249 338 230 332 c 2
 212 326 l 1
 216 155 245 120 282 120 c 0
EndSplineSet
EndChar

StartChar: uni03D1
Encoding: 977 977 413
Width: 555
Flags: W
LayerCount: 2
Fore
SplineSet
545 526 m 1
 545 401 l 1
 512 401 l 1
 512 116 448 -20 243 -20 c 0
 120 -20 30 39 30 191 c 2
 30 355 l 1
 218 355 l 1
 218 171 l 2
 218 132 230 118 253 118 c 0
 299 118 315 176 315 399 c 2
 315 400 l 1
 241 400 l 2
 85 400 20 466 20 571 c 0
 20 673 106 764 242 764 c 0
 390 764 475 681 502 526 c 1
 545 526 l 1
248 526 m 2
 309 526 l 1
 298 607 274 626 241 626 c 0
 208 626 190 606 190 576 c 0
 190 546 208 526 248 526 c 2
EndSplineSet
EndChar

StartChar: uni03D2
Encoding: 978 978 414
Width: 661
Flags: W
LayerCount: 2
Fore
SplineSet
207 0 m 1
 207 256 l 1
 -15 696 l 1
 210 696 l 1
 313 412 l 1
 359 553 l 2
 397 671 453 716 561 716 c 0
 617 716 657 701 691 681 c 1
 640 562 l 1
 627 568 611 574 591 574 c 0
 561 574 546 562 531 527 c 2
 413 257 l 1
 413 0 l 1
 207 0 l 1
EndSplineSet
EndChar

StartChar: uni03D5
Encoding: 981 981 415
Width: 684
Flags: W
LayerCount: 2
Fore
SplineSet
670 270 m 0
 670 95 562 21 440 6 c 1
 439 -207 l 1
 241 -227 l 1
 242 6 l 1
 126 20 14 86 14 264 c 0
 14 438 120 512 241 527 c 1
 241 744 l 1
 439 764 l 1
 439 528 l 1
 557 515 670 449 670 270 c 0
419 125 m 1
 461 131 482 173 482 270 c 0
 482 373 457 403 419 410 c 1
 419 125 l 1
202 264 m 0
 202 174 226 135 262 125 c 1
 262 408 l 1
 223 401 202 363 202 264 c 0
EndSplineSet
EndChar

StartChar: uni03D6
Encoding: 982 982 416
Width: 768
Flags: W
LayerCount: 2
Fore
SplineSet
763 534 m 1
 763 400 l 1
 684 400 l 1
 718 349 742 291 742 224 c 0
 742 68 663 -20 547 -20 c 0
 457 -20 407 13 385 99 c 1
 361 12 314 -20 227 -20 c 0
 106 -20 30 68 30 224 c 0
 30 291 54 349 88 399 c 1
 63 398 50 396 30 389 c 1
 -5 506 l 1
 33 524 73 534 167 534 c 2
 763 534 l 1
550 246 m 0
 550 301 541 352 526 400 c 1
 246 400 l 1
 231 352 222 301 222 246 c 0
 222 158 235 122 263 122 c 0
 281 122 295 131 295 190 c 2
 295 285 l 1
 477 309 l 1
 477 190 l 2
 477 131 493 122 510 122 c 0
 540 122 550 158 550 246 c 0
EndSplineSet
EndChar

StartChar: uni03D7
Encoding: 983 983 417
Width: 553
Flags: W
LayerCount: 2
Fore
SplineSet
506 202 m 2
 506 150 513 129 548 110 c 1
 548 -25 l 2
 548 -166 466 -236 329 -236 c 0
 259 -236 202 -217 166 -191 c 1
 230 -76 l 1
 256 -88 279 -96 316 -96 c 0
 356 -96 380 -78 380 -41 c 2
 381 32 l 1
 348 55 328 90 328 144 c 0
 328 214 369 320 400 394 c 1
 181 -13 l 1
 46 30 l 1
 46 331 l 2
 46 373 40 394 5 411 c 1
 61 553 l 1
 156 535 224 488 224 389 c 0
 224 319 183 213 152 139 c 1
 371 546 l 1
 506 503 l 1
 506 202 l 2
EndSplineSet
EndChar

StartChar: uni03F0
Encoding: 1008 1008 418
Width: 552
Flags: W
LayerCount: 2
Fore
SplineSet
506 202 m 2
 506 160 512 139 547 122 c 1
 491 -20 l 1
 396 -2 328 45 328 144 c 0
 328 214 369 320 400 394 c 1
 181 -13 l 1
 46 30 l 1
 46 331 l 2
 46 373 40 394 5 411 c 1
 61 553 l 1
 156 535 224 488 224 389 c 0
 224 319 183 213 152 139 c 1
 371 546 l 1
 506 503 l 1
 506 202 l 2
EndSplineSet
EndChar

StartChar: uni03F1
Encoding: 1009 1009 419
Width: 587
Flags: W
LayerCount: 2
Fore
SplineSet
350 -60 m 0
 447 -75 495 -110 515 -194 c 1
 347 -227 l 1
 335 -194 316 -188 228 -176 c 0
 98 -159 30 -95 30 52 c 2
 30 277 l 2
 30 452 114 554 294 554 c 0
 467 554 565 458 565 289 c 0
 565 143 480 20 352 20 c 0
 305 20 264 35 228 80 c 1
 228 17 l 2
 228 -31 259 -46 350 -60 c 0
296 413 m 0
 246 413 228 373 228 263 c 2
 228 204 l 1
 246 171 265 161 291 161 c 0
 332 161 362 198 362 286 c 0
 362 391 332 413 296 413 c 0
EndSplineSet
EndChar

StartChar: uni03F2
Encoding: 1010 1010 420
Width: 514
Flags: W
LayerCount: 2
Fore
SplineSet
312 554 m 0
 407 554 464 529 524 483 c 1
 442 368 l 1
 402 394 372 405 331 405 c 0
 265 405 223 366 223 263 c 0
 223 161 270 133 328 133 c 0
 374 133 400 144 439 165 c 1
 524 46 l 1
 468 7 408 -20 314 -20 c 0
 134 -20 17 86 17 263 c 0
 17 432 139 554 312 554 c 0
EndSplineSet
EndChar

StartChar: uni03F4
Encoding: 1012 1012 421
Width: 690
Flags: W
LayerCount: 2
Fore
SplineSet
345 716 m 0
 554 716 670 580 670 349 c 0
 670 123 554 -20 345 -20 c 0
 136 -20 20 118 20 349 c 0
 20 575 136 716 345 716 c 0
345 570 m 0
 257 570 220 510 220 349 c 0
 220 188 257 126 345 126 c 0
 435 126 470 188 470 349 c 0
 470 510 433 570 345 570 c 0
435 405 m 1
 435 299 l 1
 255 299 l 1
 255 405 l 1
 435 405 l 1
EndSplineSet
EndChar

StartChar: uni03F5
Encoding: 1013 1013 422
Width: 489
Flags: W
LayerCount: 2
Fore
SplineSet
310 120 m 0
 345 120 373 131 407 157 c 1
 489 46 l 1
 438 6 380 -20 303 -20 c 0
 124 -20 17 96 17 263 c 0
 17 432 126 554 295 554 c 0
 377 554 438 528 489 483 c 1
 407 377 l 1
 375 403 343 414 308 414 c 0
 252 414 219 389 215 323 c 1
 390 323 l 1
 390 219 l 1
 215 219 l 1
 218 144 260 120 310 120 c 0
EndSplineSet
EndChar

StartChar: uni03F6
Encoding: 1014 1014 423
Width: 487
Flags: W
LayerCount: 2
Fore
SplineSet
211 554 m 0
 367 554 470 460 470 273 c 0
 470 96 370 -20 189 -20 c 0
 112 -20 54 2 0 41 c 1
 82 151 l 1
 120 128 147 120 180 120 c 0
 225 120 265 142 272 219 c 1
 97 219 l 1
 97 323 l 1
 271 323 l 1
 266 393 235 414 194 414 c 0
 159 414 129 405 94 382 c 1
 12 488 l 1
 64 530 129 554 211 554 c 0
EndSplineSet
EndChar

StartChar: uni0400
Encoding: 1024 1024 424
Width: 520
Flags: W
LayerCount: 2
Fore
SplineSet
191 984 m 1
 424 848 l 1
 374 749 l 1
 120 840 l 1
 191 984 l 1
500 696 m 1
 479 553 l 1
 249 553 l 1
 249 423 l 1
 451 423 l 1
 451 284 l 1
 249 284 l 1
 249 144 l 1
 495 144 l 1
 495 0 l 1
 43 0 l 1
 43 696 l 1
 500 696 l 1
EndSplineSet
EndChar

StartChar: uni0401
Encoding: 1025 1025 425
Width: 520
Flags: W
LayerCount: 2
Fore
SplineSet
147 944 m 0
 201 944 242 903 242 852 c 0
 242 800 201 759 147 759 c 0
 95 759 52 800 52 852 c 0
 52 903 95 944 147 944 c 0
392 944 m 0
 446 944 487 903 487 852 c 0
 487 800 446 759 392 759 c 0
 340 759 297 800 297 852 c 0
 297 903 340 944 392 944 c 0
500 696 m 1
 479 553 l 1
 249 553 l 1
 249 423 l 1
 451 423 l 1
 451 284 l 1
 249 284 l 1
 249 144 l 1
 495 144 l 1
 495 0 l 1
 43 0 l 1
 43 696 l 1
 500 696 l 1
EndSplineSet
EndChar

StartChar: uni0402
Encoding: 1026 1026 426
Width: 770
Flags: W
LayerCount: 2
Fore
SplineSet
523 481 m 0
 671 481 750 383 750 225 c 2
 750 111 l 2
 750 -83 622 -149 501 -189 c 1
 446 -44 l 1
 535 -10 544 41 544 118 c 2
 544 225 l 2
 544 302 521 335 465 335 c 0
 427 335 401 324 380 308 c 1
 380 0 l 1
 174 0 l 1
 174 546 l 1
 5 546 l 1
 5 696 l 1
 559 696 l 1
 538 546 l 1
 380 546 l 1
 380 434 l 1
 420 465 465 481 523 481 c 0
EndSplineSet
EndChar

StartChar: uni0403
Encoding: 1027 1027 427
Width: 511
Flags: W
LayerCount: 2
Fore
SplineSet
438 840 m 1
 184 749 l 1
 134 848 l 1
 368 984 l 1
 438 840 l 1
516 696 m 1
 496 538 l 1
 249 538 l 1
 249 0 l 1
 43 0 l 1
 43 696 l 1
 516 696 l 1
EndSplineSet
EndChar

StartChar: uni0404
Encoding: 1028 1028 428
Width: 584
Flags: W
LayerCount: 2
Fore
SplineSet
498 189 m 1
 584 78 l 1
 532 26 450 -20 343 -20 c 0
 149 -20 20 109 20 350 c 0
 20 582 156 716 348 716 c 0
 443 716 516 685 576 633 c 1
 480 521 l 1
 441 554 403 571 357 571 c 0
 289 571 238 519 228 424 c 1
 451 424 l 1
 451 286 l 1
 228 286 l 1
 235 185 290 129 359 129 c 0
 416 129 458 156 498 189 c 1
EndSplineSet
EndChar

StartChar: uni0405
Encoding: 1029 1029 429
Width: 588
Flags: W
LayerCount: 2
Fore
SplineSet
299 716 m 0
 411 716 493 682 556 621 c 1
 465 514 l 1
 419 551 371 570 316 570 c 0
 266 570 241 551 241 520 c 0
 241 484 267 473 366 441 c 0
 509 395 573 333 573 208 c 0
 573 74 463 -20 280 -20 c 0
 147 -20 57 30 0 85 c 1
 101 196 l 1
 151 153 207 128 272 128 c 0
 332 128 359 155 359 191 c 0
 359 232 337 250 246 278 c 0
 78 331 29 402 29 503 c 0
 29 635 145 716 299 716 c 0
EndSplineSet
EndChar

StartChar: uni0406
Encoding: 1030 1030 430
Width: 292
Flags: W
LayerCount: 2
Fore
SplineSet
249 696 m 1
 249 0 l 1
 43 0 l 1
 43 696 l 1
 249 696 l 1
EndSplineSet
EndChar

StartChar: uni0407
Encoding: 1031 1031 431
Width: 292
Flags: W
LayerCount: 2
Fore
SplineSet
21 944 m 0
 75 944 116 903 116 852 c 0
 116 800 75 759 21 759 c 0
 -31 759 -74 800 -74 852 c 0
 -74 903 -31 944 21 944 c 0
266 944 m 0
 320 944 361 903 361 852 c 0
 361 800 320 759 266 759 c 0
 214 759 171 800 171 852 c 0
 171 903 214 944 266 944 c 0
249 696 m 1
 249 0 l 1
 43 0 l 1
 43 696 l 1
 249 696 l 1
EndSplineSet
EndChar

StartChar: uni0408
Encoding: 1032 1032 432
Width: 325
Flags: W
LayerCount: 2
Fore
SplineSet
284 696 m 1
 284 111 l 2
 284 -83 156 -149 35 -189 c 1
 -20 -44 l 1
 69 -10 78 41 78 118 c 2
 78 696 l 1
 284 696 l 1
EndSplineSet
EndChar

StartChar: uni0409
Encoding: 1033 1033 433
Width: 952
Flags: W
LayerCount: 2
Fore
SplineSet
659 469 m 2
 839 469 942 395 942 242 c 0
 942 80 826 0 667 0 c 2
 399 0 l 1
 399 544 l 1
 305 544 l 1
 282 348 l 2
 257 135 214 11 43 -20 c 1
 -5 120 l 1
 66 150 74 208 93 364 c 2
 133 696 l 1
 605 696 l 1
 605 469 l 1
 659 469 l 2
640 145 m 2
 701 145 728 181 728 240 c 0
 728 295 704 331 636 331 c 2
 605 331 l 1
 605 145 l 1
 640 145 l 2
EndSplineSet
EndChar

StartChar: uni040A
Encoding: 1034 1034 434
Width: 956
Flags: W
LayerCount: 2
Fore
SplineSet
649 459 m 2
 835 459 946 385 946 236 c 0
 946 76 833 0 657 0 c 2
 403 0 l 1
 403 316 l 1
 249 316 l 1
 249 0 l 1
 43 0 l 1
 43 696 l 1
 249 696 l 1
 249 459 l 1
 403 459 l 1
 403 696 l 1
 609 696 l 1
 609 459 l 1
 649 459 l 2
644 146 m 2
 707 146 732 180 732 235 c 0
 732 289 709 316 634 316 c 2
 609 316 l 1
 609 146 l 1
 644 146 l 2
EndSplineSet
EndChar

StartChar: uni040B
Encoding: 1035 1035 435
Width: 770
Flags: W
LayerCount: 2
Fore
SplineSet
523 481 m 0
 671 481 750 383 750 225 c 2
 750 0 l 1
 544 0 l 1
 544 225 l 2
 544 302 521 335 465 335 c 0
 427 335 401 324 380 308 c 1
 380 0 l 1
 174 0 l 1
 174 546 l 1
 5 546 l 1
 5 696 l 1
 559 696 l 1
 538 546 l 1
 380 546 l 1
 380 434 l 1
 420 465 465 481 523 481 c 0
EndSplineSet
EndChar

StartChar: uni040C
Encoding: 1036 1036 436
Width: 644
Flags: W
LayerCount: 2
Fore
SplineSet
404 984 m 1
 474 840 l 1
 220 749 l 1
 170 848 l 1
 404 984 l 1
641 696 m 1
 482 387 l 1
 659 0 l 1
 438 0 l 1
 309 288 l 1
 249 288 l 1
 249 0 l 1
 43 0 l 1
 43 696 l 1
 249 696 l 1
 249 433 l 1
 314 433 l 1
 443 696 l 1
 641 696 l 1
EndSplineSet
EndChar

StartChar: uni040D
Encoding: 1037 1037 437
Width: 651
Flags: W
LayerCount: 2
Fore
SplineSet
245 984 m 1
 478 848 l 1
 428 749 l 1
 174 840 l 1
 245 984 l 1
608 696 m 1
 608 0 l 1
 407 0 l 1
 407 213 l 2
 407 342 422 432 437 501 c 1
 287 0 l 1
 43 0 l 1
 43 696 l 1
 244 696 l 1
 244 475 l 2
 244 348 228 272 214 200 c 1
 369 696 l 1
 608 696 l 1
EndSplineSet
EndChar

StartChar: uni040E
Encoding: 1038 1038 438
Width: 599
Flags: W
LayerCount: 2
Fore
SplineSet
300 746 m 0
 180 746 123 822 115 922 c 1
 218 939 l 1
 229 897 255 880 300 880 c 0
 345 880 371 897 382 939 c 1
 485 922 l 1
 477 822 420 746 300 746 c 0
624 696 m 1
 448 219 l 2
 382 39 291 -9 116 -20 c 1
 90 115 l 1
 174 121 217 137 250 180 c 1
 188 180 l 1
 -20 696 l 1
 191 696 l 1
 311 293 l 1
 415 696 l 1
 624 696 l 1
EndSplineSet
EndChar

StartChar: uni040F
Encoding: 1039 1039 439
Width: 652
Flags: W
LayerCount: 2
Fore
SplineSet
609 696 m 1
 609 0 l 1
 405 0 l 1
 405 -175 l 1
 268 -175 l 1
 248 0 l 1
 43 0 l 1
 43 696 l 1
 249 696 l 1
 249 158 l 1
 403 158 l 1
 403 696 l 1
 609 696 l 1
EndSplineSet
EndChar

StartChar: uni0410
Encoding: 1040 1040 440
Width: 601
Flags: W
LayerCount: 2
Fore
SplineSet
408 0 m 1
 381 135 l 1
 216 135 l 1
 190 0 l 1
 -25 0 l 1
 178 696 l 1
 424 696 l 1
 626 0 l 1
 408 0 l 1
245 279 m 1
 352 279 l 1
 298 552 l 1
 245 279 l 1
EndSplineSet
EndChar

StartChar: uni0411
Encoding: 1041 1041 441
Width: 606
Flags: W
LayerCount: 2
Fore
SplineSet
313 456 m 2
 493 456 596 382 596 235 c 0
 596 80 480 0 321 0 c 2
 43 0 l 1
 43 696 l 1
 511 696 l 1
 491 543 l 1
 249 543 l 1
 249 456 l 1
 313 456 l 2
294 145 m 2
 355 145 382 181 382 233 c 0
 382 282 358 318 290 318 c 2
 249 318 l 1
 249 145 l 1
 294 145 l 2
EndSplineSet
EndChar

StartChar: uni0412
Encoding: 1042 1042 442
Width: 622
Flags: W
LayerCount: 2
Fore
SplineSet
452 369 m 1
 528 353 607 315 607 206 c 0
 607 41 470 0 287 0 c 2
 43 0 l 1
 43 696 l 1
 260 696 l 2
 455 696 578 652 578 516 c 0
 578 426 514 385 452 369 c 1
279 555 m 2
 249 555 l 1
 249 427 l 1
 284 427 l 2
 347 427 369 446 369 495 c 0
 369 536 345 555 279 555 c 2
289 145 m 2
 352 145 395 158 395 220 c 0
 395 274 361 297 297 297 c 2
 249 297 l 1
 249 145 l 1
 289 145 l 2
EndSplineSet
EndChar

StartChar: uni0413
Encoding: 1043 1043 443
Width: 511
Flags: W
LayerCount: 2
Fore
SplineSet
516 696 m 1
 496 538 l 1
 249 538 l 1
 249 0 l 1
 43 0 l 1
 43 696 l 1
 516 696 l 1
EndSplineSet
EndChar

StartChar: uni0414
Encoding: 1044 1044 444
Width: 642
Flags: W
LayerCount: 2
Fore
SplineSet
583 154 m 1
 647 154 l 1
 647 -175 l 1
 510 -175 l 1
 490 0 l 1
 142 0 l 1
 122 -175 l 1
 -15 -175 l 1
 -15 154 l 1
 38 154 l 1
 71 198 93 271 118 467 c 2
 146 696 l 1
 583 696 l 1
 583 154 l 1
385 154 m 1
 385 549 l 1
 318 549 l 1
 313 492 l 2
 294 293 259 205 198 154 c 1
 385 154 l 1
EndSplineSet
EndChar

StartChar: uni0415
Encoding: 1045 1045 445
Width: 520
Flags: W
LayerCount: 2
Fore
SplineSet
500 696 m 1
 479 553 l 1
 249 553 l 1
 249 423 l 1
 451 423 l 1
 451 284 l 1
 249 284 l 1
 249 144 l 1
 495 144 l 1
 495 0 l 1
 43 0 l 1
 43 696 l 1
 500 696 l 1
EndSplineSet
EndChar

StartChar: uni0416
Encoding: 1046 1046 446
Width: 956
Flags: W
LayerCount: 2
Fore
SplineSet
953 696 m 1
 786 387 l 1
 971 0 l 1
 750 0 l 1
 620 291 l 1
 571 291 l 1
 571 0 l 1
 385 0 l 1
 385 291 l 1
 334 291 l 1
 202 0 l 1
 -15 0 l 1
 170 387 l 1
 3 696 l 1
 201 696 l 1
 340 430 l 1
 385 430 l 1
 385 696 l 1
 571 696 l 1
 571 430 l 1
 616 430 l 1
 757 696 l 1
 953 696 l 1
EndSplineSet
EndChar

StartChar: uni0417
Encoding: 1047 1047 447
Width: 553
Flags: W
LayerCount: 2
Fore
SplineSet
243 -20 m 0
 125 -20 49 17 -10 80 c 1
 97 184 l 1
 141 145 178 126 227 126 c 0
 286 126 324 153 324 209 c 0
 324 262 290 295 217 295 c 2
 140 295 l 1
 163 436 l 1
 221 436 l 2
 279 436 308 462 308 506 c 0
 308 543 288 572 233 572 c 0
 193 572 151 556 105 520 c 1
 13 620 l 1
 79 683 163 716 264 716 c 0
 418 716 518 639 518 530 c 0
 518 455 470 391 352 367 c 1
 473 354 538 296 538 196 c 0
 538 62 419 -20 243 -20 c 0
EndSplineSet
EndChar

StartChar: uni0418
Encoding: 1048 1048 448
Width: 651
Flags: W
LayerCount: 2
Fore
SplineSet
608 696 m 1
 608 0 l 1
 407 0 l 1
 407 213 l 2
 407 342 422 432 437 501 c 1
 287 0 l 1
 43 0 l 1
 43 696 l 1
 244 696 l 1
 244 475 l 2
 244 348 228 272 214 200 c 1
 369 696 l 1
 608 696 l 1
EndSplineSet
EndChar

StartChar: uni0419
Encoding: 1049 1049 449
Width: 651
Flags: W
LayerCount: 2
Fore
SplineSet
326 746 m 0
 206 746 149 822 141 922 c 1
 244 939 l 1
 255 897 281 880 326 880 c 0
 371 880 397 897 408 939 c 1
 511 922 l 1
 503 822 446 746 326 746 c 0
608 696 m 1
 608 0 l 1
 407 0 l 1
 407 213 l 2
 407 342 422 432 437 501 c 1
 287 0 l 1
 43 0 l 1
 43 696 l 1
 244 696 l 1
 244 475 l 2
 244 348 228 272 214 200 c 1
 369 696 l 1
 608 696 l 1
EndSplineSet
EndChar

StartChar: uni041A
Encoding: 1050 1050 450
Width: 644
Flags: W
LayerCount: 2
Fore
SplineSet
641 696 m 1
 482 387 l 1
 659 0 l 1
 438 0 l 1
 309 288 l 1
 249 288 l 1
 249 0 l 1
 43 0 l 1
 43 696 l 1
 249 696 l 1
 249 433 l 1
 314 433 l 1
 443 696 l 1
 641 696 l 1
EndSplineSet
EndChar

StartChar: uni041B
Encoding: 1051 1051 451
Width: 653
Flags: W
LayerCount: 2
Fore
SplineSet
133 696 m 1
 610 696 l 1
 610 0 l 1
 404 0 l 1
 404 544 l 1
 305 544 l 1
 282 348 l 2
 257 135 214 11 43 -20 c 1
 -5 120 l 1
 66 150 74 208 93 364 c 2
 133 696 l 1
EndSplineSet
EndChar

StartChar: uni041C
Encoding: 1052 1052 452
Width: 791
Flags: W
LayerCount: 2
Fore
SplineSet
726 696 m 1
 776 0 l 1
 573 0 l 1
 568 247 l 2
 566 337 566 427 575 531 c 1
 493 70 l 1
 298 70 l 1
 210 531 l 1
 221 416 225 342 223 248 c 2
 218 0 l 1
 15 0 l 1
 65 696 l 1
 319 696 l 1
 399 245 l 1
 471 696 l 1
 726 696 l 1
EndSplineSet
EndChar

StartChar: uni041D
Encoding: 1053 1053 453
Width: 657
Flags: W
LayerCount: 2
Fore
SplineSet
408 0 m 1
 408 281 l 1
 249 281 l 1
 249 0 l 1
 43 0 l 1
 43 696 l 1
 249 696 l 1
 249 439 l 1
 408 439 l 1
 408 696 l 1
 614 696 l 1
 614 0 l 1
 408 0 l 1
EndSplineSet
EndChar

StartChar: uni041E
Encoding: 1054 1054 454
Width: 690
Flags: W
LayerCount: 2
Fore
SplineSet
345 716 m 0
 554 716 670 580 670 349 c 0
 670 123 554 -20 345 -20 c 0
 136 -20 20 118 20 349 c 0
 20 575 136 716 345 716 c 0
345 570 m 0
 267 570 234 510 234 349 c 0
 234 188 267 126 345 126 c 0
 425 126 456 188 456 349 c 0
 456 510 423 570 345 570 c 0
EndSplineSet
EndChar

StartChar: uni041F
Encoding: 1055 1055 455
Width: 657
Flags: W
LayerCount: 2
Fore
SplineSet
614 696 m 1
 614 0 l 1
 408 0 l 1
 408 542 l 1
 249 542 l 1
 249 0 l 1
 43 0 l 1
 43 696 l 1
 614 696 l 1
EndSplineSet
EndChar

StartChar: uni0420
Encoding: 1056 1056 456
Width: 611
Flags: W
LayerCount: 2
Fore
SplineSet
294 696 m 2
 481 696 596 618 596 462 c 0
 596 299 482 217 317 217 c 2
 249 217 l 1
 249 0 l 1
 43 0 l 1
 43 696 l 1
 294 696 l 2
297 362 m 2
 355 362 386 394 386 462 c 0
 386 519 359 553 291 553 c 2
 249 553 l 1
 249 362 l 1
 297 362 l 2
EndSplineSet
EndChar

StartChar: uni0421
Encoding: 1057 1057 457
Width: 584
Flags: W
LayerCount: 2
Fore
SplineSet
352 716 m 0
 444 716 516 686 576 634 c 1
 481 522 l 1
 445 549 408 568 362 568 c 0
 282 568 234 497 234 350 c 0
 234 203 282 135 365 135 c 0
 414 135 452 158 494 191 c 1
 584 77 l 1
 533 26 452 -20 355 -20 c 0
 151 -20 20 109 20 350 c 0
 20 582 157 716 352 716 c 0
EndSplineSet
EndChar

StartChar: uni0422
Encoding: 1058 1058 458
Width: 554
Flags: W
LayerCount: 2
Fore
SplineSet
559 696 m 1
 538 542 l 1
 380 542 l 1
 380 0 l 1
 174 0 l 1
 174 542 l 1
 5 542 l 1
 5 696 l 1
 559 696 l 1
EndSplineSet
EndChar

StartChar: uni0423
Encoding: 1059 1059 459
Width: 599
Flags: W
LayerCount: 2
Fore
SplineSet
624 696 m 1
 448 219 l 2
 382 39 291 -9 116 -20 c 1
 90 115 l 1
 174 121 217 137 250 180 c 1
 188 180 l 1
 -20 696 l 1
 191 696 l 1
 311 293 l 1
 415 696 l 1
 624 696 l 1
EndSplineSet
EndChar

StartChar: uni0424
Encoding: 1060 1060 460
Width: 873
Flags: W
LayerCount: 2
Fore
SplineSet
863 351 m 0
 863 141 728 51 536 41 c 1
 536 -44 l 1
 336 -44 l 1
 336 41 l 1
 148 51 10 136 10 345 c 0
 10 554 144 644 336 655 c 1
 336 736 l 1
 536 736 l 1
 536 655 l 1
 725 645 863 560 863 351 c 0
526 161 m 1
 622 171 655 234 655 351 c 0
 655 467 618 526 526 536 c 1
 526 161 l 1
218 345 m 0
 218 230 255 171 346 160 c 1
 346 535 l 1
 251 525 218 461 218 345 c 0
EndSplineSet
EndChar

StartChar: uni0425
Encoding: 1061 1061 461
Width: 606
Flags: W
LayerCount: 2
Fore
SplineSet
422 375 m 1
 616 0 l 1
 394 0 l 1
 298 239 l 1
 208 0 l 1
 -10 0 l 1
 176 369 l 1
 3 696 l 1
 224 696 l 1
 300 496 l 1
 385 696 l 1
 602 696 l 1
 422 375 l 1
EndSplineSet
EndChar

StartChar: uni0426
Encoding: 1062 1062 462
Width: 699
Flags: W
LayerCount: 2
Fore
SplineSet
609 154 m 1
 689 154 l 1
 689 -175 l 1
 552 -175 l 1
 532 0 l 1
 43 0 l 1
 43 696 l 1
 249 696 l 1
 249 158 l 1
 403 158 l 1
 403 696 l 1
 609 696 l 1
 609 154 l 1
EndSplineSet
EndChar

StartChar: uni0427
Encoding: 1063 1063 463
Width: 623
Flags: W
LayerCount: 2
Fore
SplineSet
374 696 m 1
 580 696 l 1
 580 0 l 1
 374 0 l 1
 374 244 l 1
 335 211 290 195 232 195 c 0
 89 195 10 293 10 451 c 2
 10 696 l 1
 212 696 l 1
 212 451 l 2
 212 374 234 341 293 341 c 0
 331 341 354 351 374 368 c 1
 374 696 l 1
EndSplineSet
EndChar

StartChar: uni0428
Encoding: 1064 1064 464
Width: 900
Flags: W
LayerCount: 2
Fore
SplineSet
857 696 m 1
 857 0 l 1
 43 0 l 1
 43 696 l 1
 245 696 l 1
 245 158 l 1
 354 158 l 1
 354 696 l 1
 546 696 l 1
 546 158 l 1
 655 158 l 1
 655 696 l 1
 857 696 l 1
EndSplineSet
EndChar

StartChar: uni0429
Encoding: 1065 1065 465
Width: 947
Flags: W
LayerCount: 2
Fore
SplineSet
857 154 m 1
 937 154 l 1
 937 -175 l 1
 800 -175 l 1
 780 0 l 1
 43 0 l 1
 43 696 l 1
 245 696 l 1
 245 158 l 1
 354 158 l 1
 354 696 l 1
 546 696 l 1
 546 158 l 1
 655 158 l 1
 655 696 l 1
 857 696 l 1
 857 154 l 1
EndSplineSet
EndChar

StartChar: uni042A
Encoding: 1066 1066 466
Width: 737
Flags: W
LayerCount: 2
Fore
SplineSet
444 469 m 2
 624 469 727 395 727 242 c 0
 727 80 611 0 452 0 c 2
 174 0 l 1
 174 546 l 1
 5 546 l 1
 5 696 l 1
 380 696 l 1
 380 469 l 1
 444 469 l 2
425 145 m 2
 486 145 513 181 513 240 c 0
 513 295 489 331 421 331 c 2
 380 331 l 1
 380 145 l 1
 425 145 l 2
EndSplineSet
EndChar

StartChar: uni042B
Encoding: 1067 1067 467
Width: 869
Flags: W
LayerCount: 2
Fore
SplineSet
303 469 m 2
 483 469 586 395 586 242 c 0
 586 80 470 0 311 0 c 2
 43 0 l 1
 43 696 l 1
 249 696 l 1
 249 469 l 1
 303 469 l 2
620 696 m 1
 826 696 l 1
 826 0 l 1
 620 0 l 1
 620 696 l 1
284 145 m 2
 345 145 372 181 372 240 c 0
 372 295 348 331 280 331 c 2
 249 331 l 1
 249 145 l 1
 284 145 l 2
EndSplineSet
EndChar

StartChar: uni042C
Encoding: 1068 1068 468
Width: 606
Flags: W
LayerCount: 2
Fore
SplineSet
313 469 m 2
 493 469 596 395 596 242 c 0
 596 80 480 0 321 0 c 2
 43 0 l 1
 43 696 l 1
 249 696 l 1
 249 469 l 1
 313 469 l 2
294 145 m 2
 355 145 382 181 382 240 c 0
 382 295 358 331 290 331 c 2
 249 331 l 1
 249 145 l 1
 294 145 l 2
EndSplineSet
EndChar

StartChar: uni042D
Encoding: 1069 1069 469
Width: 544
Flags: W
LayerCount: 2
Fore
SplineSet
234 716 m 0
 418 716 524 592 524 360 c 0
 524 109 407 -20 221 -20 c 0
 122 -20 55 11 0 64 c 1
 89 174 l 1
 126 144 158 129 204 129 c 0
 274 129 312 181 317 286 c 1
 103 286 l 1
 103 424 l 1
 317 424 l 1
 309 527 276 571 215 571 c 0
 169 571 139 554 102 521 c 1
 6 633 l 1
 66 685 128 716 234 716 c 0
EndSplineSet
EndChar

StartChar: uni042E
Encoding: 1070 1070 470
Width: 951
Flags: W
LayerCount: 2
Fore
SplineSet
616 716 m 0
 820 716 931 580 931 349 c 0
 931 123 820 -20 616 -20 c 0
 430 -20 333 94 314 281 c 1
 249 281 l 1
 249 0 l 1
 43 0 l 1
 43 696 l 1
 249 696 l 1
 249 439 l 1
 318 439 l 1
 348 614 442 716 616 716 c 0
616 126 m 0
 689 126 717 188 717 349 c 0
 717 510 687 570 616 570 c 0
 545 570 515 510 515 349 c 0
 515 188 545 126 616 126 c 0
EndSplineSet
EndChar

StartChar: uni042F
Encoding: 1071 1071 471
Width: 609
Flags: W
LayerCount: 2
Fore
SplineSet
314 696 m 2
 566 696 l 1
 566 0 l 1
 360 0 l 1
 360 237 l 1
 313 237 l 1
 209 0 l 1
 -15 0 l 1
 133 273 l 1
 59 307 17 364 17 467 c 0
 17 624 117 696 314 696 c 2
316 375 m 2
 360 375 l 1
 360 555 l 1
 324 555 l 2
 265 555 231 521 231 461 c 0
 231 404 267 375 316 375 c 2
EndSplineSet
EndChar

StartChar: uni0430
Encoding: 1072 1072 472
Width: 551
Flags: W
LayerCount: 2
Fore
SplineSet
504 173 m 2
 504 135 512 120 536 111 c 1
 496 -16 l 1
 427 -11 382 7 352 58 c 1
 313 -1 252 -20 191 -20 c 0
 84 -20 15 51 15 150 c 0
 15 268 105 333 273 333 c 2
 311 333 l 1
 311 346 l 2
 311 400 293 414 234 414 c 0
 203 414 149 404 96 386 c 1
 53 512 l 1
 120 539 203 554 264 554 c 0
 434 554 504 489 504 357 c 2
 504 173 l 2
252 119 m 0
 277 119 298 133 311 151 c 1
 311 230 l 1
 290 230 l 2
 234 230 208 211 208 169 c 0
 208 139 225 119 252 119 c 0
EndSplineSet
EndChar

StartChar: uni0431
Encoding: 1073 1073 473
Width: 571
Flags: W
LayerCount: 2
Fore
SplineSet
356 495 m 0
 462 495 556 409 556 246 c 0
 556 86 452 -20 290 -20 c 0
 127 -20 20 76 20 302 c 0
 20 528 72 634 251 688 c 0
 338 714 370 730 433 764 c 1
 501 644 l 1
 448 609 402 593 324 569 c 0
 247 545 215 512 204 421 c 1
 241 470 285 495 356 495 c 0
288 122 m 0
 329 122 353 149 353 240 c 0
 353 334 332 353 294 353 c 0
 267 353 240 339 223 308 c 1
 223 236 l 2
 223 150 249 122 288 122 c 0
EndSplineSet
EndChar

StartChar: uni0432
Encoding: 1074 1074 474
Width: 552
Flags: W
LayerCount: 2
Fore
SplineSet
398 295 m 1
 494 283 535 235 535 161 c 0
 535 50 434 0 288 0 c 2
 42 0 l 1
 42 529 l 1
 131 545 201 554 274 554 c 0
 422 554 513 507 513 409 c 0
 513 350 475 309 398 295 c 1
269 435 m 0
 260 435 253 435 240 434 c 1
 240 329 l 1
 270 329 l 2
 301 329 320 348 320 382 c 0
 320 415 303 435 269 435 c 0
280 123 m 2
 317 123 333 144 333 181 c 0
 333 216 316 237 280 237 c 2
 240 237 l 1
 240 123 l 1
 280 123 l 2
EndSplineSet
EndChar

StartChar: uni0433
Encoding: 1075 1075 475
Width: 436
Flags: W
LayerCount: 2
Fore
SplineSet
240 0 m 1
 42 0 l 1
 42 534 l 1
 446 534 l 1
 423 387 l 1
 240 387 l 1
 240 0 l 1
EndSplineSet
EndChar

StartChar: uni0434
Encoding: 1076 1076 476
Width: 553
Flags: W
LayerCount: 2
Fore
SplineSet
506 142 m 1
 563 142 l 1
 563 -175 l 1
 433 -175 l 1
 413 0 l 1
 150 0 l 1
 130 -175 l 1
 0 -175 l 1
 0 142 l 1
 31 142 l 1
 57 162 74 196 89 363 c 2
 104 534 l 1
 506 534 l 1
 506 142 l 1
324 142 m 1
 324 410 l 1
 271 410 l 1
 268 379 l 2
 254 234 228 170 172 142 c 1
 324 142 l 1
EndSplineSet
EndChar

StartChar: uni0435
Encoding: 1077 1077 477
Width: 560
Flags: W
LayerCount: 2
Fore
SplineSet
545 274 m 0
 545 257 543 230 541 211 c 1
 217 211 l 1
 228 134 266 120 324 120 c 0
 362 120 399 135 445 167 c 1
 525 59 l 1
 472 16 398 -20 305 -20 c 0
 109 -20 17 101 17 266 c 0
 17 422 106 554 283 554 c 0
 441 554 545 453 545 274 c 0
350 323 m 1
 350 330 l 2
 349 384 338 429 287 429 c 0
 245 429 223 405 216 323 c 1
 350 323 l 1
EndSplineSet
EndChar

StartChar: uni0436
Encoding: 1078 1078 478
Width: 781
Flags: W
LayerCount: 2
Fore
SplineSet
778 534 m 1
 662 286 l 1
 786 0 l 1
 589 0 l 1
 509 219 l 1
 475 219 l 1
 475 0 l 1
 306 0 l 1
 306 219 l 1
 272 219 l 1
 191 0 l 1
 -5 0 l 1
 119 286 l 1
 3 534 l 1
 185 534 l 1
 269 329 l 1
 306 329 l 1
 306 534 l 1
 475 534 l 1
 475 329 l 1
 512 329 l 1
 597 534 l 1
 778 534 l 1
EndSplineSet
EndChar

StartChar: uni0437
Encoding: 1079 1079 479
Width: 494
Flags: W
LayerCount: 2
Fore
SplineSet
235 554 m 0
 360 554 454 497 454 404 c 0
 454 343 411 303 331 284 c 1
 428 271 479 231 479 152 c 0
 479 37 375 -20 220 -20 c 0
 128 -20 54 1 -5 43 c 1
 86 150 l 1
 135 122 169 116 213 116 c 0
 259 116 276 135 276 165 c 0
 276 194 259 212 213 212 c 2
 122 212 l 1
 133 332 l 1
 200 332 l 2
 240 332 255 350 255 380 c 0
 255 407 237 422 205 422 c 0
 165 422 134 411 100 390 c 1
 10 491 l 1
 72 533 144 554 235 554 c 0
EndSplineSet
EndChar

StartChar: uni0438
Encoding: 1080 1080 480
Width: 585
Flags: W
LayerCount: 2
Fore
SplineSet
543 534 m 1
 543 0 l 1
 357 0 l 1
 357 160 l 2
 357 234 370 297 385 352 c 1
 234 0 l 1
 42 0 l 1
 42 534 l 1
 229 534 l 1
 229 370 l 2
 229 297 217 233 201 178 c 1
 350 534 l 1
 543 534 l 1
EndSplineSet
EndChar

StartChar: uni0439
Encoding: 1081 1081 481
Width: 585
Flags: W
LayerCount: 2
Fore
SplineSet
293 626 m 0
 173 626 116 702 108 802 c 1
 211 819 l 1
 222 777 248 760 293 760 c 0
 338 760 364 777 375 819 c 1
 478 802 l 1
 470 702 413 626 293 626 c 0
543 534 m 1
 543 0 l 1
 357 0 l 1
 357 160 l 2
 357 234 370 297 385 352 c 1
 234 0 l 1
 42 0 l 1
 42 534 l 1
 229 534 l 1
 229 370 l 2
 229 297 217 233 201 178 c 1
 350 534 l 1
 543 534 l 1
EndSplineSet
EndChar

StartChar: uni043A
Encoding: 1082 1082 482
Width: 566
Flags: W
LayerCount: 2
Fore
SplineSet
568 534 m 1
 439 286 l 1
 576 0 l 1
 374 0 l 1
 277 219 l 1
 240 219 l 1
 240 0 l 1
 42 0 l 1
 42 534 l 1
 240 534 l 1
 240 329 l 1
 282 329 l 1
 385 534 l 1
 568 534 l 1
EndSplineSet
EndChar

StartChar: uni043B
Encoding: 1083 1083 483
Width: 567
Flags: W
LayerCount: 2
Fore
SplineSet
90 534 m 1
 525 534 l 1
 525 0 l 1
 327 0 l 1
 327 393 l 1
 263 393 l 1
 256 317 l 2
 236 102 219 20 48 -13 c 1
 0 127 l 1
 59 157 67 167 77 324 c 2
 90 534 l 1
EndSplineSet
EndChar

StartChar: uni043C
Encoding: 1084 1084 484
Width: 672
Flags: W
LayerCount: 2
Fore
SplineSet
617 534 m 1
 662 0 l 1
 476 0 l 1
 472 154 l 2
 469 228 471 289 480 365 c 1
 415 51 l 1
 257 51 l 1
 191 365 l 1
 201 291 201 230 199 154 c 2
 195 0 l 1
 10 0 l 1
 54 534 l 1
 281 534 l 1
 336 212 l 1
 388 534 l 1
 617 534 l 1
EndSplineSet
EndChar

StartChar: uni043D
Encoding: 1085 1085 485
Width: 582
Flags: W
LayerCount: 2
Fore
SplineSet
342 0 m 1
 342 199 l 1
 240 199 l 1
 240 0 l 1
 42 0 l 1
 42 534 l 1
 240 534 l 1
 240 341 l 1
 342 341 l 1
 342 534 l 1
 540 534 l 1
 540 0 l 1
 342 0 l 1
EndSplineSet
EndChar

StartChar: uni043E
Encoding: 1086 1086 486
Width: 584
Flags: W
LayerCount: 2
Fore
SplineSet
292 554 m 0
 460 554 567 452 567 266 c 0
 567 92 462 -20 292 -20 c 0
 124 -20 17 82 17 268 c 0
 17 442 122 554 292 554 c 0
292 412 m 0
 242 412 220 369 220 268 c 0
 220 162 242 122 292 122 c 0
 342 122 364 165 364 266 c 0
 364 372 342 412 292 412 c 0
EndSplineSet
EndChar

StartChar: uni043F
Encoding: 1087 1087 487
Width: 578
Flags: W
LayerCount: 2
Fore
SplineSet
338 0 m 1
 338 391 l 1
 240 391 l 1
 240 0 l 1
 42 0 l 1
 42 534 l 1
 536 534 l 1
 536 0 l 1
 338 0 l 1
EndSplineSet
EndChar

StartChar: uni0440
Encoding: 1088 1088 488
Width: 594
Flags: W
LayerCount: 2
Fore
SplineSet
377 554 m 0
 512 554 577 445 577 269 c 0
 577 103 492 -20 364 -20 c 0
 314 -20 272 -2 240 33 c 1
 240 -207 l 1
 42 -227 l 1
 42 534 l 1
 218 534 l 1
 226 482 l 1
 272 537 329 554 377 554 c 0
299 121 m 0
 343 121 374 158 374 266 c 0
 374 395 346 412 310 412 c 0
 285 412 260 398 240 362 c 1
 240 158 l 1
 258 131 275 121 299 121 c 0
EndSplineSet
EndChar

StartChar: uni0441
Encoding: 1089 1089 489
Width: 479
Flags: W
LayerCount: 2
Fore
SplineSet
295 554 m 0
 377 554 438 528 489 483 c 1
 407 368 l 1
 375 394 345 405 313 405 c 0
 255 405 223 371 223 263 c 0
 223 156 260 133 311 133 c 0
 344 133 367 144 404 167 c 1
 489 46 l 1
 440 6 380 -20 300 -20 c 0
 124 -20 17 96 17 263 c 0
 17 432 126 554 295 554 c 0
EndSplineSet
EndChar

StartChar: uni0442
Encoding: 1090 1090 490
Width: 485
Flags: W
LayerCount: 2
Fore
SplineSet
495 534 m 1
 470 391 l 1
 342 391 l 1
 342 0 l 1
 144 0 l 1
 144 391 l 1
 0 391 l 1
 0 534 l 1
 495 534 l 1
EndSplineSet
EndChar

StartChar: uni0443
Encoding: 1091 1091 491
Width: 534
Flags: W
LayerCount: 2
Fore
SplineSet
549 534 m 1
 385 1 l 2
 340 -147 232 -223 53 -228 c 1
 32 -93 l 1
 134 -83 177 -60 205 0 c 1
 137 0 l 1
 -15 534 l 1
 195 534 l 1
 262 121 l 1
 345 534 l 1
 549 534 l 1
EndSplineSet
EndChar

StartChar: uni0444
Encoding: 1092 1092 492
Width: 841
Flags: W
LayerCount: 2
Fore
SplineSet
639 554 m 0
 765 554 824 447 824 266 c 0
 824 88 746 -20 632 -20 c 0
 584 -20 544 -2 513 32 c 1
 513 -207 l 1
 328 -227 l 1
 328 32 l 1
 297 -2 257 -20 209 -20 c 0
 95 -20 17 88 17 266 c 0
 17 447 88 554 212 554 c 0
 256 554 293 540 328 504 c 1
 328 764 l 1
 513 744 l 1
 513 503 l 1
 550 540 593 554 639 554 c 0
274 119 m 0
 296 119 310 129 328 152 c 1
 328 380 l 1
 312 402 296 415 274 415 c 0
 235 415 215 384 215 266 c 0
 215 152 237 119 274 119 c 0
568 119 m 0
 605 119 626 152 626 266 c 0
 626 384 610 415 572 415 c 0
 549 415 532 402 513 380 c 1
 513 152 l 1
 531 129 545 119 568 119 c 0
EndSplineSet
EndChar

StartChar: uni0445
Encoding: 1093 1093 493
Width: 528
Flags: W
LayerCount: 2
Fore
SplineSet
383 286 m 1
 548 0 l 1
 327 0 l 1
 257 184 l 1
 193 0 l 1
 -20 0 l 1
 143 280 l 1
 -6 534 l 1
 213 534 l 1
 265 377 l 1
 312 534 l 1
 519 534 l 1
 383 286 l 1
EndSplineSet
EndChar

StartChar: uni0446
Encoding: 1094 1094 494
Width: 600
Flags: W
LayerCount: 2
Fore
SplineSet
530 142 m 1
 610 142 l 1
 610 -175 l 1
 480 -175 l 1
 460 0 l 1
 42 0 l 1
 42 534 l 1
 240 534 l 1
 240 142 l 1
 332 142 l 1
 332 534 l 1
 530 534 l 1
 530 142 l 1
EndSplineSet
EndChar

StartChar: uni0447
Encoding: 1095 1095 495
Width: 550
Flags: W
LayerCount: 2
Fore
SplineSet
310 534 m 1
 508 534 l 1
 508 0 l 1
 310 0 l 1
 310 185 l 1
 273 158 223 140 169 140 c 0
 61 140 15 208 15 310 c 2
 15 534 l 1
 213 534 l 1
 213 336 l 2
 213 294 228 284 249 284 c 0
 272 284 294 293 310 305 c 1
 310 534 l 1
EndSplineSet
EndChar

StartChar: uni0448
Encoding: 1096 1096 496
Width: 773
Flags: W
LayerCount: 2
Fore
SplineSet
731 534 m 1
 731 0 l 1
 42 0 l 1
 42 534 l 1
 230 534 l 1
 230 142 l 1
 305 142 l 1
 305 534 l 1
 468 534 l 1
 468 142 l 1
 543 142 l 1
 543 534 l 1
 731 534 l 1
EndSplineSet
EndChar

StartChar: uni0449
Encoding: 1097 1097 497
Width: 801
Flags: W
LayerCount: 2
Fore
SplineSet
731 142 m 1
 811 142 l 1
 811 -175 l 1
 681 -175 l 1
 661 0 l 1
 42 0 l 1
 42 534 l 1
 230 534 l 1
 230 142 l 1
 305 142 l 1
 305 534 l 1
 468 534 l 1
 468 142 l 1
 543 142 l 1
 543 534 l 1
 731 534 l 1
 731 142 l 1
EndSplineSet
EndChar

StartChar: uni044A
Encoding: 1098 1098 498
Width: 628
Flags: W
LayerCount: 2
Fore
SplineSet
360 371 m 2
 542 371 623 309 623 184 c 0
 623 64 530 0 387 0 c 2
 144 0 l 1
 144 395 l 1
 0 395 l 1
 0 534 l 1
 342 534 l 1
 342 371 l 1
 360 371 l 2
365 123 m 2
 406 123 424 149 424 188 c 0
 424 229 406 251 357 251 c 2
 342 251 l 1
 342 123 l 1
 365 123 l 2
EndSplineSet
EndChar

StartChar: uni044B
Encoding: 1099 1099 499
Width: 778
Flags: W
LayerCount: 2
Fore
SplineSet
248 371 m 2
 430 371 511 309 511 184 c 0
 511 64 418 0 275 0 c 2
 42 0 l 1
 42 534 l 1
 240 534 l 1
 240 371 l 1
 248 371 l 2
538 534 m 1
 736 534 l 1
 736 0 l 1
 538 0 l 1
 538 534 l 1
253 123 m 2
 294 123 312 149 312 188 c 0
 312 229 294 251 245 251 c 2
 240 251 l 1
 240 123 l 1
 253 123 l 2
EndSplineSet
EndChar

StartChar: uni044C
Encoding: 1100 1100 500
Width: 526
Flags: W
LayerCount: 2
Fore
SplineSet
258 371 m 2
 440 371 521 309 521 184 c 0
 521 64 428 0 285 0 c 2
 42 0 l 1
 42 534 l 1
 240 534 l 1
 240 371 l 1
 258 371 l 2
263 123 m 2
 304 123 322 149 322 188 c 0
 322 229 304 251 255 251 c 2
 240 251 l 1
 240 123 l 1
 263 123 l 2
EndSplineSet
EndChar

StartChar: uni044D
Encoding: 1101 1101 501
Width: 487
Flags: W
LayerCount: 2
Fore
SplineSet
211 554 m 0
 367 554 470 460 470 273 c 0
 470 96 370 -20 189 -20 c 0
 112 -20 54 2 0 41 c 1
 82 151 l 1
 120 128 147 120 180 120 c 0
 225 120 265 142 272 219 c 1
 97 219 l 1
 97 323 l 1
 271 323 l 1
 266 393 235 414 194 414 c 0
 159 414 129 405 94 382 c 1
 12 488 l 1
 64 530 129 554 211 554 c 0
EndSplineSet
EndChar

StartChar: uni044E
Encoding: 1102 1102 502
Width: 820
Flags: W
LayerCount: 2
Fore
SplineSet
546 554 m 0
 696 554 803 454 803 266 c 0
 803 92 698 -20 546 -20 c 0
 406 -20 319 59 294 205 c 1
 240 205 l 1
 240 0 l 1
 42 0 l 1
 42 534 l 1
 240 534 l 1
 240 335 l 1
 297 335 l 1
 322 470 406 554 546 554 c 0
546 122 m 0
 589 122 605 165 605 266 c 0
 605 372 589 412 546 412 c 0
 503 412 487 369 487 268 c 0
 487 162 503 122 546 122 c 0
EndSplineSet
EndChar

StartChar: uni044F
Encoding: 1103 1103 503
Width: 560
Flags: W
LayerCount: 2
Fore
SplineSet
298 534 m 2
 518 534 l 1
 518 0 l 1
 320 0 l 1
 320 175 l 1
 281 175 l 1
 194 0 l 1
 -15 0 l 1
 106 222 l 1
 60 247 30 292 30 353 c 0
 30 473 121 534 298 534 c 2
294 283 m 2
 320 283 l 1
 320 414 l 1
 298 414 l 2
 251 414 230 386 230 351 c 0
 230 314 250 283 294 283 c 2
EndSplineSet
EndChar

StartChar: uni0450
Encoding: 1104 1104 504
Width: 560
Flags: W
LayerCount: 2
Fore
SplineSet
217 856 m 1
 447 712 l 1
 394 613 l 1
 143 712 l 1
 217 856 l 1
545 274 m 0
 545 257 543 230 541 211 c 1
 217 211 l 1
 228 134 266 120 324 120 c 0
 362 120 399 135 445 167 c 1
 525 59 l 1
 472 16 398 -20 305 -20 c 0
 109 -20 17 101 17 266 c 0
 17 422 106 554 283 554 c 0
 441 554 545 453 545 274 c 0
350 323 m 1
 350 330 l 2
 349 384 338 429 287 429 c 0
 245 429 223 405 216 323 c 1
 350 323 l 1
EndSplineSet
EndChar

StartChar: uni0451
Encoding: 1105 1105 505
Width: 560
Flags: W
LayerCount: 2
Fore
SplineSet
162 818 m 0
 216 818 257 777 257 726 c 0
 257 674 216 633 162 633 c 0
 110 633 67 674 67 726 c 0
 67 777 110 818 162 818 c 0
407 818 m 0
 461 818 502 777 502 726 c 0
 502 674 461 633 407 633 c 0
 355 633 312 674 312 726 c 0
 312 777 355 818 407 818 c 0
545 274 m 0
 545 257 543 230 541 211 c 1
 217 211 l 1
 228 134 266 120 324 120 c 0
 362 120 399 135 445 167 c 1
 525 59 l 1
 472 16 398 -20 305 -20 c 0
 109 -20 17 101 17 266 c 0
 17 422 106 554 283 554 c 0
 441 554 545 453 545 274 c 0
350 323 m 1
 350 330 l 2
 349 384 338 429 287 429 c 0
 245 429 223 405 216 323 c 1
 350 323 l 1
EndSplineSet
EndChar

StartChar: uni0452
Encoding: 1106 1106 506
Width: 580
Flags: W
LayerCount: 2
Fore
SplineSet
401 554 m 0
 490 554 545 496 545 394 c 2
 545 77 l 2
 545 -111 435 -184 303 -227 c 1
 235 -83 l 1
 302 -52 347 -22 347 65 c 2
 347 358 l 2
 347 400 335 410 317 410 c 0
 296 410 273 393 250 357 c 1
 250 0 l 1
 52 0 l 1
 52 590 l 1
 0 590 l 1
 0 696 l 1
 52 696 l 1
 52 744 l 1
 250 764 l 1
 250 696 l 1
 375 696 l 1
 375 590 l 1
 250 590 l 1
 250 486 l 1
 296 534 341 554 401 554 c 0
EndSplineSet
EndChar

StartChar: uni0453
Encoding: 1107 1107 507
Width: 436
Flags: W
LayerCount: 2
Fore
SplineSet
312 856 m 1
 386 712 l 1
 135 613 l 1
 82 712 l 1
 312 856 l 1
240 0 m 1
 42 0 l 1
 42 534 l 1
 446 534 l 1
 423 387 l 1
 240 387 l 1
 240 0 l 1
EndSplineSet
EndChar

StartChar: uni0454
Encoding: 1108 1108 508
Width: 489
Flags: W
LayerCount: 2
Fore
SplineSet
310 120 m 0
 345 120 373 131 407 157 c 1
 489 46 l 1
 438 6 380 -20 303 -20 c 0
 124 -20 17 96 17 263 c 0
 17 432 126 554 295 554 c 0
 377 554 438 528 489 483 c 1
 407 377 l 1
 375 403 343 414 308 414 c 0
 252 414 219 389 215 323 c 1
 390 323 l 1
 390 219 l 1
 215 219 l 1
 218 144 260 120 310 120 c 0
EndSplineSet
EndChar

StartChar: uni0455
Encoding: 1109 1109 509
Width: 488
Flags: W
LayerCount: 2
Fore
SplineSet
256 554 m 0
 335 554 412 527 461 485 c 1
 391 378 l 1
 353 402 307 417 264 417 c 0
 231 417 219 407 219 393 c 0
 219 375 225 367 326 336 c 0
 427 305 483 261 483 164 c 0
 483 54 378 -20 230 -20 c 0
 136 -20 50 13 -5 65 c 1
 89 169 l 1
 127 139 176 116 225 116 c 0
 260 116 281 127 281 149 c 0
 281 175 270 180 178 208 c 0
 78 238 23 295 23 381 c 0
 23 477 106 554 256 554 c 0
EndSplineSet
EndChar

StartChar: uni0456
Encoding: 1110 1110 510
Width: 282
Flags: W
LayerCount: 2
Fore
SplineSet
141 829 m 0
 206 829 252 783 252 723 c 0
 252 663 206 617 141 617 c 0
 76 617 30 663 30 723 c 0
 30 783 76 829 141 829 c 0
240 534 m 1
 240 0 l 1
 42 0 l 1
 42 534 l 1
 240 534 l 1
EndSplineSet
EndChar

